<svg width="84" height="51" viewBox="0 0 84 51" fill="none" xmlns="http://www.w3.org/2000/svg">
<path d="M19.6504 13.5275H35.3576V14.77H21.0902V24.1209H34.5068V25.3633H21.0902V35.6297H35.5212V36.8722H19.6504V13.5275ZM36.7647 13.5275H38.4336L45.8291 23.7939L53.3881 13.5275L63.6697 0.486816L46.778 24.8729L55.4824 36.8722H53.7481L45.8291 25.9518L37.8773 36.8722H36.1757L44.9455 24.8729L36.7647 13.5275ZM56.1042 14.77V13.5275H74.0038V14.77H65.7576V36.8722H64.3177V14.77H56.1042Z" fill="black"/>
<path d="M0 13.5273H1.79978L26.6177 50.4866L16.3617 36.872L1.50527 15.2929L1.43983 36.872H0V13.5273Z" fill="black"/>
<path d="M73.8585 35.2547C74.1562 35.2547 74.3733 35.0279 74.3733 34.7347C74.3733 34.4416 74.1562 34.2148 73.8585 34.2148C73.5644 34.2148 73.3438 34.4416 73.3438 34.7347C73.3438 35.0279 73.5644 35.2547 73.8585 35.2547ZM75.2733 33.8867C75.2733 34.7522 75.9002 35.3175 76.8142 35.3175C77.7878 35.3175 78.3761 34.7347 78.3761 33.7227V30.1597H77.5917V33.7192C77.5917 34.2811 77.308 34.5812 76.8072 34.5812C76.359 34.5812 76.0543 34.302 76.0438 33.8867H75.2733ZM79.4022 33.8414C79.4582 34.7417 80.2111 35.3175 81.3318 35.3175C82.5295 35.3175 83.2789 34.7138 83.2789 33.7506C83.2789 32.9934 82.8516 32.5746 81.8151 32.3338L81.2582 32.1977C80.5999 32.0442 80.3337 31.8383 80.3337 31.4788C80.3337 31.0252 80.7469 30.7286 81.3668 30.7286C81.9551 30.7286 82.3614 31.0182 82.4349 31.4823H83.1983C83.1528 30.6343 82.4034 30.0376 81.3773 30.0376C80.2742 30.0376 79.5388 30.6343 79.5388 31.5312C79.5388 32.271 79.9555 32.7107 80.8695 32.9236L81.5209 33.0806C82.1898 33.2377 82.4839 33.468 82.4839 33.8518C82.4839 34.2985 82.0217 34.6231 81.3913 34.6231C80.7154 34.6231 80.2462 34.3195 80.1796 33.8414H79.4022Z" fill="black"/>
</svg>
