<svg width="67" height="50" viewBox="0 0 67 50" fill="none" xmlns="http://www.w3.org/2000/svg">
<path d="M37.8261 13.6834L35.5543 17.6834L27.7847 4.0001L3.93323 46H20.0822C20.0822 48.2091 21.8435 50 24.0162 50H3.93323C2.52789 50 1.22942 49.2372 0.526866 47.9997C-0.175689 46.7621 -0.175618 45.2375 0.527055 44L24.3785 2.00011C25.0812 0.762443 26.3799 0 27.7855 0C29.191 0 30.4897 0.762443 31.1925 2.00011L37.8261 13.6834V13.6834Z" fill="#00C58E"/>
<path d="M55.0439 44.0002L40.098 17.6836L37.8262 13.6836L35.5543 17.6836L20.6101 44.0002C19.9074 45.2377 19.9073 46.7623 20.6099 47.9998C21.3124 49.2374 22.6109 50.0002 24.0162 50.0002H51.6328C53.0384 50.0002 54.3374 49.2382 55.0404 48.0006C55.7434 46.7629 55.7434 45.2379 55.0406 44.0002H55.0439ZM24.0162 46.0002L37.8262 21.6836L51.6328 46.0002H24.0162H24.0162Z" fill="#2F495E"/>
<path d="M65.7296 48C65.027 49.2374 63.7286 50 62.3234 50H51.6328C53.8055 50 55.5668 48.2091 55.5668 46H62.3152L43.1666 12.2784L40.098 17.6834L37.8262 13.6834L39.7604 10.2784C40.4631 9.04076 41.7619 8.27832 43.1674 8.27832C44.5729 8.27832 45.8716 9.04076 46.5744 10.2784L65.7296 44C66.4323 45.2376 66.4323 46.7624 65.7296 48Z" fill="#108775"/>
</svg>
