<svg width="50" height="50" viewBox="0 0 50 50" fill="none" xmlns="http://www.w3.org/2000/svg">
<path d="M0.147461 24.9455C0.147461 29.1227 3.81196 33.022 9.58906 35.2201C8.4354 41.6846 9.38243 46.8953 12.5452 48.9255C15.796 51.0125 20.6392 49.5679 25.2361 45.0951C29.7169 49.3872 34.2455 51.0764 37.4055 49.0403C40.6534 46.9475 41.641 41.3836 40.4555 34.717C46.4729 32.5027 49.8388 29.1777 49.8388 24.9455C49.8388 20.8653 46.1676 17.3355 40.4682 15.1516C41.7446 8.20963 40.6632 3.1255 37.3693 1.01137C34.1939 -1.02689 29.6126 0.749635 25.066 5.15398C20.3357 0.4792 15.7997 -0.947974 12.5094 1.17203C9.33692 3.21616 8.43169 8.52159 9.58906 15.1057C4.00687 17.272 0.147461 20.8818 0.147461 24.9455Z" fill="white"/>
<path d="M39.2606 17.3204C38.7909 17.1411 38.3172 16.9749 37.84 16.8221C37.9191 16.4642 37.9923 16.1046 38.0595 15.7437C39.1348 9.93322 38.4317 5.25234 36.0307 3.71147C33.7286 2.23365 29.9635 3.77452 26.1609 7.45778C25.7862 7.82155 25.4199 8.1958 25.0622 8.58017C24.8226 8.32459 24.5788 8.07397 24.3309 7.82843C20.3458 3.88974 16.3512 2.23017 13.9527 3.77561C11.6528 5.25756 10.9715 9.65822 11.9397 15.1647C12.036 15.71 12.1447 16.2525 12.2658 16.7917C11.7006 16.9704 11.1547 17.1608 10.6325 17.3634C5.96042 19.1765 2.97656 22.0182 2.97656 24.9656C2.97656 28.01 6.17955 31.0634 11.0461 32.9147C11.4408 33.0642 11.8386 33.2026 12.2395 33.33C12.1092 33.9108 11.9936 34.4956 11.8928 35.0837C10.9698 40.4945 11.6907 44.7908 13.9845 46.2637C16.3537 47.7843 20.3301 46.2213 24.2022 42.4539C24.5083 42.156 24.8155 41.8402 25.1231 41.5091C25.5105 41.9252 25.9083 42.3292 26.316 42.7206C30.0666 46.313 33.7708 47.7637 36.0627 46.2869C38.4298 44.7617 39.1989 40.1463 38.2001 34.5308C38.1239 34.1019 38.0351 33.6639 37.9355 33.2178C38.2147 33.126 38.4888 33.0313 38.7561 32.9326C43.8153 31.0669 47.1068 28.0506 47.1068 24.9656C47.1068 22.0076 44.0268 19.1467 39.2606 17.3204Z" fill="#53C1DE"/>
<path d="M38.1638 30.9411C37.9226 31.03 37.675 31.1158 37.4227 31.1991C36.8641 29.2311 36.1102 27.1382 35.188 24.9763C36.0682 22.8654 36.7928 20.7995 37.3358 18.8441C37.7871 18.9898 38.2254 19.143 38.6476 19.305C42.7314 20.8695 45.2223 23.1832 45.2223 24.9658C45.2223 26.8648 42.532 29.33 38.164 30.9411H38.1638ZM36.3514 34.9387C36.793 37.4217 36.8561 39.6667 36.5635 41.4217C36.3006 42.9987 35.7721 44.05 35.1187 44.4711C33.7279 45.3671 30.7536 44.2024 27.5463 41.1302C27.1786 40.778 26.8081 40.4019 26.4366 40.0041C27.6801 38.4902 28.9228 36.7302 30.1357 34.7758C32.2692 34.5652 34.2847 34.2206 36.1126 33.7504C36.2024 34.1548 36.2825 34.5511 36.3514 34.9387ZM18.0221 44.3163C16.6634 44.8504 15.5812 44.8656 14.9271 44.4458C13.535 43.5524 12.9565 40.1024 13.7457 35.4752C13.8396 34.9284 13.947 34.3845 14.068 33.8443C15.8755 34.2893 17.8764 34.6095 20.015 34.8026C21.2358 36.715 22.5145 38.4728 23.8031 40.0121C23.5292 40.307 23.2489 40.5944 22.9623 40.8739C21.2501 42.54 19.5343 43.7217 18.0223 44.3163H18.0221ZM11.6566 30.9293C9.50469 30.1106 7.72761 29.0467 6.5095 27.8858C5.41502 26.8424 4.8623 25.8065 4.8623 24.9658C4.8623 23.1774 7.2581 20.8958 11.2538 19.3452C11.7554 19.1514 12.2619 18.974 12.7727 18.8132C13.325 20.8126 14.0494 22.903 14.9236 25.0169C14.0381 27.1624 13.3034 29.2861 12.746 31.3089C12.3801 31.1923 12.0168 31.0658 11.6566 30.9293ZM13.7904 14.7619C12.961 10.0439 13.5117 6.48498 14.8978 5.59194C16.3743 4.64063 19.6388 5.99716 23.0797 9.39781C23.2996 9.6152 23.5205 9.84281 23.7418 10.0782C22.4598 11.6106 21.1929 13.3552 19.9826 15.2565C17.9071 15.4706 15.9202 15.8145 14.0938 16.2752C13.9812 15.7736 13.8801 15.269 13.7904 14.7617V14.7619ZM32.8262 19.9939C32.3948 19.1644 31.9473 18.3454 31.4842 17.5374C32.8924 17.7352 34.2413 17.9982 35.5081 18.3202C35.1278 19.6769 34.6538 21.0956 34.0957 22.55C33.6878 21.6886 33.2646 20.8364 32.8262 19.9939ZM25.0634 11.5778C25.9329 12.6263 26.8038 13.7972 27.6604 15.0674C25.9228 14.976 24.1822 14.9755 22.4446 15.0661C23.302 13.8076 24.1802 12.6385 25.0634 11.5778ZM17.2508 20.0082C16.8179 20.8441 16.4026 21.691 16.0052 22.5485C15.4562 21.0991 14.9865 19.6741 14.6029 18.298C15.862 17.9843 17.2048 17.728 18.6037 17.5335C18.1354 18.3465 17.6843 19.1716 17.2508 20.0082ZM18.644 32.548C17.1987 32.3685 15.8357 32.1252 14.5769 31.8202C14.9666 30.4198 15.4466 28.9641 16.0073 27.4837C16.4064 28.3417 16.8236 29.1892 17.2585 30.0254C17.7022 30.8784 18.1642 31.7195 18.644 32.548ZM25.1156 38.5022C24.222 37.4289 23.3309 36.2419 22.4604 34.9652C23.3053 35.0022 24.1668 35.0208 25.0423 35.0208C25.9419 35.0208 26.8311 34.9985 27.7063 34.955C26.8469 36.255 25.9792 37.4437 25.1156 38.5022ZM34.1136 27.4082C34.7034 28.9048 35.2007 30.3526 35.5956 31.7293C34.316 32.0543 32.9346 32.3161 31.479 32.5104C31.9454 31.6873 32.3971 30.854 32.8338 30.0108C33.2777 29.154 33.7044 28.2862 34.1136 27.4082ZM31.2007 28.9626C30.5322 30.2552 29.8261 31.5232 29.0836 32.7648C27.7742 32.8689 26.4212 32.9226 25.0423 32.9226C23.6691 32.9226 22.3333 32.875 21.0468 32.7822C20.285 31.5435 19.5656 30.2733 18.89 28.9741C18.2177 27.6818 17.5896 26.3616 17.0073 25.0163C17.5882 23.6706 18.2143 22.3496 18.8844 21.0563V21.0567C19.5542 19.7631 20.268 18.4983 21.0241 17.265C22.3366 17.1545 23.6822 17.0967 25.0425 17.0967C26.4089 17.0967 27.7563 17.155 29.0683 17.2663C29.8168 18.4977 30.526 19.7581 31.1946 21.0452C31.867 22.3357 32.5015 23.6501 33.0971 24.9865C32.5076 26.3365 31.8751 27.6627 31.2009 28.9626H31.2007ZM35.0898 5.52955C36.5674 6.47824 37.1422 10.3037 36.2137 15.3204C36.1529 15.6472 36.0867 15.9728 36.0153 16.2969C34.1845 15.8267 32.1963 15.4767 30.1148 15.2593C28.9021 13.3374 27.6457 11.5898 26.3845 10.0772C26.715 9.72249 27.0533 9.37702 27.3993 9.04107C30.6573 5.88498 33.7023 4.6389 35.0898 5.52955Z" fill="white"/>
<path d="M25.0422 20.5796C27.2187 20.5796 28.9829 22.5435 28.9829 24.9659C28.9829 27.3885 27.2187 29.3524 25.0422 29.3524C22.8659 29.3524 21.1016 27.3885 21.1016 24.9659C21.1016 22.5435 22.8659 20.5796 25.0422 20.5796Z" fill="#53C1DE"/>
</svg>
