<?xml version="1.0" encoding="utf-8"?>
<!-- Generator: Adobe Illustrator 25.2.3, SVG Export Plug-In . SVG Version: 6.00 Build 0)  -->
<svg version="1.1" id="Ebene_1" xmlns="http://www.w3.org/2000/svg" xmlns:xlink="http://www.w3.org/1999/xlink" x="0px" y="0px"
	 viewBox="0 0 755 110.3" style="enable-background:new 0 0 755 110.3;" xml:space="preserve">
<style type="text/css">
	.st0{fill:#001B41;}
	.st1{fill:#0B9DCC;}
</style>
<g id="Ebene_2_1_">
	<g id="Ebene_1-2">
		<g id="_2px_lineup_black">
			<g id="deploy-now">
				<path class="st0" d="M96.9,0H6.2C2.8,0,0,2.8,0,6.2v65.2c0,3.4,2.8,6.2,6.2,6.2h29.3v8c0,1.3-1.1,2.3-2.3,2.3h-9.9
					c-1.1,0.1-1.9,1-1.8,2.1c0.1,1,0.8,1.7,1.8,1.8h46.8c1.1-0.1,1.9-1,1.8-2.1c-0.1-1-0.8-1.7-1.8-1.8H38.8
					c0.3-0.7,0.5-1.5,0.5-2.3v-8h13.9c1.1,0.1,2-0.7,2.1-1.8s-0.7-2-1.8-2.1c-0.1,0-0.2,0-0.3,0h-47c-1.3,0-2.3-1-2.3-2.3V6.2
					c0-1.3,1-2.3,2.3-2.3h90.7c1.3,0,2.3,1,2.3,2.3v28.2c-0.1,1.1,0.7,2,1.8,2.1s2-0.7,2.1-1.8c0-0.1,0-0.2,0-0.3V6.2
					C103,2.8,100.3,0,96.9,0z"/>
				<path class="st1" d="M67.7,77.1c0.5,0,0.9-0.2,1.3-0.5s0.6-0.8,0.6-1.3s-0.2-1-0.5-1.3l-0.8-1.1c-6.6-8.4-5.2-20.5,3.1-27.2l0,0
					c0.8-0.7,0.9-1.9,0.3-2.7c-0.7-0.8-1.8-1-2.7-0.4l-1.2,1c-9.4,8.6-10.1,23.3-1.5,32.7C66.7,76.8,67.2,77.1,67.7,77.1z"/>
				<path class="st1" d="M105.5,53.5C101.9,42.9,91.1,36.3,80,38l1-2c0.5-0.9,0.2-2.1-0.7-2.6c-0.9-0.5-2.1-0.2-2.6,0.7
					c0,0.1-0.1,0.2-0.1,0.2l-3.3,6.3c-0.2,0.4-0.2,1-0.1,1.4c0.2,0.5,0.5,0.9,1,1.1l6.3,3.2c0.3,0.2,0.6,0.3,0.9,0.2
					c0.7,0,1.4-0.4,1.7-1.1c0.5-0.9,0.1-2.1-0.8-2.6l-2.4-1.2c0.8-0.1,1.7-0.2,2.5-0.2c10.7,0,19.3,8.7,19.3,19.3S94,80.2,83.3,80.2
					l0,0H60c-1-0.2-2,0.5-2.2,1.6c-0.2,1,0.5,2,1.6,2.2c0.2,0,0.4,0,0.6,0h23.5c2.5,0,4.9-0.4,7.3-1.2
					C102.9,78.8,109.5,65.7,105.5,53.5L105.5,53.5z"/>
				<path class="st1" d="M119.8,81.8c-0.1-0.5-0.3-1-0.6-1.3l-5.2-4.8c-0.4-0.4-0.9-0.6-1.4-0.5c-0.5,0-1,0.2-1.3,0.6
					c-0.4,0.4-0.6,0.9-0.5,1.4c0,0.5,0.2,1,0.6,1.3l1.9,1.8h-10.5c-1.1-0.1-2,0.7-2.1,1.8s0.7,2,1.8,2.1c0.1,0,0.2,0,0.3,0h10.4
					l-1.7,1.8c-0.3,0.4-0.5,0.8-0.5,1.3c0,1.1,0.9,1.9,1.9,1.9c0.5,0,1-0.2,1.3-0.6l4.9-5.2C119.7,82.9,119.9,82.4,119.8,81.8z"/>
			</g>
		</g>
		<path class="st0" d="M214.2,43.9c0,13.2-3.5,23.1-10.4,29.9c-6.9,6.7-17.1,10.1-30.5,10.1h-18.8V5.4h21.2
			c12.5,0,22.1,3.3,28.6,9.8S214.3,31.3,214.2,43.9z M208.2,44.1c0-11.2-2.9-19.7-8.6-25.4s-14.1-8.5-25.1-8.5h-14.4v68.9h13
			C196.6,79.1,208.3,67.4,208.2,44.1L208.2,44.1z"/>
		<path class="st0" d="M252.3,85c-8.5,0-15.1-2.6-19.9-7.8c-4.7-5.2-7.1-12.6-7.1-22c0-9.3,2.3-16.8,6.9-22.4
			c4.6-5.6,10.8-8.4,18.5-8.4c6.9,0,12.3,2.4,16.3,7.2s6,11.3,6,19.5v4.3h-42c0.1,8,1.9,14.1,5.6,18.4c3.7,4.2,8.9,6.4,15.8,6.3
			c2.9,0,5.9-0.2,8.8-0.7c3.3-0.7,6.5-1.7,9.6-3v4.8c-2.9,1.3-6,2.3-9.1,2.9C258.6,84.7,255.5,85,252.3,85z M250.8,29.1
			c-5.6,0-10.1,1.9-13.5,5.6s-5.4,9-6,16h36.1c0-6.8-1.5-12.1-4.4-15.9S255.9,29.1,250.8,29.1L250.8,29.1z"/>
		<path class="st0" d="M311.9,85c-9,0-15.5-3.4-19.7-10.1h-0.4l0.2,4.5c0.2,2.7,0.2,5.6,0.2,8.7v22.2h-5.3V25.5h4.5l1,8.3h0.3
			c4-6.3,10.4-9.5,19.2-9.5c7.9,0,13.9,2.6,18,7.8s6.2,12.7,6.2,22.6c0,9.6-2.2,17-6.5,22.3S319.4,85,311.9,85z M311.8,80.3
			c6,0,10.6-2.2,13.9-6.7c3.3-4.4,4.9-10.7,4.9-18.6c0-17.1-6.2-25.7-18.6-25.7c-6.8,0-11.8,1.9-15,5.6s-4.8,9.8-4.8,18.3v1.7
			c0,9.1,1.5,15.7,4.6,19.6S304.9,80.3,311.8,80.3L311.8,80.3z"/>
		<path class="st0" d="M355.5,83.9h-5.3V0.3h5.3V83.9z"/>
		<path class="st0" d="M421.2,54.6c0,9.5-2.3,17-6.9,22.3s-11,8-19.1,8c-4.8,0.1-9.5-1.2-13.5-3.7c-4-2.6-7.1-6.3-9-10.6
			c-2.2-5.1-3.2-10.5-3.1-16c0-9.5,2.3-16.9,6.9-22.3s11-8,19-8s14.3,2.7,18.9,8.1S421.2,45.2,421.2,54.6z M375.1,54.6
			c0,8,1.8,14.3,5.3,18.8s8.5,6.8,15,6.7c6.5,0,11.5-2.2,15-6.7s5.3-10.8,5.3-18.8c0-8.1-1.8-14.3-5.3-18.7s-8.6-6.7-15-6.7
			c-6.5,0-11.4,2.2-14.9,6.6S375.1,46.5,375.1,54.6z"/>
		<path class="st0" d="M425.4,25.5h5.5l12.4,32.8c3.8,10.1,6.1,16.8,7.1,20.4h0.3c1.5-4.6,3.9-11.5,7.3-20.6l12.4-32.4h5.5
			l-26.2,67.8c-2.1,5.5-3.9,9.2-5.3,11.2c-1.3,1.8-3,3.3-5,4.3c-2.2,1-4.6,1.5-7,1.4c-2.3,0-4.6-0.4-6.8-1.1v-4.6
			c2.2,0.6,4.5,0.9,6.7,0.9c1.7,0,3.4-0.4,4.8-1.3c1.6-1,2.9-2.4,3.8-4c1.6-2.7,2.9-5.6,3.9-8.6c1.5-3.9,2.4-6.5,2.9-7.7L425.4,25.5
			z"/>
		<path class="st0" d="M575.8,83.9h-15.7l-38.6-62.6H521l0.3,3.5c0.5,6.7,0.8,12.8,0.8,18.3v40.8h-11.6V5.4H526l38.5,62.3h0.3
			c-0.1-0.8-0.2-3.8-0.4-9s-0.4-9.2-0.4-12.1V5.4h11.8L575.8,83.9L575.8,83.9z"/>
		<path class="st0" d="M645.7,54.1c0,9.7-2.5,17.3-7.5,22.7S626.3,85,617.4,85c-5.2,0.1-10.2-1.2-14.7-3.8
			c-4.3-2.5-7.7-6.3-9.8-10.8c-2.4-5.1-3.6-10.7-3.4-16.3c0-9.6,2.5-17.1,7.4-22.6s11.9-8.1,20.9-8.1c8.6,0,15.4,2.8,20.4,8.3
			C643.2,37.3,645.7,44.7,645.7,54.1z M602.4,54.1c0,13.7,5.1,20.6,15.2,20.6c10,0,15-6.9,15-20.6c0-13.6-5-20.4-15.2-20.3
			c-5.3,0-9.1,1.8-11.5,5.3S602.4,47.5,602.4,54.1z"/>
		<path class="st0" d="M706.7,83.9L699,56.2c-0.9-2.9-2.6-9.8-5-20.5h-0.5c-2.1,9.7-3.7,16.5-4.9,20.6l-7.9,27.6h-14L650,24.5h12.9
			l7.6,29.3c1.7,7.2,2.9,13.4,3.7,18.6h0.3c0.4-2.6,0.9-5.6,1.6-9s1.4-5.9,1.9-7.6l9-31.3h13.9l8.8,31.3c0.5,1.8,1.2,4.4,2,8
			c0.7,2.8,1.1,5.6,1.4,8.4h0.4c0.9-6.2,2.2-12.4,3.8-18.5l7.7-29.2h12.7l-16.8,59.4C720.9,83.9,706.7,83.9,706.7,83.9z"/>
	</g>
</g>
</svg>
