<svg xmlns="http://www.w3.org/2000/svg" xmlns:xlink="http://www.w3.org/1999/xlink" width="552" height="552" viewBox="0 0 552 552"><defs><linearGradient id="Unbenannter_Verlauf_12" x1="195.17" y1="365.25" x2="364.39" y2="365.25" gradientUnits="userSpaceOnUse"><stop offset="0" stop-color="#f6f7f8"/><stop offset="1" stop-color="#95a0b0"/></linearGradient><linearGradient id="Unbenannter_Verlauf_214" x1="279.05" y1="166.83" x2="279.05" y2="377.39" gradientUnits="userSpaceOnUse"><stop offset="0.34" stop-color="#e7f9fc" stop-opacity="0"/><stop offset="0.44" stop-color="#bfeff8" stop-opacity="0.11"/><stop offset="0.67" stop-color="#6ddcef" stop-opacity="0.32"/><stop offset="0.85" stop-color="#3bd0ea" stop-opacity="0.45"/><stop offset="0.95" stop-color="#28cce8" stop-opacity="0.5"/></linearGradient><linearGradient id="Unbenannter_Verlauf_57" x1="-3120.04" y1="-12982.54" x2="-3000.32" y2="-12982.54" gradientTransform="translate(-2961.51 -12720.4) rotate(180)" gradientUnits="userSpaceOnUse"><stop offset="0" stop-color="#f6f7f8"/><stop offset="0.07" stop-color="#eceef0"/><stop offset="0.34" stop-color="#c6ccd5"/><stop offset="0.6" stop-color="#abb4c0"/><stop offset="0.83" stop-color="#9ba5b4"/><stop offset="1" stop-color="#95a0b0"/></linearGradient><linearGradient id="Unbenannter_Verlauf_56" x1="116.78" y1="-13030.22" x2="16.49" y2="-12849.24" gradientTransform="matrix(1, 0, 0, -1, 0, -12720.4)" gradientUnits="userSpaceOnUse"><stop offset="0" stop-color="#a4a6a9"/><stop offset="0.09" stop-color="#c0c1c3"/><stop offset="0.18" stop-color="#d7d8d9"/><stop offset="0.29" stop-color="#e9e9ea"/><stop offset="0.43" stop-color="#f6f6f6"/><stop offset="0.6" stop-color="#fdfdfd"/><stop offset="1" stop-color="#fff"/></linearGradient><linearGradient id="Unbenannter_Verlauf_57-2" x1="-3196.62" y1="-12935.37" x2="-3076.9" y2="-12935.37" xlink:href="#Unbenannter_Verlauf_57"/><linearGradient id="Unbenannter_Verlauf_56-2" x1="193.35" y1="-12983.05" x2="93.07" y2="-12802.07" xlink:href="#Unbenannter_Verlauf_56"/><linearGradient id="Unbenannter_Verlauf_56-3" x1="353.8" y1="-12681.4" x2="296.03" y2="-12577.16" gradientTransform="matrix(0.87, 0.5, 0.5, -0.87, 6315.71, -11056.1)" xlink:href="#Unbenannter_Verlauf_56"/><linearGradient id="Unbenannter_Verlauf_58" x1="15.7" y1="-13176.19" x2="137.28" y2="-13176.19" gradientTransform="matrix(1, 0, 0, -1, 0, -12720.4)" gradientUnits="userSpaceOnUse"><stop offset="0" stop-color="#28cce8"/><stop offset="1" stop-color="#9fe8f5"/></linearGradient><linearGradient id="Verlauf_Visual_Icontiefe_2" x1="451.03" y1="427.9" x2="475.11" y2="427.9" gradientUnits="userSpaceOnUse"><stop offset="0" stop-color="#e7f9fc" stop-opacity="0"/><stop offset="1" stop-color="#28cce8" stop-opacity="0.5"/></linearGradient><linearGradient id="Verlauf_Visual_Icontiefe_2-2" x1="468.02" y1="436.3" x2="487.48" y2="436.3" xlink:href="#Verlauf_Visual_Icontiefe_2"/><linearGradient id="Verlauf_Visual_Icontiefe_2-3" x1="457.99" y1="436.85" x2="464.43" y2="436.85" xlink:href="#Verlauf_Visual_Icontiefe_2"/><linearGradient id="Verlauf_Visual_Icontiefe_2-4" x1="488.14" y1="449.35" x2="512.22" y2="449.35" xlink:href="#Verlauf_Visual_Icontiefe_2"/><linearGradient id="Verlauf_Visual_Icontiefe_2-5" x1="505.12" y1="457.75" x2="524.58" y2="457.75" xlink:href="#Verlauf_Visual_Icontiefe_2"/><linearGradient id="Verlauf_Visual_Icontiefe_2-6" x1="495.09" y1="458.29" x2="501.54" y2="458.29" xlink:href="#Verlauf_Visual_Icontiefe_2"/><linearGradient id="Verlauf_Visual_Icontiefe_2-7" x1="409.55" y1="453.67" x2="433.63" y2="453.67" xlink:href="#Verlauf_Visual_Icontiefe_2"/><linearGradient id="Verlauf_Visual_Icontiefe_2-8" x1="426.53" y1="462.07" x2="445.99" y2="462.07" xlink:href="#Verlauf_Visual_Icontiefe_2"/><linearGradient id="Verlauf_Visual_Icontiefe_2-9" x1="416.51" y1="462.62" x2="422.95" y2="462.62" xlink:href="#Verlauf_Visual_Icontiefe_2"/><linearGradient id="Verlauf_Visual_Icontiefe_2-10" x1="446.66" y1="475.12" x2="470.74" y2="475.12" xlink:href="#Verlauf_Visual_Icontiefe_2"/><linearGradient id="Verlauf_Visual_Icontiefe_2-11" x1="463.64" y1="483.52" x2="483.1" y2="483.52" xlink:href="#Verlauf_Visual_Icontiefe_2"/><linearGradient id="Verlauf_Visual_Icontiefe_2-12" x1="453.61" y1="484.06" x2="460.06" y2="484.06" xlink:href="#Verlauf_Visual_Icontiefe_2"/></defs><g id="Ebene_1" data-name="Ebene 1"><g style="opacity:0.7000000000000001"><path d="M277.07,323.07a6,6,0,0,1,5.42,0l80.8,46.65c1.49.86,1.49,2.27,0,3.13l-80.8,46.65a6,6,0,0,1-5.42,0l-80.8-46.65c-1.49-.86-1.49-2.27,0-3.13Z" style="fill:#001b41"/></g><path d="M195.17,324.36v30.72a6,6,0,0,0,2.71,4.69l79.19,45.72a6,6,0,0,0,5.42,0l79.19-45.72a6,6,0,0,0,2.71-4.69V324.36" style="fill:url(#Unbenannter_Verlauf_12)"/><path d="M277.07,275.34a6,6,0,0,1,5.42,0L363.29,322c1.49.86,1.49,2.27,0,3.14l-80.8,46.64a6,6,0,0,1-5.42,0l-80.8-46.64c-1.49-.87-1.49-2.28,0-3.14Z" style="fill:#f6f7f8"/><path d="M277.07,275.34a6,6,0,0,1,5.42,0L363.29,322c1.49.86,1.49,2.27,0,3.13l-80.8,46.65a6,6,0,0,1-5.42,0l-80.8-46.65c-1.49-.86-1.49-2.27,0-3.13Z" style="fill:#f6f7f8"/><path d="M277.07,275.34a6,6,0,0,1,5.42,0L363.29,322c1.49.86,1.49,2.27,0,3.13l-80.8,46.65a6,6,0,0,1-5.42,0l-80.8-46.65c-1.49-.86-1.49-2.27,0-3.13Z" style="fill:none;stroke:#fff;stroke-miterlimit:10;stroke-width:2px"/><path d="M194.52,173.76V319.89a6,6,0,0,0,2.68,4.65l80,46.17a5.92,5.92,0,0,0,5.36,0l78.38-45.37a6,6,0,0,0,2.68-4.65V173.76" style="fill:url(#Unbenannter_Verlauf_214)"/><ellipse cx="330.91" cy="370.72" rx="3.18" ry="1.84" transform="translate(-155.6 471.93) rotate(-60)" style="fill:#001b41"/><polyline points="232.01 373.02 225.52 376.77 224.57 399.52 173.24 430.78 173.89 257.07 160.99 250" style="fill:none;stroke:#014a97;stroke-linecap:round;stroke-linejoin:round;stroke-width:2px"/><polyline points="111.26 267.33 123.38 274.78 203.04 228.75 189.81 220.59" style="fill:none;stroke:#014a97;stroke-linecap:round;stroke-linejoin:round;stroke-width:2px"/><polyline points="331.48 371.45 337.97 375.2 337.5 392.93 383.31 421.5 382.74 307.65 427.58 283.54" style="fill:none;stroke:#014a97;stroke-linecap:round;stroke-linejoin:round;stroke-width:2px"/><text transform="matrix(0.87, 0.5, -0.87, 0.5, 237.6, 324.17)" style="font-size:17.999889373779297px;fill:#014a97;font-family:OpenSans-Bold, Open Sans;font-weight:700">CI/CD</text><circle cx="162.59" cy="250.9" r="6.22" style="fill:#fff;opacity:0.2"/><circle cx="162.59" cy="250.9" r="3.45" style="fill:#014a97"/><polygon points="231.99 373.19 226.66 370.12 232.55 369.79 238.44 369.47 237.88 372.87 237.32 376.27 231.99 373.19" style="fill:#0b3476"/><g id="Server_Servers" data-name="Server Servers"><ellipse cx="437.91" cy="194.88" rx="2.56" ry="1.52" transform="translate(50.19 476.68) rotate(-60)" style="fill:#ffd7b3"/><ellipse cx="433.25" cy="197.52" rx="2.56" ry="1.52" transform="translate(45.57 473.97) rotate(-60)" style="fill:#70ddf0"/><path d="M471.09,301.48,539.5,262l-68.41-39.51L402.68,262Z" style="fill:#263d5d"/><path d="M471.09,271l68.41-39.51-68.41-39.39-68.41,39.39Z" style="fill:#f6f7f8"/><path d="M471.09,267l65-37.41-65-37.53-64.91,37.53Z" style="fill:#263d5d;opacity:0.400000005960465;isolation:isolate"/><path d="M471.09,294.61l68.41-39.39V231.44L471.09,271Z" style="fill:#718095"/><path d="M471.09,294.61l-68.41-39.39.12-23.78L471.09,271Z" style="fill:#dfe2e7"/><path d="M478.55,281.9l35-20.27a6.27,6.27,0,0,0,2.06-2.28,6,6,0,0,0,.55-1.44,6.05,6.05,0,0,0,.19-1.53h0c0-2.1-1.17-3-2.8-2.21l-35,20.28a6.79,6.79,0,0,0-1.15,1.06,6.64,6.64,0,0,0-.87,1.29,7,7,0,0,0-.78,3h0C475.75,281.79,477,282.72,478.55,281.9Z" style="fill:#263d5d"/><path d="M471.09,239.25l68.41-39.39-68.41-39.51-68.41,39.51Z" style="fill:#f6f7f8"/><path d="M471.09,263l68.41-39.5V199.86l-68.41,39.39Z" style="fill:#718095"/><path d="M471.09,263l-68.41-39.5.12-23.66,68.29,39.39Z" style="fill:#dfe2e7"/><path d="M478.55,250.21l35-20.28a6.64,6.64,0,0,0,1.17-1,6.52,6.52,0,0,0,.89-1.26,6.29,6.29,0,0,0,.55-1.44,6.19,6.19,0,0,0,.19-1.54h0c0-2.1-1.17-3-2.8-2.1l-35,20.17a6.79,6.79,0,0,0-1.15,1.06,7,7,0,0,0-.87,1.29,7.21,7.21,0,0,0-.56,1.46,6.82,6.82,0,0,0-.22,1.55h0C475.75,250.09,477,251,478.55,250.21Z" style="fill:#263d5d"/><path d="M466.31,255.92h0c.35.23.7,0,.7-.59V243.68a3.55,3.55,0,0,0,0-.46,2.16,2.16,0,0,0-.14-.43,1.94,1.94,0,0,0-.22-.4,1.67,1.67,0,0,0-.31-.34h0c-.47-.24-.81,0-.81.7V254.4a2.12,2.12,0,0,0,.05.44,1.94,1.94,0,0,0,.17.42,1.83,1.83,0,0,0,.26.36A1.9,1.9,0,0,0,466.31,255.92Z" style="fill:#95a0b0"/><path d="M462.93,254.4h0c.47.23.82,0,.82-.58V242.05a3.11,3.11,0,0,0-.06-.44,1.54,1.54,0,0,0-.17-.42,1.78,1.78,0,0,0-.25-.36,1.92,1.92,0,0,0-.34-.3h0c-.46-.23-.81,0-.81.58v11.66a1.83,1.83,0,0,0,0,.47,2.18,2.18,0,0,0,.16.45,1.68,1.68,0,0,0,.62.71Z" style="fill:#95a0b0"/><path d="M459.55,252.42h0c.35.23.82,0,.82-.58V240.18a2.44,2.44,0,0,0-.07-.46,2.32,2.32,0,0,0-.16-.44,2.48,2.48,0,0,0-.26-.4,2.57,2.57,0,0,0-.33-.33h0c-.46-.23-.81,0-.81.7V250.9a1.74,1.74,0,0,0,.06.45,1.59,1.59,0,0,0,.16.41,1.9,1.9,0,0,0,.26.37A1.53,1.53,0,0,0,459.55,252.42Z" style="fill:#95a0b0"/><path d="M466.31,287.61h0c.35.24.7-.11.7-.69V275.26a2,2,0,0,0-.05-.42,2.83,2.83,0,0,0-.14-.41,2,2,0,0,0-.22-.37,2.13,2.13,0,0,0-.29-.31h0c-.47-.24-.81,0-.81.58V286a1.84,1.84,0,0,0,.06.47,2.35,2.35,0,0,0,.17.44,2,2,0,0,0,.25.39A2.06,2.06,0,0,0,466.31,287.61Z" style="fill:#95a0b0"/><path d="M462.93,286.1h0c.47.23.82-.12.82-.7V273.75a3.47,3.47,0,0,0-.06-.45,1.62,1.62,0,0,0-.17-.41,1.78,1.78,0,0,0-.25-.36,1.92,1.92,0,0,0-.34-.3h0c-.46-.23-.81,0-.81.58v11.66a1.82,1.82,0,0,0,.06.46,2.35,2.35,0,0,0,.17.44,2.42,2.42,0,0,0,.25.4A2.57,2.57,0,0,0,462.93,286.1Z" style="fill:#95a0b0"/><path d="M459.55,284.12h0c.35.23.82-.12.82-.7V271.77a3.12,3.12,0,0,0-.09-.44,2,2,0,0,0-.17-.4,2,2,0,0,0-.56-.68h0c-.46-.23-.81,0-.81.58v11.66a1.82,1.82,0,0,0,.06.46,2.35,2.35,0,0,0,.17.44,2.42,2.42,0,0,0,.25.4A2.57,2.57,0,0,0,459.55,284.12Z" style="fill:#95a0b0"/><ellipse cx="530.56" cy="248.49" rx="2.56" ry="1.52" transform="translate(50.08 583.72) rotate(-60)" style="fill:#ffd7b3"/><ellipse cx="525.91" cy="251.01" rx="2.56" ry="1.52" transform="translate(45.57 580.95) rotate(-60)" style="fill:#70ddf0"/><ellipse cx="530.52" cy="215.68" rx="2.56" ry="1.52" transform="translate(78.47 567.28) rotate(-60)" style="fill:#70ddf0"/><ellipse cx="525.86" cy="218.2" rx="2.56" ry="1.52" transform="translate(73.96 564.51) rotate(-60)" style="fill:#70ddf0"/></g><path d="M473.74,221.9a1.58,1.58,0,0,1,1-.09l-.2.84a1.3,1.3,0,0,1-.64-.17c-.34-.19-.4-.4-.11-.57Zm2.52-.52c.15-.08.14-.19,0-.29a.57.57,0,0,0-.51,0c-.14.08-.17.15-.23.4a1.38,1.38,0,0,0,.72-.1Zm-1.15-3.55,6.92,4-6.92,4-6.95-4Zm2.5,4.15.52.3-2.74,1.59.65.38,3.27-1.89-1.15-.68Zm-4.48-.42c-.57.37-.43.83.22,1.21a2.16,2.16,0,0,0,1,.3l0,.2.64.37.14-.57a2.66,2.66,0,0,0,1.19-.39l.19-.12-.52-.3-.18.11a1.73,1.73,0,0,1-.57.26l.2-.77a2.33,2.33,0,0,0,1.35-.2c.41-.24.39-.57-.06-.86a1.63,1.63,0,0,0-1.53-.08c-.23.14-.31.25-.39.63a2.53,2.53,0,0,0-1.71.21Zm.29-2,.52.3-2.75,1.58.65.38,3.28-1.89-1.16-.68Zm-8.81-1.82a.56.56,0,0,1-.35-.66l-.35.2-.17-.1,3.3-1.9.25.05-1.34.77a1.88,1.88,0,0,1,.58,0,2,2,0,0,1,.53.17c.27.16.38.35.32.58s-.28.45-.67.67a3,3,0,0,1-1.15.41,1.6,1.6,0,0,1-1-.19Zm.15-.1a1.35,1.35,0,0,0,.81.14,2.87,2.87,0,0,0,1-.36,1.34,1.34,0,0,0,.62-.58c.05-.17,0-.33-.27-.47a1.29,1.29,0,0,0-.58-.16,2.08,2.08,0,0,0-.61,0l-1.21.72a.49.49,0,0,0-.05.39.59.59,0,0,0,.3.32Zm.83,1.66,1.32-.35,1.48-1.84.17.1-1.19,1.49-.16.19.32-.09,2.59-.7.17.1-4.52,1.2Zm-9.23-4a2.62,2.62,0,0,1-.48-.34,1.5,1.5,0,0,1-.52-1.82,1.42,1.42,0,0,1,1.39-.45,1.49,1.49,0,0,1,.53.17c.28.17.4.42.28.65v0l0,.12v.13a.74.74,0,0,0,.28.45,2,2,0,0,0,1.11.4,2.44,2.44,0,0,0,1.28-.2.89.89,0,0,0,.57-.7l.1-3a1.15,1.15,0,0,1,.06-.37,2.14,2.14,0,0,1,1.23-1.15,5,5,0,0,1,1.47-.46l.38-.06a7,7,0,0,1,1.12,0c.25,0,.5.06.75.11a4.25,4.25,0,0,1,1.91.86,1.47,1.47,0,0,1,.49,1.76.84.84,0,0,1-.53.41,1.87,1.87,0,0,1-.88.06,1.24,1.24,0,0,1-.5-.17c-.29-.17-.4-.42-.29-.63a.57.57,0,0,0-.21-.7,1.89,1.89,0,0,0-1.05-.38,2.16,2.16,0,0,0-1.15.2.8.8,0,0,0-.53.64l-.08,2.92a2.11,2.11,0,0,1-1.35,1.67,6.11,6.11,0,0,1-3.07.51,5.23,5.23,0,0,1-2.23-.64m-7.88-4.55a5.87,5.87,0,0,0,5.35,0l5.3-3.05c1.48-.86,1.48-2.24,0-3.09a5.93,5.93,0,0,0-5.35,0l-5.29,3.05c-1.48.86-1.48,2.24,0,3.09m9-5.18a.64.64,0,0,1,.41.81.69.69,0,0,1-.41.41l-5.29,3.05a2.27,2.27,0,0,1-2.12,0,.65.65,0,0,1,0-1.22l5.29-3.05a2.27,2.27,0,0,1,2.12,0M445.06,199l-7.74,4.46c-.45.26-.45.67,0,.93a1.78,1.78,0,0,0,1.62,0l4.38-2.52Zm1.29,4.31,4.34-2.56a1.7,1.7,0,0,1,1.61,0c.46.26.46.67,0,.93l-7.73,4.47Zm-2.88,3.5-.17.11a1.82,1.82,0,0,1-1.19.15c-.57-.12-.9-.48-.71-.83l4.77-7.88.18-.1a1.7,1.7,0,0,1,1.19-.16c.61.12.91.49.7.84Zm-13-6.38a5.87,5.87,0,0,0,5.35,0l5.29-3.05a1.63,1.63,0,0,0,0-3.09,5.93,5.93,0,0,0-5.35,0l-5.29,3.06a1.63,1.63,0,0,0,0,3.08m9-5.18a.65.65,0,0,1,.39.83.68.68,0,0,1-.39.39l-5.3,3.05a2.19,2.19,0,0,1-1.06.26,2.31,2.31,0,0,1-1.06-.26.64.64,0,0,1-.42-.81.64.64,0,0,1,.42-.41l5.3-3.06a2.33,2.33,0,0,1,2.12,0m-15.95.19a.54.54,0,0,0-.33.69.59.59,0,0,0,.33.33,2,2,0,0,0,1.76,0l8.88-5.13a.54.54,0,0,0,0-1,2,2,0,0,0-1.77,0Z" style="fill:#003d8f"/><path d="M471.31,48.94a2.89,2.89,0,0,0-2.23-1.17H45.72a.89.89,0,0,0-1,.55.61.61,0,0,0,.13.61L90,75.44a2.78,2.78,0,0,0,2.22,1.16H519.58a.89.89,0,0,0,1-.55.62.62,0,0,0-.13-.61Z" style="fill:#001b41"/><g style="opacity:0.699999988079071"><path d="M80.11,216.81a3.1,3.1,0,0,0-2.69,0L19.08,250.49a.82.82,0,0,0,0,1.55L77.4,285.71a3,3,0,0,0,2.69,0L138.4,252a.82.82,0,0,0,.52-1,.8.8,0,0,0-.52-.51Z" style="fill:#001b41"/></g><path d="M138.63,241.77v5.1a3,3,0,0,1-1.34,2.32l-57.18,33a3,3,0,0,1-2.69,0l-57.17-33a3,3,0,0,1-1.34-2.32v-5.1" style="fill:url(#Unbenannter_Verlauf_57)"/><path d="M80.11,206.75a3,3,0,0,0-2.69,0L19.08,240.43a.82.82,0,0,0,0,1.55L77.4,275.65a3,3,0,0,0,2.69,0L138.43,242a.8.8,0,0,0,.51-1,.85.85,0,0,0-.51-.52Z" style="fill:url(#Unbenannter_Verlauf_56)"/><path d="M80.11,206.75a3,3,0,0,0-2.69,0L19.08,240.43a.82.82,0,0,0,0,1.55L77.4,275.65a3,3,0,0,0,2.69,0L138.43,242a.8.8,0,0,0,.51-1,.85.85,0,0,0-.51-.52Z" style="fill:none;stroke:#fff;stroke-miterlimit:10;stroke-width:2px"/><g style="opacity:0.699999988079071"><path d="M156.69,169.64a3,3,0,0,0-2.69,0L95.66,203.32a.81.81,0,0,0-.52,1,.79.79,0,0,0,.52.52L154,238.54a3,3,0,0,0,2.69,0L215,204.87a.82.82,0,0,0,0-1.55Z" style="fill:#001b41"/></g><path d="M215.2,194.6v5.1a3,3,0,0,1-1.34,2.32l-57.17,33a3,3,0,0,1-2.69,0L96.83,202a3,3,0,0,1-1.35-2.32v-5.1" style="fill:url(#Unbenannter_Verlauf_57-2)"/><path d="M156.69,159.58a3,3,0,0,0-2.69,0L95.66,193.26a.83.83,0,0,0-.52,1,.8.8,0,0,0,.52.51L154,228.48a3,3,0,0,0,2.69,0L215,194.81a.81.81,0,0,0,.52-1,.84.84,0,0,0-.52-.52Z" style="fill:url(#Unbenannter_Verlauf_56-2)"/><path d="M156.69,159.58a3,3,0,0,0-2.69,0L95.66,193.26a.83.83,0,0,0-.52,1,.8.8,0,0,0,.52.51L154,228.48a3,3,0,0,0,2.69,0L215,194.81a.81.81,0,0,0,.52-1,.84.84,0,0,0-.52-.52Z" style="fill:none;stroke:#fff;stroke-miterlimit:10;stroke-width:2px"/><text transform="matrix(0.87, 0.5, -0.87, 0.5, 146.72, 178.5)" style="font-size:14px;fill:#014a97;font-family:OpenSans-SemiBold, Open Sans;font-weight:600">HTML<tspan x="7.34" y="16">CSS</tspan><tspan x="13.53" y="32">JS</tspan></text><text transform="matrix(0.87, 0.5, -0.87, 0.5, 73.04, 226.6)" style="font-size:14px;fill:#014a97;font-family:OpenSans-SemiBold, Open Sans;font-weight:600">Static<tspan x="6.25" y="16">Site</tspan><tspan x="3.35" y="32">Gen.</tspan></text><path d="M470.86,44.75a2.84,2.84,0,0,0-2.22-1.16H45.27a.89.89,0,0,0-1,.55.62.62,0,0,0,.13.61l45.16,26.5a2.8,2.8,0,0,0,2.22,1.17H519.13a.92.92,0,0,0,1-.56.6.6,0,0,0-.14-.61Z" style="fill:url(#Unbenannter_Verlauf_56-3)"/><path d="M77.84,421a3,3,0,0,0-2.71,0L16.26,455a.84.84,0,0,0-.52,1.05.86.86,0,0,0,.52.52l58.87,34a3,3,0,0,0,2.71,0l58.87-34a.82.82,0,0,0,.52-1.05.84.84,0,0,0-.52-.52Z" style="fill:url(#Unbenannter_Verlauf_58)"/><g style="opacity:0.699999988079071"><path d="M77.85,417.08a3,3,0,0,0-2.72,0l-58.87,34a.82.82,0,0,0-.52,1,.84.84,0,0,0,.52.52l58.87,34a3,3,0,0,0,2.72,0l58.86-34a.81.81,0,0,0,.52-1,.79.79,0,0,0-.52-.52Z" style="fill:#001b41"/></g><text transform="matrix(0.87, 0.5, -0.87, 0.5, 51.19, 437.74)" style="font-size:14px;fill:#fff;font-family:OpenSans-SemiBold, Open Sans;font-weight:600">Headless<tspan x="15.77" y="16">CMS</tspan></text><polyline points="46.4 433.27 33.09 425.36 34.01 281.14 45.59 274.06" style="fill:none;stroke:#014a97;stroke-linecap:round;stroke-linejoin:round;stroke-width:2px"/><polygon points="43.16 274.97 37.83 271.9 43.73 271.57 49.62 271.25 49.06 274.65 48.5 278.05 43.16 274.97" style="fill:#0b3476"/><polygon points="424.57 285.18 419.24 282.1 425.14 281.77 431.03 281.45 430.47 284.85 429.91 288.26 424.57 285.18" style="fill:#0b3476"/><polyline points="511.34 426.92 519.75 421.83 520.48 285.78 507.58 278.71" style="fill:none;stroke:#014a97;stroke-linecap:round;stroke-linejoin:round;stroke-width:2px"/><polygon points="505.84 439.4 537.38 457.61 501.9 478.1 470.36 459.89 505.84 439.4" style="fill:#263d5d;opacity:0.19"/><polygon points="468.73 417.95 500.28 436.16 464.79 456.65 433.25 438.44 468.73 417.95" style="fill:#263d5d;opacity:0.19"/><g id="Website_left_down" data-name="Website left down"><polygon points="468.73 414.31 500.28 432.52 464.79 453 433.25 434.79 468.73 414.31" style="fill:#263d5d"/><g style="opacity:0.8"><ellipse id="Oval" cx="468.65" cy="416.14" rx="0.56" ry="0.31" transform="translate(-2.15 2.44) rotate(-0.3)" style="fill:#87e2f2"/><ellipse id="Oval-2" data-name="Oval" cx="469.92" cy="416.89" rx="0.56" ry="0.31" transform="translate(-2.15 2.44) rotate(-0.3)" style="fill:#87e2f2"/><ellipse id="Oval-3" data-name="Oval" cx="471.24" cy="417.64" rx="0.56" ry="0.31" transform="translate(-2.16 2.45) rotate(-0.3)" style="fill:#87e2f2"/></g><path d="M468.52,419.35l-1.59-.91s0-.08,0-.11l0,0a.19.19,0,0,1,.18,0l1.59.91s0,.08,0,.11l0,0A.19.19,0,0,1,468.52,419.35Z" style="fill:#87e2f2"/><path d="M471,420.79l-1.59-.92c-.05,0,0-.07,0-.1l0,0a.19.19,0,0,1,.18,0l1.59.92c.05,0,0,.07,0,.1l0,0A.19.19,0,0,1,471,420.79Z" style="fill:#87e2f2"/><line x1="464.57" y1="420.29" x2="468.51" y2="422.57" style="fill:#fdfeff;stroke:#9fe8f5;stroke-linecap:round;stroke-miterlimit:10;stroke-width:0.518720746040344px;opacity:0.8"/><line x1="469.78" y1="423.33" x2="472.41" y2="424.84" style="fill:#fdfeff;stroke:#9fe8f5;stroke-linecap:round;stroke-miterlimit:10;stroke-width:0.518720746040344px;opacity:0.8"/><line x1="473.73" y1="425.6" x2="478.98" y2="428.64" style="fill:#fdfeff;stroke:#9fe8f5;stroke-linecap:round;stroke-miterlimit:10;stroke-width:0.518720746040344px;opacity:0.8"/><line x1="480.3" y1="429.4" x2="484.24" y2="431.67" style="fill:#fdfeff;stroke:#9fe8f5;stroke-linecap:round;stroke-miterlimit:10;stroke-width:0.518720746040344px;opacity:0.8"/><line x1="485.56" y1="432.43" x2="488.18" y2="433.95" style="fill:#fdfeff;stroke:#9fe8f5;stroke-linecap:round;stroke-miterlimit:10;stroke-width:0.518720746040344px;opacity:0.8"/><path d="M480.92,427.4l-6.57-3.79c-.11-.06-.09-.17,0-.24l.72-.41a.46.46,0,0,1,.41,0l6.57,3.79c.1.07.09.17,0,.24l-.72.42A.46.46,0,0,1,480.92,427.4Z" style="fill:#87e2f2"/><path d="M490.63,433.84l-4.35-2.51c-.1-.07-.09-.17,0-.24l.72-.42a.46.46,0,0,1,.41,0l4.35,2.51c.11.06.09.17,0,.24l-.72.41A.46.46,0,0,1,490.63,433.84Z" style="fill:#87e2f2"/><polygon points="466.83 434.85 451.03 425.73 459.31 420.95 475.11 430.07 466.83 434.85" style="fill:url(#Verlauf_Visual_Icontiefe_2)"/><polygon points="479.19 441.92 468.01 435.46 476.3 430.68 487.48 437.14 479.19 441.92" style="fill:url(#Verlauf_Visual_Icontiefe_2-2)"/><ellipse id="Oval-4" data-name="Oval" cx="462.46" cy="435.01" rx="0.41" ry="0.23" transform="translate(-2.25 2.4) rotate(-0.3)" style="fill:#87e2f2;opacity:0.8"/><ellipse id="Oval-5" data-name="Oval" cx="463.19" cy="435.44" rx="0.41" ry="0.23" transform="translate(-2.25 2.41) rotate(-0.3)" style="fill:#87e2f2;opacity:0.5"/><ellipse id="Oval-6" data-name="Oval" cx="463.96" cy="435.88" rx="0.41" ry="0.23" transform="translate(-2.25 2.41) rotate(-0.3)" style="fill:#87e2f2;opacity:0.5"/><path d="M463.47,438.84l-.25-.57-.61.07-.25-.56-.61.06-.25-.56-.61.07-.25-.57-.61.07-.25-.56-.61.06-.25-.56-.6.07-.31-.7a.22.22,0,0,1,.11-.29.23.23,0,0,1,.28.11l.18.42.61-.07.25.56.61-.06.25.56.61-.06.25.56.61-.07.25.56.6-.06.26.56.61-.06.25.56.46-.05a.21.21,0,0,1,.23.19.21.21,0,0,1-.19.24Z" style="fill:url(#Verlauf_Visual_Icontiefe_2-3)"/><path d="M461.7,440.25a3,3,0,0,1-2.63-.27l-2.27-1.31c-.85-.49-1.05-1.17-.46-1.52a3,3,0,0,1,2.63.27l2.27,1.31C462.09,439.22,462.3,439.9,461.7,440.25Z" style="fill:#87e2f2"/></g><g id="Website_middle_down" data-name="Website middle down"><polygon points="505.84 435.75 537.38 453.96 501.9 474.45 470.36 456.24 505.84 435.75" style="fill:#263d5d"/><g style="opacity:0.8"><ellipse id="Oval-7" data-name="Oval" cx="505.76" cy="437.59" rx="0.56" ry="0.31" transform="translate(-2.26 2.63) rotate(-0.3)" style="fill:#87e2f2"/><ellipse id="Oval-8" data-name="Oval" cx="507.03" cy="438.33" rx="0.56" ry="0.31" transform="translate(-2.27 2.63) rotate(-0.3)" style="fill:#87e2f2"/><ellipse id="Oval-9" data-name="Oval" cx="508.35" cy="439.09" rx="0.56" ry="0.31" transform="translate(-2.27 2.64) rotate(-0.3)" style="fill:#87e2f2"/></g><path d="M505.63,440.8l-1.59-.92c-.05,0,0-.07,0-.1l0,0a.23.23,0,0,1,.18,0l1.59.92s0,.07,0,.11h0A.19.19,0,0,1,505.63,440.8Z" style="fill:#87e2f2"/><path d="M508.14,442.24l-1.59-.92s0-.08,0-.11h0a.19.19,0,0,1,.18,0l1.59.92s0,.07,0,.1l0,0A.23.23,0,0,1,508.14,442.24Z" style="fill:#87e2f2"/><line x1="501.67" y1="441.74" x2="505.61" y2="444.02" style="fill:#fdfeff;stroke:#9fe8f5;stroke-linecap:round;stroke-miterlimit:10;stroke-width:0.518720746040344px;opacity:0.8"/><line x1="506.89" y1="444.77" x2="509.52" y2="446.29" style="fill:#fdfeff;stroke:#9fe8f5;stroke-linecap:round;stroke-miterlimit:10;stroke-width:0.518720746040344px;opacity:0.8"/><line x1="510.83" y1="447.05" x2="516.09" y2="450.09" style="fill:#fdfeff;stroke:#9fe8f5;stroke-linecap:round;stroke-miterlimit:10;stroke-width:0.518720746040344px;opacity:0.8"/><line x1="517.4" y1="450.84" x2="521.35" y2="453.12" style="fill:#fdfeff;stroke:#9fe8f5;stroke-linecap:round;stroke-miterlimit:10;stroke-width:0.518720746040344px;opacity:0.8"/><line x1="522.66" y1="453.88" x2="525.29" y2="455.4" style="fill:#fdfeff;stroke:#9fe8f5;stroke-linecap:round;stroke-miterlimit:10;stroke-width:0.518720746040344px;opacity:0.8"/><path d="M518,448.85l-6.56-3.79c-.11-.06-.1-.17,0-.24l.71-.41a.46.46,0,0,1,.41,0l6.57,3.79c.11.06.1.17,0,.24l-.71.41A.48.48,0,0,1,518,448.85Z" style="fill:#87e2f2"/><path d="M527.74,455.29l-4.35-2.52c-.11-.06-.09-.16,0-.24l.72-.41a.46.46,0,0,1,.41,0l4.35,2.52c.1.06.09.16,0,.23l-.72.42A.46.46,0,0,1,527.74,455.29Z" style="fill:#87e2f2"/><polygon points="503.94 456.3 488.14 447.18 496.42 442.39 512.22 451.52 503.94 456.3" style="fill:url(#Verlauf_Visual_Icontiefe_2-4)"/><polygon points="516.3 463.37 505.12 456.91 513.4 452.13 524.58 458.58 516.3 463.37" style="fill:url(#Verlauf_Visual_Icontiefe_2-5)"/><ellipse id="Oval-10" data-name="Oval" cx="499.56" cy="456.46" rx="0.41" ry="0.23" transform="translate(-2.36 2.6) rotate(-0.3)" style="fill:#87e2f2;opacity:0.8"/><ellipse id="Oval-11" data-name="Oval" cx="500.3" cy="456.88" rx="0.41" ry="0.23" transform="translate(-2.36 2.6) rotate(-0.3)" style="fill:#87e2f2;opacity:0.5"/><ellipse id="Oval-12" data-name="Oval" cx="501.07" cy="457.33" rx="0.41" ry="0.23" transform="translate(-2.36 2.6) rotate(-0.3)" style="fill:#87e2f2;opacity:0.5"/><path d="M500.58,460.28l-.25-.56-.61.07-.25-.57-.61.07-.25-.56-.61.06-.25-.56-.61.07-.25-.56-.61.06-.25-.56-.61.07-.31-.71a.21.21,0,0,1,.11-.28.21.21,0,0,1,.28.11l.19.42.61-.07.24.56.61-.06.25.56.61-.07.25.56.61-.06.25.56.61-.06.25.56.61-.07.25.57.46-.05a.22.22,0,0,1,.24.19.23.23,0,0,1-.19.24Z" style="fill:url(#Verlauf_Visual_Icontiefe_2-6)"/><path d="M498.81,461.7a3,3,0,0,1-2.63-.27l-2.28-1.31c-.84-.49-1-1.17-.45-1.52a3,3,0,0,1,2.62.27l2.28,1.31C499.2,460.67,499.4,461.35,498.81,461.7Z" style="fill:#87e2f2"/></g><polygon points="464.36 465.17 495.9 483.38 460.42 503.87 428.87 485.66 464.36 465.17" style="fill:#263d5d;opacity:0.19"/><polygon points="427.25 443.72 458.8 461.93 423.31 482.42 391.77 464.21 427.25 443.72" style="fill:#263d5d;opacity:0.19"/><g id="Website_left_down-2" data-name="Website left down"><polygon points="427.25 440.07 458.8 458.29 423.31 478.77 391.77 460.56 427.25 440.07" style="fill:#263d5d"/><g style="opacity:0.8"><ellipse id="Oval-13" data-name="Oval" cx="427.17" cy="441.91" rx="0.56" ry="0.31" transform="translate(-2.29 2.22) rotate(-0.3)" style="fill:#87e2f2"/><ellipse id="Oval-14" data-name="Oval" cx="428.44" cy="442.65" rx="0.56" ry="0.31" transform="translate(-2.29 2.23) rotate(-0.3)" style="fill:#87e2f2"/><ellipse id="Oval-15" data-name="Oval" cx="429.76" cy="443.41" rx="0.56" ry="0.31" transform="translate(-2.29 2.23) rotate(-0.3)" style="fill:#87e2f2"/></g><path d="M427,445.12l-1.59-.91s0-.08,0-.11l0,0a.21.21,0,0,1,.19,0l1.59.91s0,.08,0,.11h0A.17.17,0,0,1,427,445.12Z" style="fill:#87e2f2"/><path d="M429.55,446.56l-1.58-.92c-.05,0,0-.07,0-.1l0,0a.19.19,0,0,1,.18,0l1.59.92c.05,0,0,.07,0,.1l0,0A.21.21,0,0,1,429.55,446.56Z" style="fill:#87e2f2"/><line x1="423.08" y1="446.06" x2="427.03" y2="448.34" style="fill:#fdfeff;stroke:#9fe8f5;stroke-linecap:round;stroke-miterlimit:10;stroke-width:0.518720746040344px;opacity:0.8"/><line x1="428.3" y1="449.1" x2="430.93" y2="450.61" style="fill:#fdfeff;stroke:#9fe8f5;stroke-linecap:round;stroke-miterlimit:10;stroke-width:0.518720746040344px;opacity:0.8"/><line x1="432.25" y1="451.37" x2="437.5" y2="454.41" style="fill:#fdfeff;stroke:#9fe8f5;stroke-linecap:round;stroke-miterlimit:10;stroke-width:0.518720746040344px;opacity:0.8"/><line x1="438.82" y1="455.17" x2="442.76" y2="457.44" style="fill:#fdfeff;stroke:#9fe8f5;stroke-linecap:round;stroke-miterlimit:10;stroke-width:0.518720746040344px;opacity:0.8"/><line x1="444.07" y1="458.2" x2="446.7" y2="459.72" style="fill:#fdfeff;stroke:#9fe8f5;stroke-linecap:round;stroke-miterlimit:10;stroke-width:0.518720746040344px;opacity:0.8"/><path d="M439.44,453.17l-6.57-3.79c-.11-.06-.09-.17,0-.24l.72-.41a.46.46,0,0,1,.41,0l6.57,3.79c.1.06.09.17,0,.24l-.72.42A.46.46,0,0,1,439.44,453.17Z" style="fill:#87e2f2"/><path d="M449.15,459.61l-4.35-2.51c-.1-.07-.09-.17,0-.24l.72-.42a.46.46,0,0,1,.41,0l4.35,2.51c.1.06.09.17,0,.24l-.72.41A.46.46,0,0,1,449.15,459.61Z" style="fill:#87e2f2"/><polygon points="425.35 460.62 409.55 451.5 417.83 446.72 433.63 455.84 425.35 460.62" style="fill:url(#Verlauf_Visual_Icontiefe_2-7)"/><polygon points="437.71 467.69 426.53 461.23 434.82 456.45 445.99 462.91 437.71 467.69" style="fill:url(#Verlauf_Visual_Icontiefe_2-8)"/><ellipse id="Oval-16" data-name="Oval" cx="420.98" cy="460.78" rx="0.41" ry="0.23" transform="translate(-2.38 2.19) rotate(-0.3)" style="fill:#87e2f2;opacity:0.8"/><ellipse id="Oval-17" data-name="Oval" cx="421.71" cy="461.21" rx="0.41" ry="0.23" transform="translate(-2.39 2.19) rotate(-0.3)" style="fill:#87e2f2;opacity:0.5"/><ellipse id="Oval-18" data-name="Oval" cx="422.48" cy="461.65" rx="0.41" ry="0.23" transform="translate(-2.39 2.2) rotate(-0.3)" style="fill:#87e2f2;opacity:0.5"/><path d="M422,464.61l-.25-.57-.61.07-.25-.56-.61.06-.25-.56-.61.07-.25-.57-.61.07-.25-.56-.61.06-.25-.56-.6.07-.31-.7a.22.22,0,0,1,.1-.29.24.24,0,0,1,.29.11l.18.42.61-.07.25.56.61-.06.25.56.6-.06.25.56.62-.07.24.56.61-.06.25.56.62-.06.25.56.46,0a.21.21,0,0,1,.23.19.22.22,0,0,1-.19.24Z" style="fill:url(#Verlauf_Visual_Icontiefe_2-9)"/><path d="M420.22,466a3,3,0,0,1-2.63-.27l-2.27-1.31c-.85-.49-1.06-1.17-.46-1.52a3,3,0,0,1,2.63.27l2.27,1.31C420.61,465,420.82,465.67,420.22,466Z" style="fill:#87e2f2"/></g><g id="Website_middle_down-2" data-name="Website middle down"><polygon points="464.36 461.52 495.9 479.73 460.42 500.22 428.87 482.01 464.36 461.52" style="fill:#263d5d"/><g style="opacity:0.8"><ellipse id="Oval-19" data-name="Oval" cx="464.28" cy="463.36" rx="0.56" ry="0.31" transform="translate(-2.4 2.41) rotate(-0.3)" style="fill:#87e2f2"/><ellipse id="Oval-20" data-name="Oval" cx="465.55" cy="464.1" rx="0.56" ry="0.31" transform="translate(-2.4 2.42) rotate(-0.3)" style="fill:#87e2f2"/><ellipse id="Oval-21" data-name="Oval" cx="466.87" cy="464.86" rx="0.56" ry="0.31" transform="translate(-2.4 2.43) rotate(-0.3)" style="fill:#87e2f2"/></g><path d="M464.15,466.57l-1.59-.92c-.05,0,0-.07,0-.1l0,0a.23.23,0,0,1,.18,0l1.59.92c.05,0,0,.07,0,.11h0A.19.19,0,0,1,464.15,466.57Z" style="fill:#87e2f2"/><path d="M466.66,468l-1.59-.92s0-.08,0-.11h0a.21.21,0,0,1,.19,0l1.59.92s0,.07,0,.1l0,0A.23.23,0,0,1,466.66,468Z" style="fill:#87e2f2"/><line x1="460.19" y1="467.51" x2="464.13" y2="469.78" style="fill:#fdfeff;stroke:#9fe8f5;stroke-linecap:round;stroke-miterlimit:10;stroke-width:0.518720746040344px;opacity:0.8"/><line x1="465.41" y1="470.54" x2="468.04" y2="472.06" style="fill:#fdfeff;stroke:#9fe8f5;stroke-linecap:round;stroke-miterlimit:10;stroke-width:0.518720746040344px;opacity:0.8"/><line x1="469.35" y1="472.82" x2="474.61" y2="475.86" style="fill:#fdfeff;stroke:#9fe8f5;stroke-linecap:round;stroke-miterlimit:10;stroke-width:0.518720746040344px;opacity:0.8"/><line x1="475.92" y1="476.61" x2="479.86" y2="478.89" style="fill:#fdfeff;stroke:#9fe8f5;stroke-linecap:round;stroke-miterlimit:10;stroke-width:0.518720746040344px;opacity:0.8"/><line x1="481.18" y1="479.65" x2="483.81" y2="481.17" style="fill:#fdfeff;stroke:#9fe8f5;stroke-linecap:round;stroke-miterlimit:10;stroke-width:0.518720746040344px;opacity:0.8"/><path d="M476.54,474.62,470,470.83c-.1-.06-.09-.17,0-.24l.72-.41a.46.46,0,0,1,.41,0L477.7,474c.11.06.09.17,0,.24l-.71.41A.48.48,0,0,1,476.54,474.62Z" style="fill:#87e2f2"/><path d="M486.26,481.05l-4.35-2.51c-.11-.06-.09-.16,0-.24l.71-.41a.48.48,0,0,1,.42,0l4.34,2.52c.11.06.1.16,0,.23l-.71.42A.43.43,0,0,1,486.26,481.05Z" style="fill:#87e2f2"/><polygon points="462.46 482.07 446.66 472.95 454.94 468.17 470.74 477.29 462.46 482.07" style="fill:url(#Verlauf_Visual_Icontiefe_2-10)"/><polygon points="474.82 489.13 463.64 482.68 471.92 477.9 483.1 484.35 474.82 489.13" style="fill:url(#Verlauf_Visual_Icontiefe_2-11)"/><ellipse id="Oval-22" data-name="Oval" cx="458.08" cy="482.23" rx="0.41" ry="0.23" transform="translate(-2.49 2.38) rotate(-0.3)" style="fill:#87e2f2;opacity:0.8"/><ellipse id="Oval-23" data-name="Oval" cx="458.82" cy="482.65" rx="0.41" ry="0.23" transform="translate(-2.5 2.39) rotate(-0.3)" style="fill:#87e2f2;opacity:0.5"/><ellipse id="Oval-24" data-name="Oval" cx="459.59" cy="483.1" rx="0.41" ry="0.23" transform="translate(-2.5 2.39) rotate(-0.3)" style="fill:#87e2f2;opacity:0.5"/><path d="M459.1,486.05l-.25-.56-.62.07L458,485l-.6.07-.25-.56-.61.06-.25-.56-.61.07-.25-.56-.61.06-.25-.56-.61.07-.31-.71a.21.21,0,0,1,.11-.28.21.21,0,0,1,.28.11l.19.42.6-.07.25.56.61-.06.25.56.61-.07.25.56.61-.06.25.56.61-.07.25.57.61-.07.25.57.46-.05a.22.22,0,0,1,.24.19.23.23,0,0,1-.19.24Z" style="fill:url(#Verlauf_Visual_Icontiefe_2-12)"/><path d="M457.32,487.46a3,3,0,0,1-2.62-.26l-2.28-1.31c-.84-.49-1.05-1.17-.45-1.52a3,3,0,0,1,2.62.27l2.28,1.31C457.72,486.44,457.92,487.12,457.32,487.46Z" style="fill:#87e2f2"/></g><polygon points="512.48 425.96 517.81 429.04 511.92 429.36 506.03 429.68 506.59 426.28 507.15 422.88 512.48 425.96" style="fill:#0b3476"/><polygon points="279.35 121.09 285.5 121.09 282.42 124.82 279.35 128.54 276.27 124.82 273.19 121.09 279.35 121.09" style="fill:#dfe2e7"/><polygon points="280.23 122.4 278.92 121.75 278.92 108.68 280.23 109.33 280.23 122.4" style="fill:#dfe2e7"/><polygon points="279.61 109.8 273.45 109.8 276.53 106.07 279.61 102.35 282.69 106.07 285.77 109.8 279.61 109.8" style="fill:#dfe2e7"/><polygon points="119.35 121.09 125.5 121.09 122.42 124.82 119.35 128.54 116.27 124.82 113.19 121.09 119.35 121.09" style="fill:#dfe2e7"/><polygon points="120.23 122.4 118.92 121.75 118.92 108.68 120.23 109.33 120.23 122.4" style="fill:#dfe2e7"/><polygon points="119.61 109.8 113.45 109.8 116.53 106.07 119.61 102.35 122.69 106.07 125.77 109.8 119.61 109.8" style="fill:#dfe2e7"/><polygon points="439.35 121.09 445.5 121.09 442.42 124.82 439.35 128.54 436.27 124.82 433.19 121.09 439.35 121.09" style="fill:#dfe2e7"/><polygon points="440.23 122.4 438.92 121.75 438.92 108.68 440.23 109.33 440.23 122.4" style="fill:#dfe2e7"/><polygon points="439.61 109.8 433.45 109.8 436.53 106.07 439.61 102.35 442.69 106.07 445.77 109.8 439.61 109.8" style="fill:#dfe2e7"/><text transform="translate(204.44 53.37)" style="font-size:24px;fill:#014a97;font-family:OpenSans-Bold, Open Sans;font-weight:700">DEPLOY NOW</text><line x1="301.06" y1="291.69" x2="271.66" y2="308.66" style="fill:none;stroke:#014a97;stroke-linecap:round;stroke-linejoin:round;stroke-width:2px"/><line x1="271.34" y1="308.85" x2="292.95" y2="321.33" style="fill:none;stroke:#014a97;stroke-linecap:round;stroke-linejoin:round;stroke-width:2px"/><line x1="285.3" y1="300.79" x2="306.91" y2="313.27" style="fill:none;stroke:#014a97;stroke-linecap:round;stroke-linejoin:round;stroke-width:2px"/><polygon points="306.51 294.31 296.28 288.4 306.51 282.5 316.74 288.4 306.51 294.31" style="fill:none;stroke:#014a97;stroke-linecap:round;stroke-linejoin:round;stroke-width:2px"/><polygon points="312.5 322.19 302.27 316.29 312.5 310.38 322.73 316.29 312.5 322.19" style="fill:none;stroke:#014a97;stroke-linecap:round;stroke-linejoin:round;stroke-width:2px"/><polygon points="298.47 330.3 288.24 324.39 298.47 318.48 308.7 324.39 298.47 330.3" style="fill:none;stroke:#014a97;stroke-linecap:round;stroke-linejoin:round;stroke-width:2px"/><path d="M120.18,186.93,71,158.56a11.35,11.35,0,0,0-10.25,0l-10.2,5.89,12.94,7.48a13.37,13.37,0,0,1,8.85,1.19c2.42,1.39,3.09,3.4,2.05,5.14l12.47,7.2a13.43,13.43,0,0,1,8.91,1.19c3.37,1.94,3.37,5.09,0,7a13.49,13.49,0,0,1-12.19,0c-2.54-1.47-3.16-3.62-1.88-5.42L70.1,181.55v17.68a10,10,0,0,1,2.27.94c3.37,2,3.37,5.1,0,7a13.43,13.43,0,0,1-12.19,0c-3.37-1.94-3.37-5.09,0-7A10.4,10.4,0,0,1,63,199.09V181.24a10.46,10.46,0,0,1-2.82-1.08c-2.55-1.47-3.17-3.64-1.86-5.45l-12.76-7.36L11.88,186.8c-2.83,1.63-2.83,4.28,0,5.92L61,221.08a11.29,11.29,0,0,0,10.25,0l48.91-28.23C123,191.21,123,188.56,120.18,186.93Z" style="fill:#f05133"/></g></svg>