<svg id="OBJECTS" xmlns="http://www.w3.org/2000/svg" viewBox="0 -20 150 150"><defs><style>.cls-1{fill:#003d8f;}.cls-2{fill:#11c7e6;}.cls-3{fill:#f4c0b3;}.cls-4{fill:#fff;}.cls-5{fill:#dbedf8;}.cls-6{fill:#1b365d;}</style></defs><path class="cls-1" d="M123,146.44H27.05V75.36a12.21,12.21,0,0,1,12.12-12.3l71-.54c6.74-.05,12.8,5.38,12.85,12.12Z"/><rect class="cls-2" x="27.05" y="87.29" width="95.93" height="5.13"/><rect class="cls-3" x="27.05" y="92.42" width="95.93" height="54.02"/><path class="cls-1" d="M112,146.44H37.46V75.29A12.21,12.21,0,0,1,49.57,63l50.15-.38A12.21,12.21,0,0,1,112,74.72Z"/><path class="cls-4" d="M90.94,92.88a2.76,2.76,0,0,1-.57-.06,3,3,0,0,1-1.92-1.38h0a.86.86,0,0,1,.32-1.14.82.82,0,0,1,.43-.12.86.86,0,0,1,.74.43l0,.05.09.13.12.12a1.1,1.1,0,0,0,.55.27,1.21,1.21,0,0,0,.94-.22,1.15,1.15,0,0,0,.48-.86,1.25,1.25,0,0,0-.33-.92l-2.66-2.76q-.16-.18-.3-.36a2.53,2.53,0,0,1-.42-1.7,2.71,2.71,0,0,1,.36-1.18s.11-.2.15-.25a3,3,0,0,1,.58-.59A2.48,2.48,0,0,1,90,82a2.8,2.8,0,0,1,3.63,1.13.82.82,0,0,1-.32,1.15.72.72,0,0,1-.41.11.84.84,0,0,1-.73-.42,1.12,1.12,0,0,0-.74-.53,1.16,1.16,0,0,0-.9.21,1.13,1.13,0,0,0-.12,1.65L93,88A2.87,2.87,0,0,1,93,92.08a2.93,2.93,0,0,1-2,.8"/><path class="cls-4" d="M82.7,92.88a2.8,2.8,0,0,1-2.79-2.8V84.54a2.8,2.8,0,0,1,5.59-.07v5.61a2.81,2.81,0,0,1-2.8,2.8m0-9.45a1.11,1.11,0,0,0-1.1,1.11v5.54a1.09,1.09,0,0,0,1.08,1.1h0a1.1,1.1,0,0,0,1.11-1.1V84.54a1.13,1.13,0,0,0-1.11-1.11"/><path class="cls-4" d="M71.83,87.45V92a.85.85,0,1,1-1.69,0h0V84Zm4.58,3.22V82.59a.85.85,0,0,0-1.69,0v4.58Zm-4.65-8.45a0,0,0,0,0,0,0,.85.85,0,0,0-.76-.46.47.47,0,0,0-.17,0,.82.82,0,0,0-.67.82v.2l4.64,9.62a.89.89,0,0,0,.75.47l.2,0A.85.85,0,0,0,76.4,92v-.18s-4.52-9.38-4.64-9.64"/><path class="cls-4" d="M63.82,92.88a2.81,2.81,0,0,1-2.8-2.8V84.54a2.8,2.8,0,0,1,5.6,0v5.54a2.8,2.8,0,0,1-2.8,2.8m0-9.45a1.11,1.11,0,0,0-1.11,1.11v5.54a1.11,1.11,0,0,0,2.22,0V84.54a1.14,1.14,0,0,0-1.11-1.11"/><path class="cls-4" d="M56.57,92.87a.92.92,0,0,1-.92-.91V82.65a.91.91,0,0,1,.92-.9.9.9,0,0,1,.89.67.14.14,0,0,0,0,.07v0a.77.77,0,0,1,0,.15v9.26a.92.92,0,0,1-.91.93h0"/><path class="cls-5" d="M43.56,33.4c-1.58,22,4.1,33.75,29.79,32.12C94.46,64.18,106.63,59,106.63,33.4Z"/><path class="cls-6" d="M111.14,36v3.12a5.54,5.54,0,0,0-.07.57,37.62,37.62,0,0,1-1.28,8.44c-2.23,8-7.13,13.72-14.94,16.81a36.67,36.67,0,0,1-13.34,2.41q-8.57.06-17.12,0a36,36,0,0,1-11.13-1.81C45.79,63,40.44,58.22,37.62,50.79a37.14,37.14,0,0,1-2.13-15.46,21.29,21.29,0,0,1,5.23-13,2.06,2.06,0,0,0,.67-2.14.27.27,0,0,1,0-.09,32.27,32.27,0,0,1,.17-6.59A41.05,41.05,0,0,1,44,3.47c.11-.28.24-.33.53-.28a31,31,0,0,1,5.5,1.61,60.07,60.07,0,0,1,12.36,6.58,1.05,1.05,0,0,0,1,.19A12.1,12.1,0,0,1,65,11.26a56.63,56.63,0,0,1,9.65-.53,42.77,42.77,0,0,1,8.81.9.76.76,0,0,0,.51-.15,66.11,66.11,0,0,1,9.39-5.36,37.44,37.44,0,0,1,8.54-2.91c.39-.08.54,0,.68.37a40.37,40.37,0,0,1,2.58,12c.09,1.73,0,3.48-.08,5.21a1.31,1.31,0,0,0,.36,1.09,21.62,21.62,0,0,1,5.39,11.3C110.94,34.08,111,35,111.14,36Zm-39,28.08a100.12,100.12,0,0,0,10.94-.43,33.09,33.09,0,0,0,8.4-1.88,13.51,13.51,0,0,0,7.21-5.69,16.88,16.88,0,0,0,1.69-13.17,11.39,11.39,0,0,0-6.08-7.44,13.25,13.25,0,0,0-6.2-1.23c-2.85,0-5.7.18-8.54.37a89.74,89.74,0,0,1-12.38,0c-2.29-.16-4.57-.32-6.85-.41a19,19,0,0,0-6.63.67c-4.36,1.42-6.79,4.62-7.86,8.92A16.76,16.76,0,0,0,46,51.17a13.13,13.13,0,0,0,6.51,9.29,25.74,25.74,0,0,0,9.12,2.89A76.56,76.56,0,0,0,72.17,64.05Z"/><path class="cls-6" d="M91.37,47.93a12.86,12.86,0,0,1-.93,5.13,4.3,4.3,0,0,1-4.55,2.72,3.71,3.71,0,0,1-2.68-1.64,9.08,9.08,0,0,1-1.54-4.23,11.86,11.86,0,0,1,.22-5.2,4.77,4.77,0,0,1,3.35-3.56A4.53,4.53,0,0,1,90.71,44,9.7,9.7,0,0,1,91.37,47.93Z"/><path class="cls-6" d="M55.15,48.52a9.74,9.74,0,0,1,1.12-4.89,6.86,6.86,0,0,1,1.42-1.75,3.81,3.81,0,0,1,5.36.48A8.16,8.16,0,0,1,65,47.25a10.07,10.07,0,0,1-1.25,6.31,4.25,4.25,0,0,1-3.08,2.21,3.89,3.89,0,0,1-3.74-1.61,8.46,8.46,0,0,1-1.68-4.53C55.17,49.22,55.17,48.8,55.15,48.52Z"/></svg>
