<svg xmlns="http://www.w3.org/2000/svg" xmlns:xlink="http://www.w3.org/1999/xlink" width="552" height="410" viewBox="0 0 552 410"><defs><linearGradient id="Unbenannter_Verlauf_83" x1="-6083.6" y1="-8937.06" x2="-6138.13" y2="-8841.22" gradientTransform="translate(-5664.96 -8727.03) rotate(180)" gradientUnits="userSpaceOnUse"><stop offset="0.13" stop-color="#fff"/><stop offset="0.77" stop-color="#95a0b0"/><stop offset="0.82" stop-color="#98a3b2"/><stop offset="0.99" stop-color="#9ca6b5"/></linearGradient><linearGradient id="Unbenannter_Verlauf_175" x1="9861.96" y1="-3299.26" x2="9987.33" y2="-3299.26" gradientTransform="translate(-5243.26 -5663.43) rotate(90) scale(0.58 1.73)" gradientUnits="userSpaceOnUse"><stop offset="0" stop-color="#3e4dda"/><stop offset="1" stop-color="#091471"/></linearGradient><linearGradient id="Unbenannter_Verlauf_164" x1="4915.6" y1="-9743.48" x2="4915.6" y2="-9747.89" gradientTransform="matrix(-0.87, 0.5, -1, -0.58, -4954.22, -8019.91)" gradientUnits="userSpaceOnUse"><stop offset="0" stop-color="#e7f9fc" stop-opacity="0"/><stop offset="1" stop-color="#28cce8" stop-opacity="0.5"/></linearGradient><linearGradient id="Unbenannter_Verlauf_164-2" x1="4924.01" y1="-9743.48" x2="4924.01" y2="-9747.89" xlink:href="#Unbenannter_Verlauf_164"/><linearGradient id="Unbenannter_Verlauf_164-3" x1="4924.03" y1="-9737.53" x2="4924.03" y2="-9741.94" xlink:href="#Unbenannter_Verlauf_164"/><linearGradient id="Unbenannter_Verlauf_164-4" x1="4932.44" y1="-9743.48" x2="4932.44" y2="-9747.89" xlink:href="#Unbenannter_Verlauf_164"/><linearGradient id="Unbenannter_Verlauf_164-5" x1="4932.45" y1="-9737.53" x2="4932.45" y2="-9741.94" xlink:href="#Unbenannter_Verlauf_164"/><linearGradient id="Unbenannter_Verlauf_164-6" x1="4932.47" y1="-9731.58" x2="4932.47" y2="-9735.99" xlink:href="#Unbenannter_Verlauf_164"/><linearGradient id="Unbenannter_Verlauf_164-7" x1="4940.85" y1="-9743.48" x2="4940.85" y2="-9747.89" xlink:href="#Unbenannter_Verlauf_164"/><linearGradient id="Unbenannter_Verlauf_164-8" x1="4940.86" y1="-9737.53" x2="4940.86" y2="-9741.94" xlink:href="#Unbenannter_Verlauf_164"/><linearGradient id="Unbenannter_Verlauf_164-9" x1="4940.88" y1="-9731.58" x2="4940.88" y2="-9735.99" xlink:href="#Unbenannter_Verlauf_164"/><linearGradient id="Unbenannter_Verlauf_164-10" x1="4940.9" y1="-9725.63" x2="4940.9" y2="-9730.03" xlink:href="#Unbenannter_Verlauf_164"/><linearGradient id="Unbenannter_Verlauf_164-11" x1="4949.26" y1="-9743.48" x2="4949.26" y2="-9747.89" xlink:href="#Unbenannter_Verlauf_164"/><linearGradient id="Unbenannter_Verlauf_164-12" x1="4949.28" y1="-9737.53" x2="4949.28" y2="-9741.94" xlink:href="#Unbenannter_Verlauf_164"/><linearGradient id="Unbenannter_Verlauf_164-13" x1="4949.3" y1="-9731.58" x2="4949.3" y2="-9735.99" xlink:href="#Unbenannter_Verlauf_164"/><linearGradient id="Unbenannter_Verlauf_164-14" x1="4949.32" y1="-9725.63" x2="4949.32" y2="-9730.04" xlink:href="#Unbenannter_Verlauf_164"/><linearGradient id="Unbenannter_Verlauf_164-15" x1="4949.33" y1="-9719.67" x2="4949.33" y2="-9724.08" xlink:href="#Unbenannter_Verlauf_164"/><linearGradient id="Unbenannter_Verlauf_164-16" x1="4949.34" y1="-9713.72" x2="4949.34" y2="-9718.13" xlink:href="#Unbenannter_Verlauf_164"/><linearGradient id="Unbenannter_Verlauf_164-17" x1="4957.68" y1="-9743.48" x2="4957.68" y2="-9747.89" xlink:href="#Unbenannter_Verlauf_164"/><linearGradient id="Unbenannter_Verlauf_164-18" x1="4957.7" y1="-9737.53" x2="4957.7" y2="-9741.94" xlink:href="#Unbenannter_Verlauf_164"/><linearGradient id="Unbenannter_Verlauf_164-19" x1="4957.71" y1="-9731.58" x2="4957.71" y2="-9735.99" xlink:href="#Unbenannter_Verlauf_164"/><linearGradient id="Unbenannter_Verlauf_164-20" x1="4957.73" y1="-9725.63" x2="4957.73" y2="-9730.04" xlink:href="#Unbenannter_Verlauf_164"/><linearGradient id="Unbenannter_Verlauf_164-21" x1="4957.74" y1="-9719.67" x2="4957.74" y2="-9724.08" xlink:href="#Unbenannter_Verlauf_164"/><linearGradient id="Unbenannter_Verlauf_164-22" x1="4957.76" y1="-9713.72" x2="4957.76" y2="-9718.13" xlink:href="#Unbenannter_Verlauf_164"/><linearGradient id="Unbenannter_Verlauf_164-23" x1="4957.78" y1="-9707.77" x2="4957.78" y2="-9712.18" xlink:href="#Unbenannter_Verlauf_164"/><linearGradient id="Unbenannter_Verlauf_164-24" x1="4966.09" y1="-9743.48" x2="4966.09" y2="-9747.89" xlink:href="#Unbenannter_Verlauf_164"/><linearGradient id="Unbenannter_Verlauf_164-25" x1="4966.11" y1="-9737.53" x2="4966.11" y2="-9741.94" xlink:href="#Unbenannter_Verlauf_164"/><linearGradient id="Unbenannter_Verlauf_164-26" x1="4966.13" y1="-9731.58" x2="4966.13" y2="-9735.98" xlink:href="#Unbenannter_Verlauf_164"/><linearGradient id="Unbenannter_Verlauf_164-27" x1="4966.14" y1="-9725.63" x2="4966.14" y2="-9730.04" xlink:href="#Unbenannter_Verlauf_164"/><linearGradient id="Unbenannter_Verlauf_164-28" x1="4966.16" y1="-9719.67" x2="4966.16" y2="-9724.08" xlink:href="#Unbenannter_Verlauf_164"/><linearGradient id="Unbenannter_Verlauf_164-29" x1="4966.18" y1="-9713.72" x2="4966.18" y2="-9718.13" xlink:href="#Unbenannter_Verlauf_164"/><linearGradient id="Unbenannter_Verlauf_164-30" x1="4966.19" y1="-9707.77" x2="4966.19" y2="-9712.18" xlink:href="#Unbenannter_Verlauf_164"/><linearGradient id="Unbenannter_Verlauf_164-31" x1="4966.2" y1="-9701.82" x2="4966.2" y2="-9706.23" xlink:href="#Unbenannter_Verlauf_164"/><linearGradient id="Unbenannter_Verlauf_164-32" x1="4974.51" y1="-9743.48" x2="4974.51" y2="-9747.89" xlink:href="#Unbenannter_Verlauf_164"/><linearGradient id="Unbenannter_Verlauf_164-33" x1="4974.53" y1="-9737.53" x2="4974.53" y2="-9741.94" xlink:href="#Unbenannter_Verlauf_164"/><linearGradient id="Unbenannter_Verlauf_164-34" x1="4974.55" y1="-9731.58" x2="4974.55" y2="-9735.99" xlink:href="#Unbenannter_Verlauf_164"/><linearGradient id="Unbenannter_Verlauf_164-35" x1="4974.56" y1="-9725.63" x2="4974.56" y2="-9730.04" xlink:href="#Unbenannter_Verlauf_164"/><linearGradient id="Unbenannter_Verlauf_164-36" x1="4974.58" y1="-9719.67" x2="4974.58" y2="-9724.08" xlink:href="#Unbenannter_Verlauf_164"/><linearGradient id="Unbenannter_Verlauf_164-37" x1="4974.59" y1="-9713.72" x2="4974.59" y2="-9718.13" xlink:href="#Unbenannter_Verlauf_164"/><linearGradient id="Unbenannter_Verlauf_164-38" x1="4974.61" y1="-9707.77" x2="4974.61" y2="-9712.18" xlink:href="#Unbenannter_Verlauf_164"/><linearGradient id="Unbenannter_Verlauf_164-39" x1="4974.63" y1="-9701.82" x2="4974.63" y2="-9706.22" xlink:href="#Unbenannter_Verlauf_164"/><linearGradient id="Unbenannter_Verlauf_164-40" x1="4974.64" y1="-9695.87" x2="4974.64" y2="-9700.28" xlink:href="#Unbenannter_Verlauf_164"/><linearGradient id="Unbenannter_Verlauf_83-2" x1="-6083.6" y1="-8900.06" x2="-6138.13" y2="-8804.22" xlink:href="#Unbenannter_Verlauf_83"/><linearGradient id="Unbenannter_Verlauf_166" x1="-6894.87" y1="-1261.42" x2="-6893.69" y2="-1261.88" gradientTransform="translate(155404.77 16490.79) scale(22.48 12.97)" gradientUnits="userSpaceOnUse"><stop offset="0" stop-color="#f6f7f8"/><stop offset="1" stop-color="#95a0b0"/></linearGradient><linearGradient id="Unbenannter_Verlauf_166-2" x1="-7074.85" y1="-1214.53" x2="-7077.35" y2="-1215.46" gradientTransform="translate(61714.4 14799.62) scale(8.66 12.07)" xlink:href="#Unbenannter_Verlauf_166"/><linearGradient id="Unbenannter_Verlauf_172" x1="-6829.42" y1="-1722.77" x2="-6829.08" y2="-1723.84" gradientTransform="matrix(-138.36, 0, 0, 48.26, -944759.27, 83397.76)" gradientUnits="userSpaceOnUse"><stop offset="0" stop-color="#95a0b0"/><stop offset="1" stop-color="#98a3b2"/><stop offset="1" stop-color="#eceeef"/></linearGradient><linearGradient id="Unbenannter_Verlauf_172-2" x1="-6830.29" y1="-1721.28" x2="-6829.95" y2="-1722.35" xlink:href="#Unbenannter_Verlauf_172"/><linearGradient id="Unbenannter_Verlauf_172-3" x1="-6829.84" y1="-1722.02" x2="-6829.51" y2="-1723.1" xlink:href="#Unbenannter_Verlauf_172"/><linearGradient id="Unbenannter_Verlauf_172-4" x1="-6830.72" y1="-1720.56" x2="-6830.39" y2="-1721.63" xlink:href="#Unbenannter_Verlauf_172"/><linearGradient id="Unbenannter_Verlauf_172-5" x1="-6828.99" y1="-1723.51" x2="-6828.65" y2="-1724.58" xlink:href="#Unbenannter_Verlauf_172"/><linearGradient id="Unbenannter_Verlauf_172-6" x1="-6831.17" y1="-1719.82" x2="-6830.83" y2="-1720.9" xlink:href="#Unbenannter_Verlauf_172"/></defs><g id="Ebene_1" data-name="Ebene 1"><path d="M371,222.17V202l-12.81-7.43a66.73,66.73,0,0,0-2.63-8.86l9.1-5.26-12.39-21.35-9.1,5.28a64.42,64.42,0,0,0-6.4-6.71v-15l-17.51-10.1v15a22,22,0,0,0-6.41-.62l-9.12-15.78-12.38,7.15,9.12,15.78a21.59,21.59,0,0,0-2.63,5.81L285,152.43v20.22l12.81,7.43a66.74,66.74,0,0,0,2.67,8.74l-9.12,5.27,12.39,21.36,9.12-5.28a64.42,64.42,0,0,0,6.4,6.71v14.94l17.51,10.1V227a21.61,21.61,0,0,0,6.41.64l9.09,15.78,12.39-7.16-9.1-15.78a21.7,21.7,0,0,0,2.63-5.8Z" style="fill:#888989"/><polygon points="323.43 172.44 352.22 158.94 364.6 180.41 335.82 193.9 323.43 172.44" style="fill:#d6d6d6"/><polygon points="335.82 249.8 364.6 236.33 352.94 243.08 323.43 256.96 335.82 249.8" style="fill:#d6d6d6"/><polygon points="307.97 171.01 336.76 156.57 336.76 142.63 307.97 156.57 307.97 171.01" style="fill:#aaa"/><polygon points="329.35 207.99 342.22 215.45 371.01 201.95 359.54 195.33 329.35 207.99" style="fill:#aaa"/><polygon points="326.72 234.02 335.82 249.8 364.6 236.33 356.62 222.49 326.72 234.02" style="fill:#aaa"/><polygon points="307.97 240.56 307.97 255.44 328 246.64 322.37 239.9 307.97 240.56" style="fill:#aaa"/><polygon points="284.12 160.27 312.9 146.77 303.79 130.99 275 144.47 284.12 160.27" style="fill:#aaa"/><polygon points="256.21 165.78 278.1 156.57 275 176.41 256.21 165.78" style="fill:#aaa"/><path d="M342.22,235.67V215.42l-13-7.38a64.54,64.54,0,0,0-2.62-8.84l9.09-5.28-12.38-21.35-9,5.12a69.82,69.82,0,0,0-6.4-6.7V156l-17.45-9.93v14.95a21.24,21.24,0,0,0-6.4-.62l-9.12-15.8-12.39,7.15,9.19,15.67a21.9,21.9,0,0,0-2.63,5.81l-12.81-7.43v20.22l12.81,7.46a66.9,66.9,0,0,0,2.63,8.84l-9.12,5.25L275,229l9.12-5.27a62.43,62.43,0,0,0,6.41,6.7v15l17.38,10.1V240.49a21.24,21.24,0,0,0,6.4.62l9.1,15.78,12.39-7.15L326.7,234a21.76,21.76,0,0,0,2.63-5.81Z" style="fill:#c1c1c1"/><polygon points="342.22 215.45 371.01 201.95 371.01 222.17 342.22 235.67 342.22 215.45" style="fill:#d6d6d6"/><polygon points="290.46 146 319.25 132.53 336.76 142.63 307.97 156.57 290.46 146" style="fill:#d6d6d6"/><ellipse cx="297.33" cy="200.71" rx="7.58" ry="13.13" transform="translate(-60.52 175.56) rotate(-30)" style="fill:#888989"/><path d="M303.64,207.72a10,10,0,0,0,2.73,1.11,9.92,9.92,0,0,0,.36-2.76A20.53,20.53,0,0,0,297.45,190a10.12,10.12,0,0,0-2.74-1.09,10.55,10.55,0,0,0-.34,2.74A20.47,20.47,0,0,0,303.64,207.72Z" style="fill:#424242"/><path d="M374.88,165.06l-14.05,7.26" style="fill:none;stroke:#95a0b0;stroke-linecap:round;stroke-linejoin:round;stroke-width:2px"/><polygon points="466.56 173.54 549.23 125.81 466.56 78.08 383.89 125.81 466.56 173.54" style="opacity:0.6299999952316284;isolation:isolate;fill:url(#Unbenannter_Verlauf_83)"/><polygon points="466.56 136.66 549.23 88.94 466.56 41.2 383.89 88.93 466.56 136.66" style="fill:#f6f7f8"/><polygon points="466.56 165.3 549.23 117.58 549.24 88.94 466.56 136.66 466.56 165.3" style="fill:#718095"/><polygon points="466.56 165.3 383.88 117.58 383.89 88.94 466.56 136.66 466.56 165.3" style="fill:#dfe2e7"/><path d="M475.54,149.83l42.35-24.45a8,8,0,0,0,3.36-6.42c0-2.47-1.51-3.61-3.36-2.54l-42.35,24.44a8.07,8.07,0,0,0-3.36,6.43C472.18,149.75,473.7,150.93,475.54,149.83Z" style="fill:#263d5d"/><path d="M460.68,156.74c.54.31,1,0,1-.74V141.9a2.33,2.33,0,0,0-1-1.87c-.53-.31-1,0-1,.74v14.11a2.4,2.4,0,0,0,1,1.86Z" style="fill:#95a0b0"/><path d="M456.66,154.88c.54.31,1,0,1-.75V140.06a2.35,2.35,0,0,0-1-1.87c-.54-.31-1,0-1,.74V153A2.36,2.36,0,0,0,456.66,154.88Z" style="fill:#95a0b0"/><path d="M452.53,152.51c.53.31,1,0,1-.74V137.68a2.42,2.42,0,0,0-1-1.88c-.54-.31-1,0-1,.75v14.08A2.33,2.33,0,0,0,452.53,152.51Z" style="fill:#95a0b0"/><ellipse cx="538.36" cy="109.45" rx="3.05" ry="1.76" transform="translate(174.4 520.95) rotate(-60)" style="fill:#ffd7b3"/><ellipse cx="532.74" cy="112.51" rx="3.05" ry="1.76" transform="translate(168.93 517.62) rotate(-60)" style="fill:#70ddf0"/><path d="M470.41,123.72l55-31.75c2.63-1.51,2.29-4.17-.73-5.92L468.75,53.78c-3-1.74-7.64-1.93-10.26-.42l-55,31.74c-2.63,1.51-2.28,4.18.73,5.92l55.92,32.27C463.17,125,467.78,125.22,470.41,123.72Z" style="opacity:0.8999999761581421;isolation:isolate;fill:url(#Unbenannter_Verlauf_175)"/><path d="M525.39,92a4.7,4.7,0,0,0,.85-.61c1.65-1.55,1.06-3.78-1.58-5.31L468.75,53.78c-3-1.74-7.64-1.93-10.26-.42l-.44.25L403.51,85.1c-2,1.14-2.27,2.92-1,4.47L461.11,57a4.24,4.24,0,0,1,4.21,0Z" style="fill:#263d5d"/><polygon points="516.82 94.05 521.22 91.5 516.82 88.95 512.41 91.5 516.82 94.05" style="fill:url(#Unbenannter_Verlauf_164)"/><polygon points="510.86 90.61 515.27 88.07 510.86 85.52 506.46 88.07 510.86 90.61" style="fill:#dfe2e7"/><polygon points="504.91 87.17 509.32 84.63 504.91 82.08 500.5 84.63 504.91 87.17" style="fill:#dfe2e7"/><polygon points="498.96 83.74 503.37 81.19 498.96 78.65 494.55 81.19 498.96 83.74" style="fill:#dfe2e7"/><polygon points="493.01 80.3 497.42 77.75 493.01 75.21 488.6 77.75 493.01 80.3" style="fill:#dfe2e7"/><polygon points="487.06 76.86 491.47 74.32 487.06 71.77 482.65 74.32 487.06 76.86" style="fill:#dfe2e7"/><polygon points="481.11 73.42 485.51 70.89 481.11 68.34 476.7 70.89 481.11 73.42" style="fill:#dfe2e7"/><polygon points="475.15 69.99 479.56 67.45 475.15 64.9 470.75 67.45 475.15 69.99" style="fill:#dfe2e7"/><polygon points="469.2 66.56 473.61 64.01 469.2 61.47 464.79 64.01 469.2 66.56" style="fill:#dfe2e7"/><polygon points="463.25 63.12 467.65 60.57 463.25 58.03 458.84 60.57 463.25 63.12" style="fill:#dfe2e7"/><polygon points="509.51 98.26 513.92 95.72 509.51 93.17 505.11 95.72 509.51 98.26" style="fill:url(#Unbenannter_Verlauf_164-2)"/><polygon points="503.56 94.83 507.97 92.28 503.56 89.74 499.15 92.28 503.56 94.83" style="fill:url(#Unbenannter_Verlauf_164-3)"/><polygon points="497.61 91.39 502.02 88.85 497.61 86.3 493.2 88.85 497.61 91.39" style="fill:#dfe2e7"/><polygon points="491.66 87.95 496.06 85.41 491.66 82.86 487.25 85.41 491.66 87.95" style="fill:#dfe2e7"/><polygon points="485.7 84.52 490.11 81.98 485.7 79.43 481.3 81.98 485.7 84.52" style="fill:#dfe2e7"/><polygon points="479.75 81.08 484.16 78.54 479.75 75.99 475.34 78.54 479.75 81.08" style="fill:#dfe2e7"/><polygon points="473.8 77.65 478.2 75.1 473.8 72.56 469.39 75.1 473.8 77.65" style="fill:#dfe2e7"/><polygon points="467.85 74.21 472.26 71.66 467.85 69.12 463.44 71.66 467.85 74.21" style="fill:#dfe2e7"/><polygon points="461.9 70.77 466.31 68.23 461.9 65.68 457.49 68.23 461.9 70.77" style="fill:#dfe2e7"/><polygon points="455.95 67.33 460.35 64.8 455.95 62.25 451.54 64.8 455.95 67.33" style="fill:#dfe2e7"/><polygon points="502.21 102.48 506.61 99.94 502.21 97.39 497.8 99.94 502.21 102.48" style="fill:url(#Unbenannter_Verlauf_164-4)"/><polygon points="496.25 99.05 500.66 96.5 496.25 93.95 491.85 96.5 496.25 99.05" style="fill:url(#Unbenannter_Verlauf_164-5)"/><polygon points="490.3 95.61 494.71 93.07 490.3 90.52 485.89 93.07 490.3 95.61" style="fill:url(#Unbenannter_Verlauf_164-6)"/><polygon points="484.35 92.17 488.76 89.63 484.35 87.08 479.94 89.63 484.35 92.17" style="fill:#dfe2e7"/><polygon points="478.4 88.74 482.81 86.19 478.4 83.65 473.99 86.19 478.4 88.74" style="fill:#dfe2e7"/><polygon points="472.45 85.3 476.86 82.75 472.45 80.21 468.04 82.75 472.45 85.3" style="fill:#dfe2e7"/><polygon points="466.5 81.86 470.9 79.32 466.5 76.77 462.09 79.32 466.5 81.86" style="fill:#dfe2e7"/><polygon points="460.54 78.43 464.95 75.89 460.54 73.34 456.14 75.89 460.54 78.43" style="fill:#dfe2e7"/><polygon points="454.59 74.99 459 72.44 454.59 69.9 450.18 72.44 454.59 74.99" style="fill:#dfe2e7"/><polygon points="448.64 71.56 453.05 69.01 448.64 66.47 444.23 69.01 448.64 71.56" style="fill:#dfe2e7"/><polygon points="494.9 106.7 499.31 104.16 494.9 101.61 490.49 104.16 494.9 106.7" style="fill:url(#Unbenannter_Verlauf_164-7)"/><polygon points="488.95 103.26 493.36 100.72 488.95 98.17 484.54 100.72 488.95 103.26" style="fill:url(#Unbenannter_Verlauf_164-8)"/><polygon points="483 99.83 487.41 97.28 483 94.74 478.59 97.28 483 99.83" style="fill:url(#Unbenannter_Verlauf_164-9)"/><polygon points="477.05 96.39 481.45 93.85 477.05 91.3 472.64 93.85 477.05 96.39" style="fill:url(#Unbenannter_Verlauf_164-10)"/><polygon points="471.09 92.95 475.5 90.41 471.09 87.86 466.69 90.41 471.09 92.95" style="fill:#dfe2e7"/><polygon points="465.14 89.51 469.55 86.97 465.14 84.43 460.73 86.97 465.14 89.51" style="fill:#dfe2e7"/><polygon points="459.19 86.08 463.6 83.53 459.19 80.99 454.78 83.53 459.19 86.08" style="fill:#dfe2e7"/><polygon points="453.24 82.65 457.64 80.1 453.24 77.56 448.83 80.1 453.24 82.65" style="fill:#dfe2e7"/><polygon points="447.28 79.21 451.7 76.66 447.28 74.12 442.88 76.66 447.28 79.21" style="fill:#dfe2e7"/><polygon points="441.34 75.77 445.74 73.23 441.34 70.68 436.92 73.23 441.34 75.77" style="fill:#dfe2e7"/><polygon points="487.6 110.92 492 108.37 487.6 105.83 483.19 108.37 487.6 110.92" style="fill:url(#Unbenannter_Verlauf_164-11)"/><polygon points="481.64 107.48 486.05 104.93 481.64 102.39 477.24 104.94 481.64 107.48" style="fill:url(#Unbenannter_Verlauf_164-12)"/><polygon points="475.69 104.04 480.1 101.5 475.69 98.95 471.29 101.5 475.69 104.04" style="fill:url(#Unbenannter_Verlauf_164-13)"/><polygon points="469.74 100.61 474.15 98.06 469.74 95.52 465.33 98.06 469.74 100.61" style="fill:url(#Unbenannter_Verlauf_164-14)"/><polygon points="463.79 97.17 468.19 94.63 463.79 92.08 459.38 94.63 463.79 97.17" style="fill:url(#Unbenannter_Verlauf_164-15)"/><polygon points="457.83 93.74 462.25 91.19 457.83 88.65 453.43 91.19 457.83 93.74" style="fill:url(#Unbenannter_Verlauf_164-16)"/><polygon points="451.89 90.3 456.3 87.75 451.89 85.21 447.47 87.75 451.89 90.3" style="fill:#dfe2e7"/><polygon points="445.94 86.86 450.34 84.32 445.94 81.77 441.53 84.32 445.94 86.86" style="fill:#dfe2e7"/><polygon points="439.98 83.42 444.39 80.88 439.98 78.34 435.57 80.88 439.98 83.42" style="fill:#dfe2e7"/><polygon points="434.03 79.99 438.44 77.44 434.03 74.9 429.62 77.44 434.03 79.99" style="fill:#dfe2e7"/><polygon points="480.29 115.14 484.7 112.59 480.29 110.04 475.88 112.59 480.29 115.14" style="fill:url(#Unbenannter_Verlauf_164-17)"/><polygon points="474.34 111.7 478.75 109.16 474.34 106.61 469.93 109.16 474.34 111.7" style="fill:url(#Unbenannter_Verlauf_164-18)"/><polygon points="468.39 108.26 472.8 105.72 468.39 103.17 463.98 105.72 468.39 108.26" style="fill:url(#Unbenannter_Verlauf_164-19)"/><polygon points="462.44 104.83 466.85 102.28 462.44 99.74 458.03 102.28 462.44 104.83" style="fill:url(#Unbenannter_Verlauf_164-20)"/><polygon points="456.49 101.39 460.89 98.84 456.49 96.3 452.08 98.84 456.49 101.39" style="fill:url(#Unbenannter_Verlauf_164-21)"/><polygon points="450.53 97.95 454.94 95.41 450.53 92.86 446.13 95.41 450.53 97.95" style="fill:url(#Unbenannter_Verlauf_164-22)"/><polygon points="444.58 94.51 448.99 91.97 444.58 89.43 440.17 91.97 444.58 94.51" style="fill:url(#Unbenannter_Verlauf_164-23)"/><polygon points="438.63 91.08 443.03 88.53 438.63 85.99 434.22 88.53 438.63 91.08" style="fill:#dfe2e7"/><polygon points="432.67 87.65 437.08 85.1 432.67 82.56 428.27 85.1 432.67 87.65" style="fill:#dfe2e7"/><polygon points="426.72 84.21 431.13 81.66 426.72 79.11 422.31 81.66 426.72 84.21" style="fill:#dfe2e7"/><polygon points="472.99 119.35 477.4 116.81 472.99 114.26 468.58 116.81 472.99 119.35" style="fill:url(#Unbenannter_Verlauf_164-24)"/><polygon points="467.04 115.92 471.44 113.37 467.04 110.83 462.63 113.37 467.04 115.92" style="fill:url(#Unbenannter_Verlauf_164-25)"/><polygon points="461.08 112.48 465.49 109.94 461.08 107.39 456.68 109.94 461.08 112.48" style="fill:url(#Unbenannter_Verlauf_164-26)"/><polygon points="455.13 109.04 459.54 106.5 455.13 103.95 450.72 106.5 455.13 109.04" style="fill:url(#Unbenannter_Verlauf_164-27)"/><polygon points="449.18 105.6 453.58 103.06 449.18 100.52 444.77 103.06 449.18 105.6" style="fill:url(#Unbenannter_Verlauf_164-28)"/><polygon points="443.23 102.17 447.63 99.62 443.23 97.08 438.82 99.62 443.23 102.17" style="fill:url(#Unbenannter_Verlauf_164-29)"/><polygon points="437.27 98.74 441.68 96.19 437.27 93.64 432.87 96.19 437.27 98.74" style="fill:url(#Unbenannter_Verlauf_164-30)"/><polygon points="431.32 95.3 435.73 92.75 431.32 90.2 426.91 92.75 431.32 95.3" style="fill:url(#Unbenannter_Verlauf_164-31)"/><polygon points="425.37 91.86 429.78 89.32 425.37 86.77 420.96 89.32 425.37 91.86" style="fill:#dfe2e7"/><polygon points="419.42 88.42 423.83 85.88 419.42 83.33 415.01 85.88 419.42 88.42" style="fill:#dfe2e7"/><polygon points="465.68 123.57 470.09 121.02 465.68 118.48 461.27 121.02 465.68 123.57" style="fill:url(#Unbenannter_Verlauf_164-32)"/><polygon points="459.73 120.13 464.13 117.59 459.73 115.04 455.32 117.59 459.73 120.13" style="fill:url(#Unbenannter_Verlauf_164-33)"/><polygon points="453.77 116.7 458.19 114.15 453.77 111.61 449.37 114.15 453.77 116.7" style="fill:url(#Unbenannter_Verlauf_164-34)"/><polygon points="447.83 113.26 452.24 110.71 447.83 108.17 443.42 110.71 447.83 113.26" style="fill:url(#Unbenannter_Verlauf_164-35)"/><polygon points="441.88 109.83 446.28 107.28 441.88 104.73 437.47 107.28 441.88 109.83" style="fill:url(#Unbenannter_Verlauf_164-36)"/><polygon points="435.92 106.39 440.33 103.84 435.92 101.3 431.52 103.84 435.92 106.39" style="fill:url(#Unbenannter_Verlauf_164-37)"/><polygon points="429.97 102.95 434.38 100.41 429.97 97.86 425.56 100.41 429.97 102.95" style="fill:url(#Unbenannter_Verlauf_164-38)"/><polygon points="424.02 99.51 428.43 96.97 424.02 94.43 419.61 96.97 424.02 99.51" style="fill:url(#Unbenannter_Verlauf_164-39)"/><polygon points="418.06 96.08 422.47 93.53 418.06 90.99 413.66 93.53 418.06 96.08" style="fill:url(#Unbenannter_Verlauf_164-40)"/><polygon points="412.11 92.64 416.52 90.1 412.11 87.55 407.7 90.1 412.11 92.64" style="fill:#dfe2e7"/><polygon points="466.56 136.54 549.23 88.81 466.56 41.08 383.89 88.8 466.56 136.54" style="opacity:0.23999999463558197;isolation:isolate;fill:url(#Unbenannter_Verlauf_83-2)"/><polygon points="466.56 99.66 549.23 51.93 466.56 4.19 383.89 51.93 466.56 99.66" style="fill:#f6f7f8"/><polygon points="466.56 128.3 549.23 80.57 549.24 51.93 466.56 99.66 466.56 128.3" style="fill:#718095"/><polygon points="466.56 128.3 383.88 80.57 383.89 51.93 466.56 99.66 466.56 128.3" style="fill:#dfe2e7"/><path d="M475.54,112.83l42.35-24.45A8.06,8.06,0,0,0,521.25,82c0-2.47-1.51-3.61-3.36-2.54l-42.35,24.44a8.09,8.09,0,0,0-3.36,6.44C472.18,112.78,473.7,113.9,475.54,112.83Z" style="fill:#263d5d"/><path d="M460.68,119.73c.54.31,1,0,1-.74v-14.1a2.35,2.35,0,0,0-1-1.88c-.53-.31-1,0-1,.75v14.08a2.38,2.38,0,0,0,1,1.89Z" style="fill:#95a0b0"/><path d="M456.66,117.89c.54.31,1,0,1-.74V103.06a2.4,2.4,0,0,0-1-1.88c-.54-.31-1,0-1,.75V116A2.33,2.33,0,0,0,456.66,117.89Z" style="fill:#95a0b0"/><path d="M452.53,115.5c.53.32,1,0,1-.73v-14.1a2.36,2.36,0,0,0-1-1.87c-.54-.31-1,0-1,.74v14.09a2.31,2.31,0,0,0,1,1.87Z" style="fill:#95a0b0"/><ellipse cx="538.35" cy="72.44" rx="3.05" ry="1.76" transform="translate(206.44 502.45) rotate(-60)" style="fill:#ffd7b3"/><ellipse cx="532.74" cy="75.5" rx="3.05" ry="1.76" transform="translate(200.98 499.12) rotate(-60)" style="fill:#70ddf0"/><polygon points="516.82 56.38 521.22 53.84 516.82 51.3 512.41 53.84 516.82 56.38" style="fill:#dfe2e7"/><polygon points="510.86 52.95 515.27 50.4 510.86 47.86 506.46 50.4 510.86 52.95" style="fill:#dfe2e7"/><polygon points="504.91 49.51 509.32 46.97 504.91 44.42 500.5 46.97 504.91 49.51" style="fill:#dfe2e7"/><polygon points="498.96 46.08 503.37 43.53 498.96 40.98 494.55 43.53 498.96 46.08" style="fill:#dfe2e7"/><polygon points="493.01 42.64 497.42 40.1 493.01 37.55 488.6 40.1 493.01 42.64" style="fill:#dfe2e7"/><polygon points="487.06 39.2 491.47 36.66 487.06 34.12 482.65 36.66 487.06 39.2" style="fill:#dfe2e7"/><polygon points="481.11 35.77 485.51 33.22 481.11 30.68 476.7 33.22 481.11 35.77" style="fill:#dfe2e7"/><polygon points="475.15 32.33 479.56 29.79 475.15 27.24 470.75 29.79 475.15 32.33" style="fill:#dfe2e7"/><polygon points="469.2 28.89 473.61 26.35 469.2 23.8 464.79 26.35 469.2 28.89" style="fill:#dfe2e7"/><polygon points="463.25 25.45 467.65 22.91 463.25 20.37 458.84 22.91 463.25 25.45" style="fill:#dfe2e7"/><polygon points="509.51 60.6 513.92 58.06 509.51 55.51 505.11 58.06 509.51 60.6" style="fill:#dfe2e7"/><polygon points="503.56 57.16 507.97 54.62 503.56 52.07 499.15 54.62 503.56 57.16" style="fill:#dfe2e7"/><polygon points="497.61 53.73 502.02 51.19 497.61 48.64 493.2 51.19 497.61 53.73" style="fill:#dfe2e7"/><polygon points="491.66 50.29 496.06 47.75 491.66 45.21 487.25 47.75 491.66 50.29" style="fill:#dfe2e7"/><polygon points="485.7 46.86 490.11 44.31 485.7 41.77 481.3 44.31 485.7 46.86" style="fill:#dfe2e7"/><polygon points="479.75 43.42 484.16 40.88 479.75 38.33 475.34 40.88 479.75 43.42" style="fill:#dfe2e7"/><polygon points="473.8 39.98 478.2 37.44 473.8 34.89 469.39 37.44 473.8 39.98" style="fill:#dfe2e7"/><polygon points="467.85 36.55 472.26 34.01 467.85 31.46 463.44 34.01 467.85 36.55" style="fill:#dfe2e7"/><polygon points="461.9 33.11 466.31 30.56 461.9 28.02 457.49 30.56 461.9 33.11" style="fill:#dfe2e7"/><polygon points="455.95 29.68 460.35 27.13 455.95 24.59 451.54 27.13 455.95 29.68" style="fill:#dfe2e7"/><polygon points="502.21 64.82 506.61 62.28 502.21 59.73 497.8 62.28 502.21 64.82" style="fill:#dfe2e7"/><polygon points="496.25 61.38 500.66 58.84 496.25 56.3 491.85 58.84 496.25 61.38" style="fill:#dfe2e7"/><polygon points="490.3 57.95 494.71 55.4 490.3 52.86 485.89 55.4 490.3 57.95" style="fill:#dfe2e7"/><polygon points="484.35 54.51 488.76 51.97 484.35 49.42 479.94 51.97 484.35 54.51" style="fill:#dfe2e7"/><polygon points="478.4 51.07 482.81 48.53 478.4 45.98 473.99 48.53 478.4 51.07" style="fill:#dfe2e7"/><polygon points="472.45 47.64 476.86 45.09 472.45 42.55 468.04 45.09 472.45 47.64" style="fill:#dfe2e7"/><polygon points="466.5 44.2 470.9 41.66 466.5 39.11 462.09 41.66 466.5 44.2" style="fill:#dfe2e7"/><polygon points="460.54 40.77 464.95 38.22 460.54 35.67 456.14 38.22 460.54 40.77" style="fill:#dfe2e7"/><polygon points="454.59 37.33 459 34.78 454.59 32.23 450.18 34.78 454.59 37.33" style="fill:#dfe2e7"/><polygon points="448.64 33.89 453.05 31.35 448.64 28.8 444.23 31.35 448.64 33.89" style="fill:#dfe2e7"/><polygon points="494.9 69.04 499.31 66.49 494.9 63.95 490.49 66.49 494.9 69.04" style="fill:#dfe2e7"/><polygon points="488.95 65.6 493.36 63.06 488.95 60.51 484.54 63.06 488.95 65.6" style="fill:#dfe2e7"/><polygon points="483 62.16 487.41 59.62 483 57.07 478.59 59.62 483 62.16" style="fill:#dfe2e7"/><polygon points="477.05 58.73 481.45 56.19 477.05 53.64 472.64 56.19 477.05 58.73" style="fill:#dfe2e7"/><polygon points="471.09 55.29 475.5 52.74 471.09 50.2 466.69 52.74 471.09 55.29" style="fill:#dfe2e7"/><polygon points="465.14 51.86 469.55 49.31 465.14 46.77 460.73 49.31 465.14 51.86" style="fill:#dfe2e7"/><polygon points="459.19 48.42 463.6 45.87 459.19 43.33 454.78 45.87 459.19 48.42" style="fill:#dfe2e7"/><polygon points="453.24 44.98 457.64 42.44 453.24 39.89 448.83 42.44 453.24 44.98" style="fill:#dfe2e7"/><polygon points="447.28 41.54 451.7 39 447.28 36.46 442.88 39 447.28 41.54" style="fill:#dfe2e7"/><polygon points="441.34 38.11 445.74 35.56 441.34 33.02 436.92 35.56 441.34 38.11" style="fill:#dfe2e7"/><polygon points="487.6 73.25 492 70.71 487.6 68.16 483.19 70.71 487.6 73.25" style="fill:#dfe2e7"/><polygon points="481.64 69.82 486.05 67.28 481.64 64.73 477.24 67.28 481.64 69.82" style="fill:#dfe2e7"/><polygon points="475.69 66.38 480.1 63.84 475.69 61.29 471.29 63.84 475.69 66.38" style="fill:#dfe2e7"/><polygon points="469.74 62.95 474.15 60.4 469.74 57.86 465.33 60.4 469.74 62.95" style="fill:#dfe2e7"/><polygon points="463.79 59.51 468.19 56.96 463.79 54.42 459.38 56.96 463.79 59.51" style="fill:#dfe2e7"/><polygon points="457.83 56.07 462.25 53.53 457.83 50.98 453.43 53.53 457.83 56.07" style="fill:#dfe2e7"/><polygon points="451.89 52.64 456.3 50.09 451.89 47.55 447.47 50.09 451.89 52.64" style="fill:#dfe2e7"/><polygon points="445.94 49.2 450.34 46.65 445.94 44.11 441.53 46.65 445.94 49.2" style="fill:#dfe2e7"/><polygon points="439.98 45.77 444.39 43.22 439.98 40.67 435.57 43.22 439.98 45.77" style="fill:#dfe2e7"/><polygon points="434.03 42.33 438.44 39.78 434.03 37.24 429.62 39.78 434.03 42.33" style="fill:#dfe2e7"/><polygon points="480.29 77.47 484.7 74.92 480.29 72.39 475.88 74.92 480.29 77.47" style="fill:#dfe2e7"/><polygon points="474.34 74.04 478.75 71.49 474.34 68.95 469.93 71.49 474.34 74.04" style="fill:#dfe2e7"/><polygon points="468.39 70.6 472.8 68.06 468.39 65.51 463.98 68.06 468.39 70.6" style="fill:#dfe2e7"/><polygon points="462.44 67.16 466.85 64.62 462.44 62.07 458.03 64.62 462.44 67.16" style="fill:#dfe2e7"/><polygon points="456.49 63.73 460.89 61.18 456.49 58.64 452.08 61.18 456.49 63.73" style="fill:#dfe2e7"/><polygon points="450.53 60.29 454.94 57.74 450.53 55.2 446.13 57.74 450.53 60.29" style="fill:#dfe2e7"/><polygon points="444.58 56.86 448.99 54.31 444.58 51.77 440.17 54.31 444.58 56.86" style="fill:#dfe2e7"/><polygon points="438.63 53.42 443.03 50.87 438.63 48.33 434.22 50.87 438.63 53.42" style="fill:#dfe2e7"/><polygon points="432.67 49.98 437.08 47.44 432.67 44.89 428.27 47.44 432.67 49.98" style="fill:#dfe2e7"/><polygon points="426.72 46.54 431.13 44 426.72 41.46 422.31 44 426.72 46.54" style="fill:#dfe2e7"/><polygon points="472.99 81.69 477.4 79.15 472.99 76.6 468.58 79.15 472.99 81.69" style="fill:#dfe2e7"/><polygon points="467.04 78.25 471.44 75.71 467.04 73.16 462.63 75.71 467.04 78.25" style="fill:#dfe2e7"/><polygon points="461.08 74.82 465.49 72.27 461.08 69.73 456.68 72.27 461.08 74.82" style="fill:#dfe2e7"/><polygon points="455.13 71.38 459.54 68.83 455.13 66.3 450.72 68.83 455.13 71.38" style="fill:#dfe2e7"/><polygon points="449.18 67.95 453.58 65.4 449.18 62.85 444.77 65.4 449.18 67.95" style="fill:#dfe2e7"/><polygon points="443.23 64.51 447.63 61.97 443.23 59.42 438.82 61.97 443.23 64.51" style="fill:#dfe2e7"/><polygon points="437.27 61.07 441.68 58.53 437.27 55.98 432.87 58.53 437.27 61.07" style="fill:#dfe2e7"/><polygon points="431.32 57.64 435.73 55.09 431.32 52.55 426.91 55.09 431.32 57.64" style="fill:#dfe2e7"/><polygon points="425.37 54.2 429.78 51.65 425.37 49.11 420.96 51.65 425.37 54.2" style="fill:#dfe2e7"/><polygon points="419.42 50.77 423.83 48.22 419.42 45.67 415.01 48.22 419.42 50.77" style="fill:#dfe2e7"/><polygon points="465.68 85.91 470.09 83.36 465.68 80.82 461.27 83.36 465.68 85.91" style="fill:#dfe2e7"/><polygon points="459.73 82.47 464.13 79.92 459.73 77.39 455.32 79.92 459.73 82.47" style="fill:#dfe2e7"/><polygon points="453.77 79.04 458.19 76.49 453.77 73.94 449.37 76.49 453.77 79.04" style="fill:#dfe2e7"/><polygon points="447.83 75.6 452.24 73.06 447.83 70.51 443.42 73.06 447.83 75.6" style="fill:#dfe2e7"/><polygon points="441.88 72.16 446.28 69.62 441.88 67.07 437.47 69.62 441.88 72.16" style="fill:#dfe2e7"/><polygon points="435.92 68.73 440.33 66.18 435.92 63.64 431.52 66.18 435.92 68.73" style="fill:#dfe2e7"/><polygon points="429.97 65.29 434.38 62.74 429.97 60.2 425.56 62.74 429.97 65.29" style="fill:#dfe2e7"/><polygon points="424.02 61.85 428.43 59.31 424.02 56.76 419.61 59.31 424.02 61.85" style="fill:#dfe2e7"/><polygon points="418.06 58.41 422.47 55.87 418.06 53.32 413.66 55.87 418.06 58.41" style="fill:#dfe2e7"/><polygon points="412.11 54.98 416.52 52.44 412.11 49.89 407.7 52.44 412.11 54.98" style="fill:#dfe2e7"/><polygon points="421.43 128.44 424.2 130.1 424.2 133.36 421.43 131.7 421.43 128.44" style="fill:#898989"/><polygon points="421.43 128.63 424.2 130.23 424.2 133.49 421.43 131.9 421.43 128.63" style="fill:#898989"/><path d="M417.51,126a1.08,1.08,0,0,1,0-2l2-1.19a3.94,3.94,0,0,1,3.54,0l7.58,4.34a1.08,1.08,0,0,1,0,2l-2,1.18a3.9,3.9,0,0,1-3.52,0Z" style="fill:url(#Unbenannter_Verlauf_166)"/><path d="M430,127.62a1.12,1.12,0,0,1,1.77,1.1l0,2.07a4,4,0,0,1-1.79,3.05l-2,1.19c-1,.56-1.75.1-1.75-1v-2.35a3.64,3.64,0,0,1,1.81-3Z" style="fill:url(#Unbenannter_Verlauf_166-2)"/><path d="M416.68,125.28c0-1.12.79-1.58,1.75-1l7.58,4.37a3.87,3.87,0,0,1,1.76,3V134c0,1.12-.79,1.57-1.76,1l-7.56-4.36a3.9,3.9,0,0,1-1.76-3Z" style="fill:#dfe2e7"/><ellipse cx="422.03" cy="130.06" rx="1.19" ry="2.07" transform="translate(-8.49 228.44) rotate(-30)" style="fill:#001b41"/><path d="M74.34,185.89l45.77-27.64L421.19,329.66l-47,29.09" style="fill:none;stroke:#95a0b0;stroke-linecap:round;stroke-linejoin:round;stroke-width:2px"/><path d="M412.28,145.77l.31-10.14,9.59-5.51" style="fill:none;stroke:#95a0b0;stroke-linecap:round;stroke-linejoin:round;stroke-width:2px"/><path d="M360.76,295.91l-47,29.1" style="fill:none;stroke:#95a0b0;stroke-linecap:round;stroke-linejoin:round;stroke-width:2px"/><path d="M412.28,145.83l-13,6.95" style="fill:none;stroke:#95a0b0;stroke-linecap:round;stroke-linejoin:round;stroke-width:2px"/><path d="M178.08,191.69l-47,29.09" style="fill:none;stroke:#95a0b0;stroke-linecap:round;stroke-linejoin:round;stroke-width:2px"/><path d="M234.78,223.89,187.83,253" style="fill:none;stroke:#95a0b0;stroke-linecap:round;stroke-linejoin:round;stroke-width:2px"/><path d="M300.67,261.05l-47,29.09" style="fill:none;stroke:#95a0b0;stroke-linecap:round;stroke-linejoin:round;stroke-width:2px"/><path d="M286.56,226.49l.53-17.19,17.4-9.33" style="fill:none;stroke:#95a0b0;stroke-linecap:round;stroke-linejoin:round;stroke-width:2px"/><path d="M286.56,226.49,263.1,239.67" style="fill:none;stroke:#95a0b0;stroke-linecap:round;stroke-linejoin:round;stroke-width:2px"/><g style="opacity:0.30000001192092896"><path d="M65,234.13a.83.83,0,0,0-.54,1,.9.9,0,0,0,.54.54l47.13,27.19a3,3,0,0,0,2.76,0l73.39-42.1a.81.81,0,0,0,0-1.56L141.16,192a3.05,3.05,0,0,0-2.76,0Z" style="fill:none;stroke:#28cce8"/></g><g style="opacity:0.699999988079071"><path d="M70.59,234.17a.83.83,0,0,0-.52,1.06.79.79,0,0,0,.52.52l41.29,23.86a3.14,3.14,0,0,0,2.77,0l67.55-38.74a.85.85,0,0,0,.53-1.06.83.83,0,0,0-.53-.52l-41.28-23.85a3,3,0,0,0-2.77,0Z" style="fill:#001b41"/></g><path d="M71.11,229.85a2,2,0,0,0,.93,2.44l40.52,23.35a3.09,3.09,0,0,0,2.78,0l66.78-38.26A6.82,6.82,0,0,0,183.7,215v-2.48a5.58,5.58,0,0,0-.68-1.12,4.71,4.71,0,0,1-1.13-1.14l-23.83.87L89.46,226a17.21,17.21,0,0,1-3.2.27l-14,.38a1.13,1.13,0,0,0-1.27,1,1.11,1.11,0,0,0,.11.65Z" style="fill:url(#Unbenannter_Verlauf_172)"/><path d="M70.59,225.67a.84.84,0,0,0,0,1.58l41.29,23.85a3.14,3.14,0,0,0,2.77,0l67.55-38.74a.85.85,0,0,0,.53-1.06.88.88,0,0,0-.53-.52L140.92,187a3,3,0,0,0-2.77,0Z" style="fill:#f6f7f8"/><path d="M70.59,225.67a.84.84,0,0,0,0,1.58l41.29,23.85a3.14,3.14,0,0,0,2.77,0l67.55-38.74a.85.85,0,0,0,.53-1.06.88.88,0,0,0-.53-.52L140.92,187a3,3,0,0,0-2.77,0Z" style="fill:none;stroke:#f6f7f8;stroke-width:0.5px"/><g style="opacity:0.30000001192092896"><path d="M185.4,306a.83.83,0,0,0-.54,1,.88.88,0,0,0,.54.54l47.13,27.19a3,3,0,0,0,2.76,0l73.39-42.1a.85.85,0,0,0,.57-1,.82.82,0,0,0-.57-.56l-47.15-27.21a3.05,3.05,0,0,0-2.76,0Z" style="fill:none;stroke:#28cce8"/></g><g style="opacity:0.699999988079071"><path d="M191,306a.83.83,0,0,0-.52,1.06.82.82,0,0,0,.52.52l41.29,23.86a3.14,3.14,0,0,0,2.77,0l67.55-38.74a.83.83,0,0,0,0-1.58l-41.28-23.85a3,3,0,0,0-2.77,0Z" style="fill:#001b41"/></g><path d="M191.48,301.67a2,2,0,0,0,.93,2.44l40.52,23.35a3.09,3.09,0,0,0,2.78,0l66.78-38.26a6.82,6.82,0,0,0,1.58-2.41v-2.48a5.32,5.32,0,0,0-.68-1.12,4.89,4.89,0,0,1-1.13-1.14l-23.83.87-68.6,14.9a17.21,17.21,0,0,1-3.2.27l-14,.38a1.15,1.15,0,0,0-1.28,1,1.22,1.22,0,0,0,.12.65Z" style="fill:url(#Unbenannter_Verlauf_172-2)"/><path d="M191,297.49a.82.82,0,0,0-.52,1.05.83.83,0,0,0,.52.53l41.29,23.85a3.14,3.14,0,0,0,2.77,0l67.55-38.74a.83.83,0,0,0,0-1.58l-41.28-23.83a3,3,0,0,0-2.77,0Z" style="fill:#f6f7f8"/><path d="M191,297.49a.82.82,0,0,0-.52,1.05.83.83,0,0,0,.52.53l41.29,23.85a3.14,3.14,0,0,0,2.77,0l67.55-38.74a.83.83,0,0,0,0-1.58l-41.28-23.83a3,3,0,0,0-2.77,0Z" style="fill:none;stroke:#f6f7f8;stroke-width:0.5px"/><g style="opacity:0.30000001192092896"><path d="M123.59,270.17a.84.84,0,0,0-.54,1,.9.9,0,0,0,.54.54l47.13,27.19a3,3,0,0,0,2.76,0l73.39-42.1a.83.83,0,0,0,.57-1,.84.84,0,0,0-.57-.56L199.72,228a3.05,3.05,0,0,0-2.76,0Z" style="fill:none;stroke:#28cce8"/></g><g style="opacity:0.699999988079071"><path d="M129.15,270.21a.84.84,0,0,0-.52,1.06.82.82,0,0,0,.52.52l41.29,23.86a3.14,3.14,0,0,0,2.77,0l67.55-38.74a.84.84,0,0,0,.53-1.06.81.81,0,0,0-.53-.52l-41.28-23.85a3,3,0,0,0-2.77,0Z" style="fill:#001b41"/></g><path d="M129.67,265.89a2,2,0,0,0,.93,2.44l40.52,23.35a3.09,3.09,0,0,0,2.78,0l66.78-38.26a6.56,6.56,0,0,0,1.58-2.41v-2.48a5.32,5.32,0,0,0-.68-1.12,4.71,4.71,0,0,1-1.13-1.14l-23.83.87L148,262a17.21,17.21,0,0,1-3.2.27l-14,.38a1.14,1.14,0,0,0-1.27,1,1.13,1.13,0,0,0,.11.65Z" style="fill:url(#Unbenannter_Verlauf_172-3)"/><path d="M129.15,261.71a.84.84,0,0,0-.52,1.05.85.85,0,0,0,.52.53l41.29,23.85a3.14,3.14,0,0,0,2.77,0l67.55-38.74a.84.84,0,0,0,.53-1.06.85.85,0,0,0-.53-.52L199.48,223a3,3,0,0,0-2.77,0Z" style="fill:#f6f7f8"/><path d="M129.15,261.71a.84.84,0,0,0-.52,1.05.85.85,0,0,0,.52.53l41.29,23.85a3.14,3.14,0,0,0,2.77,0l67.55-38.74a.84.84,0,0,0,.53-1.06.85.85,0,0,0-.53-.52L199.48,223a3,3,0,0,0-2.77,0Z" style="fill:none;stroke:#f6f7f8;stroke-width:0.5px"/><g style="opacity:0.30000001192092896"><path d="M245.65,340.86a.84.84,0,0,0-.54,1,.9.9,0,0,0,.54.54l47.13,27.19a3,3,0,0,0,2.76,0l73.39-42.1a.83.83,0,0,0,.57-1,.84.84,0,0,0-.57-.56l-47.15-27.21a3.05,3.05,0,0,0-2.76,0Z" style="fill:none;stroke:#28cce8"/></g><g style="opacity:0.699999988079071"><path d="M251.21,340.9a.83.83,0,0,0-.52,1.06.79.79,0,0,0,.52.52l41.29,23.86a3.14,3.14,0,0,0,2.77,0l67.55-38.74a.84.84,0,0,0,.53-1.06.83.83,0,0,0-.53-.52l-41.28-23.85a3,3,0,0,0-2.77,0Z" style="fill:#001b41"/></g><path d="M251.73,336.58a2,2,0,0,0,.93,2.44l40.52,23.35a3.09,3.09,0,0,0,2.78,0l66.78-38.26a6.48,6.48,0,0,0,1.58-2.41v-2.48a5.58,5.58,0,0,0-.68-1.12,4.71,4.71,0,0,1-1.13-1.14l-23.83.87-68.6,14.9a17.21,17.21,0,0,1-3.2.27l-14,.38a1.14,1.14,0,0,0-1.27,1,1.11,1.11,0,0,0,.11.65Z" style="fill:url(#Unbenannter_Verlauf_172-4)"/><path d="M251.21,332.4a.84.84,0,0,0,0,1.58l41.29,23.85a3.14,3.14,0,0,0,2.77,0l67.55-38.74a.84.84,0,0,0,.53-1.06.85.85,0,0,0-.53-.52l-41.28-23.83a3,3,0,0,0-2.77,0Z" style="fill:#f6f7f8"/><path d="M251.21,332.4a.84.84,0,0,0,0,1.58l41.29,23.85a3.14,3.14,0,0,0,2.77,0l67.55-38.74a.84.84,0,0,0,.53-1.06.85.85,0,0,0-.53-.52l-41.28-23.83a3,3,0,0,0-2.77,0Z" style="fill:none;stroke:#f6f7f8;stroke-width:0.5px"/><g style="opacity:0.30000001192092896"><path d="M5.76,198.39a.84.84,0,0,0-.54,1,.9.9,0,0,0,.54.54l47.13,27.19a3,3,0,0,0,2.76,0L129,185a.83.83,0,0,0,.57-1,.84.84,0,0,0-.57-.56L81.89,156.25a3.05,3.05,0,0,0-2.76,0Z" style="fill:none;stroke:#28cce8"/></g><g style="opacity:0.699999988079071"><path d="M11.32,198.43a.84.84,0,0,0-.52,1.06.79.79,0,0,0,.52.52l41.29,23.86a3.14,3.14,0,0,0,2.77,0l67.55-38.74a.83.83,0,0,0,0-1.58L81.65,159.7a3,3,0,0,0-2.77,0Z" style="fill:#001b41"/></g><path d="M11.84,194.11a2,2,0,0,0,.93,2.44L53.29,219.9a3.09,3.09,0,0,0,2.78,0l66.78-38.26a6.48,6.48,0,0,0,1.58-2.41v-2.48a5.58,5.58,0,0,0-.68-1.12,4.71,4.71,0,0,1-1.13-1.14l-23.83.87-68.6,14.9a17.21,17.21,0,0,1-3.2.27l-14,.38a1.15,1.15,0,0,0-1.27,1,1.11,1.11,0,0,0,.11.65Z" style="fill:url(#Unbenannter_Verlauf_172-5)"/><path d="M11.32,189.93a.84.84,0,0,0,0,1.58l41.29,23.85a3.14,3.14,0,0,0,2.77,0l67.55-38.74a.83.83,0,0,0,.53-1.06.88.88,0,0,0-.53-.52L81.65,151.21a3,3,0,0,0-2.77,0Z" style="fill:#f6f7f8"/><path d="M11.32,189.93a.84.84,0,0,0,0,1.58l41.29,23.85a3.14,3.14,0,0,0,2.77,0l67.55-38.74a.83.83,0,0,0,.53-1.06.88.88,0,0,0-.53-.52L81.65,151.21a3,3,0,0,0-2.77,0Z" style="fill:none;stroke:#f6f7f8;stroke-width:0.5px"/><g style="opacity:0.30000001192092896"><path d="M307,376.34a.84.84,0,0,0-.54,1,.9.9,0,0,0,.54.54l47.13,27.19a3,3,0,0,0,2.76,0L430.31,363a.81.81,0,0,0,0-1.56L383.16,334.2a3.05,3.05,0,0,0-2.76,0Z" style="fill:none;stroke:#28cce8"/></g><g style="opacity:0.699999988079071"><path d="M312.59,376.38a.83.83,0,0,0-.52,1.06.82.82,0,0,0,.52.52l41.29,23.86a3.14,3.14,0,0,0,2.77,0l67.55-38.74a.84.84,0,0,0,.53-1.06.83.83,0,0,0-.53-.52l-41.28-23.85a3,3,0,0,0-2.77,0Z" style="fill:#001b41"/></g><path d="M313.11,372.06a2,2,0,0,0,.93,2.44l40.52,23.35a3.09,3.09,0,0,0,2.78,0l66.78-38.26a6.56,6.56,0,0,0,1.58-2.41V354.7a5.32,5.32,0,0,0-.68-1.12,4.89,4.89,0,0,1-1.13-1.14l-23.83.87-68.6,14.9a17.21,17.21,0,0,1-3.2.27l-14,.38a1.14,1.14,0,0,0-1.16,1.64Z" style="fill:url(#Unbenannter_Verlauf_172-6)"/><path d="M312.59,367.88a.84.84,0,0,0,0,1.58l41.29,23.85a3.14,3.14,0,0,0,2.77,0l67.55-38.74a.84.84,0,0,0,.53-1.06.83.83,0,0,0-.53-.52l-41.28-23.83a3,3,0,0,0-2.77,0Z" style="fill:#f6f7f8"/><path d="M312.59,367.88a.84.84,0,0,0,0,1.58l41.29,23.85a3.14,3.14,0,0,0,2.77,0l67.55-38.74a.84.84,0,0,0,.53-1.06.83.83,0,0,0-.53-.52l-41.28-23.83a3,3,0,0,0-2.77,0Z" style="fill:none;stroke:#f6f7f8;stroke-width:0.5px"/><path d="M364.18,158.9l24.39-12,21.08,11.41-24.26,12.25" style="fill:none;stroke:#95a0b0;stroke-linecap:round;stroke-linejoin:round;stroke-width:2px"/><path d="M364.18,158.9l21.21,11.63" style="fill:none;stroke:#95a0b0;stroke-linecap:round;stroke-linejoin:round;stroke-width:2px"/><path d="M70,198.53,44,186.71,74.3,169.19l20.47,15-9.85,8.67Z" style="fill:#e44d26"/><path d="M83,191.71l8-7L73.44,171.89,61,179.05Z" style="fill:#f16529"/><path d="M69.65,184l-5,2.91-3.26-1.49,5.37-3.1-2.85-1.65-9.53,5.5.86.39,8.78,4,8.51-4.91Zm7.4,4.28h0L72,190.26,69.4,189.1l-3.81,2.2,5,2.28L80,190h0Z" style="fill:#ebebeb"/><path d="M40.47,181.44l1.93-1.12,1.43.83,1.77-1-1.44-.83,1.94-1.11,4.33,2.5L48.5,181.8,47.05,181l-1.77,1,1.45.83-1.93,1.12Zm9.6-3.89-1.7,1-1.44-.83,5.34-3.07,1.43.83-1.7,1,2.9,1.67L53,179.22l-2.9-1.67Zm3-3.41,2-1.17,2.77.17-.29-1.59,2-1.17,4.34,2.5L62,174l-2.14-1.24.21,1.66,0,0-2.87-.12,2.14,1.24-1.89,1.09-4.33-2.5Zm7.47-4.31,1.93-1.12,2.9,1.68,2.71-1.57,1.43.83-4.64,2.68Z"/><path d="M69.63,184l2.85,1.65L77.16,183l3.26,2.39L77,188.3,80,190l6.17-5.44-.42-.31-6.61-4.84-.67-.5-1,.59Zm-5.76-3.33,2.85,1.65,9.17-5.3-.56-.42-1.27-.93-.68-.49Z" style="fill:#fff"/><polygon points="354.03 350.35 354.03 350.35 354.03 350.35 344.17 362.35 366.78 372.7 386.96 369.36 386.96 369.36 386.96 369.36 392.76 357.7 374.83 344.65 354.03 350.35" style="fill:#dd0031"/><polygon points="354.03 350.35 357.69 352.45 357.67 352.45 374.35 362.07 374.35 362.07 386.96 369.36 386.96 369.36 392.76 357.7 374.83 344.65 354.03 350.35" style="fill:#c3002f"/><path d="M357.67,352.45l11.91,17.93h0l3.57-2.06h0l-2.88-3.89,8.13-4.69,6.73,1.66h0l3.58-2.06h0l-31-6.89Zm16.52,6.3-5.6,3.23-3.94-5.5Z" style="fill:#fff"/><path d="M166.19,263.5c2.42,1.39,7,1.33,12-.08,3,2.59,6.63,4,9.85,3.48a6.75,6.75,0,0,0,6-6c5.38-.23,9.28-1.35,10.13-3.21s-1.7-4.14-6.33-5.93c2.6-3,2.84-5.35.39-6.76s-6.78-1.18-11.72.21c-3.2-2.8-6.84-4.09-10.19-3.58a6.41,6.41,0,0,0-5.54,6c-5.76.2-9.51,1.41-10.41,3.35s1.63,4,6.19,5.75C164.23,259.49,163.83,262.14,166.19,263.5Z" style="fill:#fff"/><path d="M187,246.38c-.41.11-.81.23-1.21.36-.15-.15-.31-.3-.48-.44-2.67-2.35-5.84-3.65-8.28-3.27s-3.88,2.28-4.2,4.93q0,.39-.06.78l-.9,0c-4.86.17-8.39,1.1-9.05,2.51s1.49,3.08,5.31,4.56c.37.15.76.29,1.15.42-.26.27-.5.54-.72.8-2,2.35-2.24,4.41-.54,5.4s5.6.85,9.82-.35c.34-.09.67-.2,1-.3.25.24.51.48.79.71,2.54,2.16,5.49,3.33,7.83,3s4.07-2.37,4.38-5.08c0-.21,0-.43.05-.65l1.47,0c4.5-.2,7.73-1.09,8.35-2.44s-1.53-3.22-5.43-4.73c-.3-.12-.61-.23-.93-.34l.36-.4c2.18-2.51,2.56-4.75.77-5.78s-5.36-.8-9.49.37Z" style="fill:#53c1de"/><path d="M194.18,251.34l-.32.37c-1.51-.46-3.2-.87-5.05-1.25a21.05,21.05,0,0,0-2.17-2.86l1.11-.33c3.54-1,6.49-1.15,7.52-.56s.8,2.47-1.09,4.63Zm1.15,2a14,14,0,0,1,3.9,2.09c.74.62,1,1.17.83,1.55-.38.82-3,1.54-6.82,1.71-.44,0-.9,0-1.37,0a13.65,13.65,0,0,0-.64-3.12,32,32,0,0,0,3.26-2.57c.29.1.57.2.84.31Zm-6.39,10a3.24,3.24,0,0,1-1.92,1.2c-1.41.21-3.79-.72-6-2.57-.26-.21-.5-.44-.74-.66a45.17,45.17,0,0,0,4.39-1.9c1.9.19,3.74.3,5.47.34,0,.2,0,.4-.05.6a5.64,5.64,0,0,1-1.19,3Zm-11.86-2.11a23.2,23.2,0,0,1-5.09.9,5.62,5.62,0,0,1-2.75-.36c-1-.6-.81-2.26.87-4.27.21-.25.43-.49.67-.74,1.51.46,3.19.89,5,1.28a21.59,21.59,0,0,0,2.24,2.91Zm-8-6.2c-3.27-1.27-5-2.67-4.6-3.48s3.29-1.63,7.48-1.78l.82,0a14.34,14.34,0,0,0,.58,3.14,30.23,30.23,0,0,0-3.21,2.53l-1.07-.39Zm15.31-5.34c-.76-.12-1.53-.23-2.29-.32,1-.46,2-.88,3-1.24a20.2,20.2,0,0,1,1.54,1.94c-.77-.14-1.53-.26-2.3-.38Zm-9.89.07c1.17,0,2.41.1,3.7.2-1.17.62-2.3,1.27-3.37,1.95a14.41,14.41,0,0,1-.33-2.15Zm-.15,5.73c.2.44.43.88.67,1.32-1.2-.28-2.33-.59-3.37-.9a27.21,27.21,0,0,1,2.14-1.75C174,254.59,174.15,255,174.36,255.47Zm8.16,3.68c-1,.48-2.05.9-3,1.27a19.4,19.4,0,0,1-1.59-2c.75.14,1.51.26,2.28.38S181.73,259.05,182.52,259.15Zm7.63-.42c-1.2,0-2.46-.09-3.76-.19.56-.3,1.13-.62,1.69-1s1.15-.67,1.68-1A13.08,13.08,0,0,1,190.15,258.73Zm-.63-7.06c1.25.28,2.41.58,3.46.89a24.2,24.2,0,0,1-2.2,1.8c-.17-.45-.37-.9-.57-1.34s-.44-.9-.69-1.35Zm-1,1.6c.31.69.59,1.37.83,2.06-.78.53-1.62,1-2.51,1.56s-1.78,1-2.66,1.44c-1.21-.13-2.41-.28-3.6-.47s-2.35-.39-3.51-.62c-.4-.67-.76-1.34-1.08-2h0a19.76,19.76,0,0,1-.82-2.07c.79-.53,1.62-1.05,2.5-1.55s1.78-1,2.69-1.45c1.2.14,2.39.3,3.56.48s2.36.38,3.52.61c.4.67.76,1.35,1.08,2ZM177.47,244c1.51-.24,4.1.83,6.4,2.85l.44.4c-1.45.53-2.94,1.15-4.41,1.85-1.89-.19-3.72-.3-5.41-.34,0-.24,0-.48.06-.73.27-2.27,1.51-3.82,2.92-4Z" style="fill:#fff"/><path d="M179.72,252.76a5.61,5.61,0,0,1,5.08,0c1.4.81,1.4,2.13,0,2.94a5.61,5.61,0,0,1-5.08,0c-1.41-.81-1.41-2.13,0-2.94" style="fill:#53c1de"/><path d="M118,207.78l3.18,6.86-11.88-1.84-14.48,8.36,51.44,8-13.78-29.7Z" style="fill:#42b883"/><path d="M118,207.78l3.18,6.86-11.88-1.84-7,4,30.87,4.78-8.27-17.82Z" style="fill:#35495e"/><ellipse cx="246.61" cy="291.51" rx="23.44" ry="13.53" style="fill:#639"/><path d="M246.61,302.17a26.4,26.4,0,0,1-12.78-3l25.69-.07A27.65,27.65,0,0,1,246.61,302.17Zm15.51-5h-31c-4.5-4.1-3.67-9.63,2.48-13.19,4.38-2.53,10.3-3.48,15.87-3l-.24,1.92c-4.74-.41-9.71.41-13.26,2.46-4.62,2.66-5.56,6.63-3,9.91h27.23c2.25-2.67,1.89-5.88-.83-8.41l-5.68,3.28-2.37-1.36,8.29-4.79C265.79,287.55,266.62,293.08,262.12,297.18Z" style="fill:#fff"/><polygon points="374.88 153.82 369.55 150.74 375.44 150.42 381.33 150.09 380.77 153.5 380.21 156.9 374.88 153.82" style="fill:#95a0b0"/><polygon points="399.92 162.86 405.25 165.94 399.36 166.26 393.46 166.58 394.02 163.18 394.59 159.78 399.92 162.86" style="fill:#95a0b0"/><path d="M293.39,317.89l16.7-1.75a12.51,12.51,0,0,1,5.53.59l12.59,5c1.6.63,2.21,1.56,1.6,2.42l-4.58,6.5c-.61.86-2.31,1.53-4.49,1.77L305.53,334a14.87,14.87,0,0,1-6.68-.71l-12-4.74c-1.76-.7-2.48-1.71-1.91-2.67l3.63-6.08C289.19,318.89,291,318.14,293.39,317.89Z" style="fill:#ff4088;stroke:#c9177e;stroke-width:2px;fill-rule:evenodd"/><path d="M309.44,331.72l-19.12-7.59,4-1.58,7,2.76,6.64-2.63-7-2.77,4-1.59,19.12,7.59-4,1.59-8.36-3.32-6.63,2.63,8.36,3.32Z" style="fill:#fff;fill-rule:evenodd"/><line x1="375.77" y1="247.04" x2="346.38" y2="264.02" style="fill:none;stroke:#95a0b0;stroke-linecap:round;stroke-linejoin:round;stroke-width:2px"/><line x1="346.05" y1="264.21" x2="367.67" y2="276.69" style="fill:none;stroke:#95a0b0;stroke-linecap:round;stroke-linejoin:round;stroke-width:2px"/><line x1="360.01" y1="256.15" x2="381.63" y2="268.62" style="fill:none;stroke:#95a0b0;stroke-linecap:round;stroke-linejoin:round;stroke-width:2px"/><polygon points="381.23 249.66 370.99 243.76 381.22 237.85 391.45 243.75 381.23 249.66" style="fill:none;stroke:#95a0b0;stroke-linecap:round;stroke-linejoin:round;stroke-width:2px"/><polygon points="387.22 277.55 376.99 271.64 387.22 265.73 397.45 271.64 387.22 277.55" style="fill:none;stroke:#95a0b0;stroke-linecap:round;stroke-linejoin:round;stroke-width:2px"/><polygon points="373.19 285.65 362.96 279.75 373.19 273.84 383.42 279.74 373.19 285.65" style="fill:none;stroke:#95a0b0;stroke-linecap:round;stroke-linejoin:round;stroke-width:2px"/></g></svg>