<svg xmlns="http://www.w3.org/2000/svg" xmlns:xlink="http://www.w3.org/1999/xlink" width="552" height="552" viewBox="0 0 552 552"><defs><clipPath id="clip-path"><rect x="4.62" y="688.74" width="551" height="608.64" style="fill:none"/></clipPath><linearGradient id="Neues_Verlaufsfeld_22" x1="-0.41" y1="567.96" x2="564.69" y2="567.96" gradientUnits="userSpaceOnUse"><stop offset="0" stop-color="#ecfafd"/><stop offset="0.5" stop-color="#70dbee"/><stop offset="1" stop-color="#fff"/></linearGradient><linearGradient id="Neues_Verlaufsfeld_22-2" x1="-0.41" y1="540.21" x2="564.69" y2="540.21" xlink:href="#Neues_Verlaufsfeld_22"/><linearGradient id="Neues_Verlaufsfeld_22-3" x1="-0.41" y1="512.5" x2="564.69" y2="512.5" xlink:href="#Neues_Verlaufsfeld_22"/><linearGradient id="Neues_Verlaufsfeld_22-4" x1="6.1" y1="591.93" x2="571.21" y2="591.93" xlink:href="#Neues_Verlaufsfeld_22"/><linearGradient id="Neues_Verlaufsfeld_22-5" x1="6.1" y1="619.66" x2="571.21" y2="619.66" xlink:href="#Neues_Verlaufsfeld_22"/><linearGradient id="Neues_Verlaufsfeld_22-6" x1="6.1" y1="647.39" x2="571.21" y2="647.39" xlink:href="#Neues_Verlaufsfeld_22"/><linearGradient id="Neues_Verlaufsfeld_22-7" x1="6.1" y1="675.27" x2="571.21" y2="675.27" xlink:href="#Neues_Verlaufsfeld_22"/><linearGradient id="Neues_Verlaufsfeld_22-8" x1="6.1" y1="702.83" x2="571.21" y2="702.83" xlink:href="#Neues_Verlaufsfeld_22"/><linearGradient id="Neues_Verlaufsfeld_22-9" x1="6.1" y1="706.54" x2="571.21" y2="706.54" xlink:href="#Neues_Verlaufsfeld_22"/><linearGradient id="Neues_Verlaufsfeld_22-10" x1="6.1" y1="678.81" x2="571.21" y2="678.81" xlink:href="#Neues_Verlaufsfeld_22"/><linearGradient id="Neues_Verlaufsfeld_22-11" x1="6.1" y1="651.08" x2="571.21" y2="651.08" xlink:href="#Neues_Verlaufsfeld_22"/><linearGradient id="Neues_Verlaufsfeld_22-12" x1="6.1" y1="623.2" x2="571.21" y2="623.2" xlink:href="#Neues_Verlaufsfeld_22"/><linearGradient id="Unbenannter_Verlauf_44" x1="147.72" y1="-60.62" x2="139.56" y2="371.81" gradientTransform="translate(0.01 0)" gradientUnits="userSpaceOnUse"><stop offset="0" stop-color="#e7f9fc" stop-opacity="0"/><stop offset="0.24" stop-color="#e7f9fc"/><stop offset="0.32" stop-color="#e1f8fb" stop-opacity="0.98"/><stop offset="0.43" stop-color="#d1f4fa" stop-opacity="0.94"/><stop offset="0.55" stop-color="#b6eef7" stop-opacity="0.87"/><stop offset="0.69" stop-color="#91e5f3" stop-opacity="0.78"/><stop offset="0.84" stop-color="#62daee" stop-opacity="0.65"/><stop offset="1" stop-color="#28cce8" stop-opacity="0.5"/></linearGradient><linearGradient id="Unbenannter_Verlauf_44-2" x1="419.69" y1="-60.34" x2="411.57" y2="370.28" xlink:href="#Unbenannter_Verlauf_44"/><clipPath id="clip-path-2"><rect x="0.62" y="0.74" width="551" height="608.64" style="fill:none"/></clipPath><linearGradient id="Neues_Verlaufsfeld_22-13" x1="-4.41" y1="157.21" x2="560.69" y2="157.21" xlink:href="#Neues_Verlaufsfeld_22"/><linearGradient id="Neues_Verlaufsfeld_22-14" x1="-4.41" y1="129.46" x2="560.69" y2="129.46" xlink:href="#Neues_Verlaufsfeld_22"/><linearGradient id="Neues_Verlaufsfeld_22-15" x1="-4.41" y1="101.75" x2="560.69" y2="101.75" xlink:href="#Neues_Verlaufsfeld_22"/><linearGradient id="Neues_Verlaufsfeld_22-16" x1="2.1" y1="181.18" x2="567.21" y2="181.18" xlink:href="#Neues_Verlaufsfeld_22"/><linearGradient id="Neues_Verlaufsfeld_22-17" x1="2.1" y1="208.9" x2="567.21" y2="208.9" xlink:href="#Neues_Verlaufsfeld_22"/><linearGradient id="Neues_Verlaufsfeld_22-18" x1="2.1" y1="236.63" x2="567.21" y2="236.63" xlink:href="#Neues_Verlaufsfeld_22"/><linearGradient id="Neues_Verlaufsfeld_22-19" x1="2.1" y1="264.51" x2="567.21" y2="264.51" xlink:href="#Neues_Verlaufsfeld_22"/><linearGradient id="Neues_Verlaufsfeld_22-20" x1="2.1" y1="292.08" x2="567.21" y2="292.08" xlink:href="#Neues_Verlaufsfeld_22"/><linearGradient id="Neues_Verlaufsfeld_22-21" x1="2.1" y1="319.81" x2="567.21" y2="319.81" xlink:href="#Neues_Verlaufsfeld_22"/><linearGradient id="Neues_Verlaufsfeld_22-22" x1="2.1" y1="347.54" x2="567.21" y2="347.54" xlink:href="#Neues_Verlaufsfeld_22"/><linearGradient id="Neues_Verlaufsfeld_22-23" x1="-4.41" y1="-120.04" x2="560.69" y2="-120.04" xlink:href="#Neues_Verlaufsfeld_22"/><linearGradient id="Neues_Verlaufsfeld_22-24" x1="-4.41" y1="-147.79" x2="560.69" y2="-147.79" xlink:href="#Neues_Verlaufsfeld_22"/><linearGradient id="Neues_Verlaufsfeld_22-25" x1="2.1" y1="-96.07" x2="567.21" y2="-96.07" xlink:href="#Neues_Verlaufsfeld_22"/><linearGradient id="Neues_Verlaufsfeld_22-26" x1="2.1" y1="-68.34" x2="567.21" y2="-68.34" xlink:href="#Neues_Verlaufsfeld_22"/><linearGradient id="Neues_Verlaufsfeld_22-27" x1="2.1" y1="-40.61" x2="567.21" y2="-40.61" xlink:href="#Neues_Verlaufsfeld_22"/><linearGradient id="Neues_Verlaufsfeld_22-28" x1="2.1" y1="-12.73" x2="567.21" y2="-12.73" xlink:href="#Neues_Verlaufsfeld_22"/><linearGradient id="Neues_Verlaufsfeld_22-29" x1="2.1" y1="14.83" x2="567.21" y2="14.83" xlink:href="#Neues_Verlaufsfeld_22"/><linearGradient id="Neues_Verlaufsfeld_22-30" x1="2.1" y1="42.56" x2="567.21" y2="42.56" xlink:href="#Neues_Verlaufsfeld_22"/><linearGradient id="Neues_Verlaufsfeld_22-31" x1="2.1" y1="70.29" x2="567.21" y2="70.29" xlink:href="#Neues_Verlaufsfeld_22"/><linearGradient id="Neues_Verlaufsfeld_22-32" x1="2.1" y1="375.42" x2="567.21" y2="375.42" xlink:href="#Neues_Verlaufsfeld_22"/><linearGradient id="Neues_Verlaufsfeld_22-33" x1="-4.41" y1="406.82" x2="560.69" y2="406.82" xlink:href="#Neues_Verlaufsfeld_22"/><linearGradient id="Neues_Verlaufsfeld_22-34" x1="2.1" y1="430.79" x2="567.21" y2="430.79" xlink:href="#Neues_Verlaufsfeld_22"/><linearGradient id="Neues_Verlaufsfeld_22-35" x1="2.1" y1="458.52" x2="567.21" y2="458.52" xlink:href="#Neues_Verlaufsfeld_22"/><linearGradient id="Neues_Verlaufsfeld_22-36" x1="2.1" y1="486.25" x2="567.21" y2="486.25" xlink:href="#Neues_Verlaufsfeld_22"/><linearGradient id="Neues_Verlaufsfeld_22-37" x1="2.1" y1="514.13" x2="567.21" y2="514.13" xlink:href="#Neues_Verlaufsfeld_22"/><linearGradient id="Neues_Verlaufsfeld_22-38" x1="2.1" y1="541.66" x2="567.21" y2="541.66" xlink:href="#Neues_Verlaufsfeld_22"/><linearGradient id="Neues_Verlaufsfeld_22-39" x1="19.65" y1="559.21" x2="584.75" y2="559.21" xlink:href="#Neues_Verlaufsfeld_22"/><linearGradient id="Neues_Verlaufsfeld_22-40" x1="-4.41" y1="514.13" x2="560.69" y2="514.13" xlink:href="#Neues_Verlaufsfeld_22"/><linearGradient id="Neues_Verlaufsfeld_22-41" x1="2.1" y1="490.16" x2="567.21" y2="490.16" xlink:href="#Neues_Verlaufsfeld_22"/><linearGradient id="Neues_Verlaufsfeld_22-42" x1="2.1" y1="462.43" x2="567.21" y2="462.43" xlink:href="#Neues_Verlaufsfeld_22"/><linearGradient id="Neues_Verlaufsfeld_22-43" x1="2.1" y1="434.7" x2="567.21" y2="434.7" xlink:href="#Neues_Verlaufsfeld_22"/><linearGradient id="Neues_Verlaufsfeld_22-44" x1="2.1" y1="406.82" x2="567.21" y2="406.82" xlink:href="#Neues_Verlaufsfeld_22"/><linearGradient id="Neues_Verlaufsfeld_22-45" x1="2.1" y1="379.26" x2="567.21" y2="379.26" xlink:href="#Neues_Verlaufsfeld_22"/><linearGradient id="Neues_Verlaufsfeld_22-46" x1="2.1" y1="351.53" x2="567.21" y2="351.53" xlink:href="#Neues_Verlaufsfeld_22"/><linearGradient id="Neues_Verlaufsfeld_22-47" x1="2.1" y1="323.8" x2="567.21" y2="323.8" xlink:href="#Neues_Verlaufsfeld_22"/><linearGradient id="Neues_Verlaufsfeld_22-48" x1="-4.41" y1="264.51" x2="560.69" y2="264.51" xlink:href="#Neues_Verlaufsfeld_22"/><linearGradient id="Neues_Verlaufsfeld_22-49" x1="2.1" y1="240.54" x2="567.21" y2="240.54" xlink:href="#Neues_Verlaufsfeld_22"/><linearGradient id="Neues_Verlaufsfeld_22-50" x1="2.1" y1="212.82" x2="567.21" y2="212.82" xlink:href="#Neues_Verlaufsfeld_22"/><linearGradient id="Neues_Verlaufsfeld_22-51" x1="2.1" y1="185.09" x2="567.21" y2="185.09" xlink:href="#Neues_Verlaufsfeld_22"/><linearGradient id="Neues_Verlaufsfeld_22-52" x1="2.1" y1="157.21" x2="567.21" y2="157.21" xlink:href="#Neues_Verlaufsfeld_22"/><linearGradient id="Neues_Verlaufsfeld_22-53" x1="2.1" y1="129.52" x2="567.21" y2="129.52" xlink:href="#Neues_Verlaufsfeld_22"/><linearGradient id="Neues_Verlaufsfeld_22-54" x1="2.1" y1="101.79" x2="567.21" y2="101.79" xlink:href="#Neues_Verlaufsfeld_22"/><linearGradient id="Neues_Verlaufsfeld_22-55" x1="2.1" y1="73.91" x2="567.21" y2="73.91" xlink:href="#Neues_Verlaufsfeld_22"/><linearGradient id="Neues_Verlaufsfeld_22-56" x1="-4.41" y1="42.51" x2="560.69" y2="42.51" xlink:href="#Neues_Verlaufsfeld_22"/><linearGradient id="Neues_Verlaufsfeld_22-57" x1="2.1" y1="18.54" x2="567.21" y2="18.54" xlink:href="#Neues_Verlaufsfeld_22"/><linearGradient id="Neues_Verlaufsfeld_22-58" x1="2.1" y1="-9.19" x2="567.21" y2="-9.19" xlink:href="#Neues_Verlaufsfeld_22"/><linearGradient id="Neues_Verlaufsfeld_22-59" x1="2.1" y1="-36.92" x2="567.21" y2="-36.92" xlink:href="#Neues_Verlaufsfeld_22"/><linearGradient id="Neues_Verlaufsfeld_22-60" x1="2.1" y1="-64.8" x2="567.21" y2="-64.8" xlink:href="#Neues_Verlaufsfeld_22"/><linearGradient id="Neues_Verlaufsfeld_13" x1="359.1" y1="52.62" x2="335.4" y2="90.08" gradientUnits="userSpaceOnUse"><stop offset="0" stop-color="#8c2de0"/><stop offset="0" stop-color="#8a34e1"/><stop offset="1" stop-color="#4a00de"/></linearGradient><linearGradient id="Neues_Verlaufsfeld_13-2" x1="329.67" y1="88.01" x2="345.18" y2="88.01" xlink:href="#Neues_Verlaufsfeld_13"/><linearGradient id="Neues_Verlaufsfeld_13-3" x1="345.17" y1="88.01" x2="360.68" y2="88.01" xlink:href="#Neues_Verlaufsfeld_13"/><linearGradient id="Unbenannter_Verlauf_661" x1="345.18" y1="42.49" x2="345.18" y2="121.4" gradientUnits="userSpaceOnUse"><stop offset="0" stop-color="#e5f7fa" stop-opacity="0"/><stop offset="0.58" stop-color="#28cce8" stop-opacity="0.5"/></linearGradient><linearGradient id="Verlauf_Visual_Icontiefe" x1="350.65" y1="60.52" x2="314.19" y2="118.68" gradientUnits="userSpaceOnUse"><stop offset="0" stop-color="#e5f7fa" stop-opacity="0"/><stop offset="1" stop-color="#28cce8" stop-opacity="0.5"/></linearGradient><linearGradient id="Verlauf_Visual_Icontiefe-2" x1="328.82" y1="71.05" x2="396.4" y2="116.92" xlink:href="#Verlauf_Visual_Icontiefe"/><linearGradient id="Neues_Verlaufsfeld_13-4" x1="358.24" y1="179.99" x2="334.54" y2="217.45" xlink:href="#Neues_Verlaufsfeld_13"/><linearGradient id="Neues_Verlaufsfeld_13-5" x1="328.81" y1="215.38" x2="344.32" y2="215.38" xlink:href="#Neues_Verlaufsfeld_13"/><linearGradient id="Neues_Verlaufsfeld_13-6" x1="344.32" y1="215.38" x2="359.83" y2="215.38" xlink:href="#Neues_Verlaufsfeld_13"/><linearGradient id="Unbenannter_Verlauf_661-2" x1="344.32" y1="169.85" x2="344.32" y2="248.76" xlink:href="#Unbenannter_Verlauf_661"/><linearGradient id="Verlauf_Visual_Icontiefe-3" x1="349.79" y1="187.89" x2="313.34" y2="246.04" xlink:href="#Verlauf_Visual_Icontiefe"/><linearGradient id="Verlauf_Visual_Icontiefe-4" x1="327.97" y1="198.41" x2="395.54" y2="244.29" xlink:href="#Verlauf_Visual_Icontiefe"/><linearGradient id="Neues_Verlaufsfeld_13-7" x1="428.72" y1="169.53" x2="405.02" y2="206.99" xlink:href="#Neues_Verlaufsfeld_13"/><linearGradient id="Neues_Verlaufsfeld_13-8" x1="399.29" y1="204.92" x2="414.8" y2="204.92" xlink:href="#Neues_Verlaufsfeld_13"/><linearGradient id="Neues_Verlaufsfeld_13-9" x1="414.79" y1="204.92" x2="430.3" y2="204.92" xlink:href="#Neues_Verlaufsfeld_13"/><linearGradient id="Neues_Verlaufsfeld_13-10" x1="468.72" y1="169.53" x2="445.02" y2="206.99" xlink:href="#Neues_Verlaufsfeld_13"/><linearGradient id="Neues_Verlaufsfeld_13-11" x1="439.29" y1="204.92" x2="454.8" y2="204.92" xlink:href="#Neues_Verlaufsfeld_13"/><linearGradient id="Neues_Verlaufsfeld_13-12" x1="454.79" y1="204.92" x2="470.3" y2="204.92" xlink:href="#Neues_Verlaufsfeld_13"/><linearGradient id="Neues_Verlaufsfeld_13-13" x1="428.72" y1="209.53" x2="405.02" y2="246.99" xlink:href="#Neues_Verlaufsfeld_13"/><linearGradient id="Neues_Verlaufsfeld_13-14" x1="399.29" y1="244.92" x2="414.8" y2="244.92" xlink:href="#Neues_Verlaufsfeld_13"/><linearGradient id="Neues_Verlaufsfeld_13-15" x1="414.79" y1="244.92" x2="430.3" y2="244.92" xlink:href="#Neues_Verlaufsfeld_13"/><linearGradient id="Neues_Verlaufsfeld_13-16" x1="468.72" y1="209.53" x2="445.02" y2="246.99" xlink:href="#Neues_Verlaufsfeld_13"/><linearGradient id="Neues_Verlaufsfeld_13-17" x1="439.29" y1="244.92" x2="454.8" y2="244.92" xlink:href="#Neues_Verlaufsfeld_13"/><linearGradient id="Neues_Verlaufsfeld_13-18" x1="454.79" y1="244.92" x2="470.3" y2="244.92" xlink:href="#Neues_Verlaufsfeld_13"/><linearGradient id="Neues_Verlaufsfeld_13-19" x1="508.72" y1="169.53" x2="485.02" y2="206.99" xlink:href="#Neues_Verlaufsfeld_13"/><linearGradient id="Neues_Verlaufsfeld_13-20" x1="479.29" y1="204.92" x2="494.8" y2="204.92" xlink:href="#Neues_Verlaufsfeld_13"/><linearGradient id="Neues_Verlaufsfeld_13-21" x1="494.79" y1="204.92" x2="510.3" y2="204.92" xlink:href="#Neues_Verlaufsfeld_13"/><linearGradient id="Neues_Verlaufsfeld_13-22" x1="508.72" y1="209.53" x2="485.02" y2="246.99" xlink:href="#Neues_Verlaufsfeld_13"/><linearGradient id="Neues_Verlaufsfeld_13-23" x1="479.29" y1="244.92" x2="494.8" y2="244.92" xlink:href="#Neues_Verlaufsfeld_13"/><linearGradient id="Neues_Verlaufsfeld_13-24" x1="494.79" y1="244.92" x2="510.3" y2="244.92" xlink:href="#Neues_Verlaufsfeld_13"/><linearGradient id="Neues_Verlaufsfeld_13-25" x1="223.1" y1="52.62" x2="199.4" y2="90.08" xlink:href="#Neues_Verlaufsfeld_13"/><linearGradient id="Neues_Verlaufsfeld_13-26" x1="193.67" y1="88.01" x2="209.18" y2="88.01" xlink:href="#Neues_Verlaufsfeld_13"/><linearGradient id="Neues_Verlaufsfeld_13-27" x1="209.17" y1="88.01" x2="224.68" y2="88.01" xlink:href="#Neues_Verlaufsfeld_13"/><linearGradient id="Unbenannter_Verlauf_661-3" x1="209.18" y1="42.49" x2="209.18" y2="121.4" xlink:href="#Unbenannter_Verlauf_661"/><linearGradient id="Verlauf_Visual_Icontiefe-5" x1="214.65" y1="60.52" x2="178.19" y2="118.68" xlink:href="#Verlauf_Visual_Icontiefe"/><linearGradient id="Verlauf_Visual_Icontiefe-6" x1="192.82" y1="71.05" x2="260.4" y2="116.92" xlink:href="#Verlauf_Visual_Icontiefe"/><linearGradient id="Neues_Verlaufsfeld_13-28" x1="222.24" y1="179.99" x2="198.54" y2="217.45" xlink:href="#Neues_Verlaufsfeld_13"/><linearGradient id="Neues_Verlaufsfeld_13-29" x1="192.81" y1="215.38" x2="208.32" y2="215.38" xlink:href="#Neues_Verlaufsfeld_13"/><linearGradient id="Neues_Verlaufsfeld_13-30" x1="208.32" y1="215.38" x2="223.83" y2="215.38" xlink:href="#Neues_Verlaufsfeld_13"/><linearGradient id="Unbenannter_Verlauf_661-4" x1="208.32" y1="169.85" x2="208.32" y2="248.76" xlink:href="#Unbenannter_Verlauf_661"/><linearGradient id="Verlauf_Visual_Icontiefe-7" x1="213.79" y1="187.89" x2="177.34" y2="246.04" xlink:href="#Verlauf_Visual_Icontiefe"/><linearGradient id="Verlauf_Visual_Icontiefe-8" x1="191.97" y1="198.41" x2="259.54" y2="244.29" xlink:href="#Verlauf_Visual_Icontiefe"/><linearGradient id="Neues_Verlaufsfeld_13-31" x1="222.24" y1="307.99" x2="198.54" y2="345.45" xlink:href="#Neues_Verlaufsfeld_13"/><linearGradient id="Neues_Verlaufsfeld_13-32" x1="192.81" y1="343.38" x2="208.32" y2="343.38" xlink:href="#Neues_Verlaufsfeld_13"/><linearGradient id="Neues_Verlaufsfeld_13-33" x1="208.32" y1="343.38" x2="223.83" y2="343.38" xlink:href="#Neues_Verlaufsfeld_13"/><linearGradient id="Unbenannter_Verlauf_661-5" x1="208.32" y1="297.85" x2="208.32" y2="376.76" xlink:href="#Unbenannter_Verlauf_661"/><linearGradient id="Verlauf_Visual_Icontiefe-9" x1="213.79" y1="315.89" x2="177.34" y2="374.04" xlink:href="#Verlauf_Visual_Icontiefe"/><linearGradient id="Verlauf_Visual_Icontiefe-10" x1="191.97" y1="326.41" x2="259.54" y2="372.29" xlink:href="#Verlauf_Visual_Icontiefe"/><linearGradient id="Neues_Verlaufsfeld_13-34" x1="222.24" y1="431.99" x2="198.54" y2="469.45" xlink:href="#Neues_Verlaufsfeld_13"/><linearGradient id="Neues_Verlaufsfeld_13-35" x1="192.81" y1="467.38" x2="208.32" y2="467.38" xlink:href="#Neues_Verlaufsfeld_13"/><linearGradient id="Neues_Verlaufsfeld_13-36" x1="208.32" y1="467.38" x2="223.83" y2="467.38" xlink:href="#Neues_Verlaufsfeld_13"/><linearGradient id="Unbenannter_Verlauf_661-6" x1="208.32" y1="421.85" x2="208.32" y2="500.76" xlink:href="#Unbenannter_Verlauf_661"/><linearGradient id="Verlauf_Visual_Icontiefe-11" x1="213.79" y1="439.89" x2="177.34" y2="498.04" xlink:href="#Verlauf_Visual_Icontiefe"/><linearGradient id="Verlauf_Visual_Icontiefe-12" x1="191.97" y1="450.41" x2="259.54" y2="496.29" xlink:href="#Verlauf_Visual_Icontiefe"/><linearGradient id="Neues_Verlaufsfeld_13-37" x1="87.13" y1="259.46" x2="63.44" y2="296.92" xlink:href="#Neues_Verlaufsfeld_13"/><linearGradient id="Neues_Verlaufsfeld_13-38" x1="57.71" y1="294.85" x2="73.22" y2="294.85" xlink:href="#Neues_Verlaufsfeld_13"/><linearGradient id="Neues_Verlaufsfeld_13-39" x1="73.21" y1="294.85" x2="88.72" y2="294.85" xlink:href="#Neues_Verlaufsfeld_13"/><linearGradient id="Unbenannter_Verlauf_661-7" x1="73.22" y1="249.33" x2="73.22" y2="328.24" xlink:href="#Unbenannter_Verlauf_661"/><linearGradient id="Verlauf_Visual_Icontiefe-13" x1="78.68" y1="267.36" x2="42.23" y2="325.52" xlink:href="#Verlauf_Visual_Icontiefe"/><linearGradient id="Verlauf_Visual_Icontiefe-14" x1="56.86" y1="277.89" x2="124.44" y2="323.76" xlink:href="#Verlauf_Visual_Icontiefe"/><linearGradient id="Neues_Verlaufsfeld_13-40" x1="87.13" y1="367.46" x2="63.44" y2="404.92" xlink:href="#Neues_Verlaufsfeld_13"/><linearGradient id="Neues_Verlaufsfeld_13-41" x1="57.71" y1="402.85" x2="73.22" y2="402.85" xlink:href="#Neues_Verlaufsfeld_13"/><linearGradient id="Neues_Verlaufsfeld_13-42" x1="73.21" y1="402.85" x2="88.72" y2="402.85" xlink:href="#Neues_Verlaufsfeld_13"/><linearGradient id="Unbenannter_Verlauf_661-8" x1="73.22" y1="357.33" x2="73.22" y2="436.24" xlink:href="#Unbenannter_Verlauf_661"/><linearGradient id="Verlauf_Visual_Icontiefe-15" x1="78.68" y1="375.36" x2="42.23" y2="433.52" xlink:href="#Verlauf_Visual_Icontiefe"/><linearGradient id="Verlauf_Visual_Icontiefe-16" x1="56.86" y1="385.89" x2="124.44" y2="431.76" xlink:href="#Verlauf_Visual_Icontiefe"/></defs><g id="Ebene_1" data-name="Ebene 1"><g style="opacity:0.5"><g style="clip-path:url(#clip-path)"><line x1="-0.29" y1="731.02" x2="564.57" y2="404.9" style="fill:none;stroke-miterlimit:10;stroke-width:0.5px;stroke:url(#Neues_Verlaufsfeld_22)"/><line x1="-0.29" y1="703.27" x2="564.57" y2="377.15" style="fill:none;stroke-miterlimit:10;stroke-width:0.5px;stroke:url(#Neues_Verlaufsfeld_22-2)"/><line x1="-0.29" y1="675.56" x2="564.57" y2="349.44" style="fill:none;stroke-miterlimit:10;stroke-width:0.5px;stroke:url(#Neues_Verlaufsfeld_22-3)"/><line x1="6.23" y1="754.99" x2="571.08" y2="428.87" style="fill:none;stroke-miterlimit:10;stroke-width:0.5px;stroke:url(#Neues_Verlaufsfeld_22-4)"/><line x1="6.23" y1="782.72" x2="571.08" y2="456.6" style="fill:none;stroke-miterlimit:10;stroke-width:0.5px;stroke:url(#Neues_Verlaufsfeld_22-5)"/><line x1="6.23" y1="810.45" x2="571.08" y2="484.33" style="fill:none;stroke-miterlimit:10;stroke-width:0.5px;stroke:url(#Neues_Verlaufsfeld_22-6)"/><line x1="6.23" y1="838.33" x2="571.08" y2="512.21" style="fill:none;stroke-miterlimit:10;stroke-width:0.5px;stroke:url(#Neues_Verlaufsfeld_22-7)"/><line x1="6.23" y1="865.89" x2="571.08" y2="539.77" style="fill:none;stroke-miterlimit:10;stroke-width:0.5px;stroke:url(#Neues_Verlaufsfeld_22-8)"/><line x1="6.23" y1="543.48" x2="571.08" y2="869.6" style="fill:none;stroke-miterlimit:10;stroke-width:0.5px;stroke:url(#Neues_Verlaufsfeld_22-9)"/><line x1="6.23" y1="515.75" x2="571.08" y2="841.87" style="fill:none;stroke-miterlimit:10;stroke-width:0.5px;stroke:url(#Neues_Verlaufsfeld_22-10)"/><line x1="6.23" y1="488.02" x2="571.08" y2="814.14" style="fill:none;stroke-miterlimit:10;stroke-width:0.5px;stroke:url(#Neues_Verlaufsfeld_22-11)"/><line x1="6.23" y1="460.14" x2="571.08" y2="786.26" style="fill:none;stroke-miterlimit:10;stroke-width:0.5px;stroke:url(#Neues_Verlaufsfeld_22-12)"/></g></g><polygon points="11.43 9.06 11.45 542.57 271.36 541.58 270.31 9.33 11.43 9.06" style="opacity:0.25;fill:url(#Unbenannter_Verlauf_44)"/><polygon points="283.43 9.06 283.45 540.32 543.36 539.33 542.31 9.33 283.43 9.06" style="opacity:0.25;fill:url(#Unbenannter_Verlauf_44-2)"/><g style="opacity:0.5"><g style="clip-path:url(#clip-path-2)"><line x1="-4.29" y1="320.27" x2="560.57" y2="-5.85" style="fill:none;stroke-miterlimit:10;stroke-width:0.5px;stroke:url(#Neues_Verlaufsfeld_22-13)"/><line x1="-4.29" y1="292.52" x2="560.57" y2="-33.6" style="fill:none;stroke-miterlimit:10;stroke-width:0.5px;stroke:url(#Neues_Verlaufsfeld_22-14)"/><line x1="-4.29" y1="264.81" x2="560.57" y2="-61.31" style="fill:none;stroke-miterlimit:10;stroke-width:0.5px;stroke:url(#Neues_Verlaufsfeld_22-15)"/><line x1="2.23" y1="344.24" x2="567.08" y2="18.12" style="fill:none;stroke-miterlimit:10;stroke-width:0.5px;stroke:url(#Neues_Verlaufsfeld_22-16)"/><line x1="2.23" y1="371.96" x2="567.08" y2="45.84" style="fill:none;stroke-miterlimit:10;stroke-width:0.5px;stroke:url(#Neues_Verlaufsfeld_22-17)"/><line x1="2.23" y1="399.69" x2="567.08" y2="73.57" style="fill:none;stroke-miterlimit:10;stroke-width:0.5px;stroke:url(#Neues_Verlaufsfeld_22-18)"/><line x1="2.23" y1="427.57" x2="567.08" y2="101.45" style="fill:none;stroke-miterlimit:10;stroke-width:0.5px;stroke:url(#Neues_Verlaufsfeld_22-19)"/><line x1="2.23" y1="455.14" x2="567.08" y2="129.02" style="fill:none;stroke-miterlimit:10;stroke-width:0.5px;stroke:url(#Neues_Verlaufsfeld_22-20)"/><line x1="2.23" y1="482.87" x2="567.08" y2="156.75" style="fill:none;stroke-miterlimit:10;stroke-width:0.5px;stroke:url(#Neues_Verlaufsfeld_22-21)"/><line x1="2.23" y1="510.6" x2="567.08" y2="184.48" style="fill:none;stroke-miterlimit:10;stroke-width:0.5px;stroke:url(#Neues_Verlaufsfeld_22-22)"/><line x1="-4.29" y1="43.02" x2="560.57" y2="-283.1" style="fill:none;stroke-miterlimit:10;stroke-width:0.5px;stroke:url(#Neues_Verlaufsfeld_22-23)"/><line x1="-4.29" y1="15.27" x2="560.57" y2="-310.85" style="fill:none;stroke-miterlimit:10;stroke-width:0.5px;stroke:url(#Neues_Verlaufsfeld_22-24)"/><line x1="2.23" y1="66.99" x2="567.08" y2="-259.13" style="fill:none;stroke-miterlimit:10;stroke-width:0.5px;stroke:url(#Neues_Verlaufsfeld_22-25)"/><line x1="2.23" y1="94.72" x2="567.08" y2="-231.4" style="fill:none;stroke-miterlimit:10;stroke-width:0.5px;stroke:url(#Neues_Verlaufsfeld_22-26)"/><line x1="2.23" y1="122.45" x2="567.08" y2="-203.67" style="fill:none;stroke-miterlimit:10;stroke-width:0.5px;stroke:url(#Neues_Verlaufsfeld_22-27)"/><line x1="2.23" y1="150.33" x2="567.08" y2="-175.79" style="fill:none;stroke-miterlimit:10;stroke-width:0.5px;stroke:url(#Neues_Verlaufsfeld_22-28)"/><line x1="2.23" y1="177.89" x2="567.08" y2="-148.23" style="fill:none;stroke-miterlimit:10;stroke-width:0.5px;stroke:url(#Neues_Verlaufsfeld_22-29)"/><line x1="2.23" y1="205.62" x2="567.08" y2="-120.5" style="fill:none;stroke-miterlimit:10;stroke-width:0.5px;stroke:url(#Neues_Verlaufsfeld_22-30)"/><line x1="2.23" y1="233.35" x2="567.08" y2="-92.77" style="fill:none;stroke-miterlimit:10;stroke-width:0.5px;stroke:url(#Neues_Verlaufsfeld_22-31)"/><line x1="2.23" y1="538.48" x2="567.08" y2="212.36" style="fill:none;stroke-miterlimit:10;stroke-width:0.5px;stroke:url(#Neues_Verlaufsfeld_22-32)"/><line x1="-4.29" y1="569.88" x2="560.57" y2="243.76" style="fill:none;stroke-miterlimit:10;stroke-width:0.5px;stroke:url(#Neues_Verlaufsfeld_22-33)"/><line x1="2.23" y1="593.85" x2="567.08" y2="267.73" style="fill:none;stroke-miterlimit:10;stroke-width:0.5px;stroke:url(#Neues_Verlaufsfeld_22-34)"/><line x1="2.23" y1="621.58" x2="567.08" y2="295.46" style="fill:none;stroke-miterlimit:10;stroke-width:0.5px;stroke:url(#Neues_Verlaufsfeld_22-35)"/><line x1="2.23" y1="649.31" x2="567.08" y2="323.19" style="fill:none;stroke-miterlimit:10;stroke-width:0.5px;stroke:url(#Neues_Verlaufsfeld_22-36)"/><line x1="2.23" y1="677.19" x2="567.08" y2="351.07" style="fill:none;stroke-miterlimit:10;stroke-width:0.5px;stroke:url(#Neues_Verlaufsfeld_22-37)"/><line x1="2.23" y1="704.72" x2="567.08" y2="378.6" style="fill:none;stroke-miterlimit:10;stroke-width:0.5px;stroke:url(#Neues_Verlaufsfeld_22-38)"/><line x1="19.78" y1="722.27" x2="584.63" y2="396.15" style="fill:none;stroke-miterlimit:10;stroke-width:0.5px;stroke:url(#Neues_Verlaufsfeld_22-39)"/><line x1="-4.29" y1="351.07" x2="560.57" y2="677.19" style="fill:none;stroke-miterlimit:10;stroke-width:0.5px;stroke:url(#Neues_Verlaufsfeld_22-40)"/><line x1="2.23" y1="327.1" x2="567.08" y2="653.22" style="fill:none;stroke-miterlimit:10;stroke-width:0.5px;stroke:url(#Neues_Verlaufsfeld_22-41)"/><line x1="2.23" y1="299.37" x2="567.08" y2="625.49" style="fill:none;stroke-miterlimit:10;stroke-width:0.5px;stroke:url(#Neues_Verlaufsfeld_22-42)"/><line x1="2.23" y1="271.64" x2="567.08" y2="597.76" style="fill:none;stroke-miterlimit:10;stroke-width:0.5px;stroke:url(#Neues_Verlaufsfeld_22-43)"/><line x1="2.23" y1="243.76" x2="567.08" y2="569.88" style="fill:none;stroke-miterlimit:10;stroke-width:0.5px;stroke:url(#Neues_Verlaufsfeld_22-44)"/><line x1="2.23" y1="216.2" x2="567.08" y2="542.32" style="fill:none;stroke-miterlimit:10;stroke-width:0.5px;stroke:url(#Neues_Verlaufsfeld_22-45)"/><line x1="2.23" y1="188.47" x2="567.08" y2="514.59" style="fill:none;stroke-miterlimit:10;stroke-width:0.5px;stroke:url(#Neues_Verlaufsfeld_22-46)"/><line x1="2.23" y1="160.74" x2="567.08" y2="486.86" style="fill:none;stroke-miterlimit:10;stroke-width:0.5px;stroke:url(#Neues_Verlaufsfeld_22-47)"/><line x1="-4.29" y1="101.45" x2="560.57" y2="427.57" style="fill:none;stroke-miterlimit:10;stroke-width:0.5px;stroke:url(#Neues_Verlaufsfeld_22-48)"/><line x1="2.23" y1="77.48" x2="567.08" y2="403.6" style="fill:none;stroke-miterlimit:10;stroke-width:0.5px;stroke:url(#Neues_Verlaufsfeld_22-49)"/><line x1="2.23" y1="49.76" x2="567.08" y2="375.88" style="fill:none;stroke-miterlimit:10;stroke-width:0.5px;stroke:url(#Neues_Verlaufsfeld_22-50)"/><line x1="2.23" y1="22.03" x2="567.08" y2="348.15" style="fill:none;stroke-miterlimit:10;stroke-width:0.5px;stroke:url(#Neues_Verlaufsfeld_22-51)"/><line x1="2.23" y1="-5.85" x2="567.08" y2="320.27" style="fill:none;stroke-miterlimit:10;stroke-width:0.5px;stroke:url(#Neues_Verlaufsfeld_22-52)"/><line x1="2.23" y1="-33.54" x2="567.08" y2="292.58" style="fill:none;stroke-miterlimit:10;stroke-width:0.5px;stroke:url(#Neues_Verlaufsfeld_22-53)"/><line x1="2.23" y1="-61.27" x2="567.08" y2="264.85" style="fill:none;stroke-miterlimit:10;stroke-width:0.5px;stroke:url(#Neues_Verlaufsfeld_22-54)"/><line x1="2.23" y1="-89.15" x2="567.08" y2="236.97" style="fill:none;stroke-miterlimit:10;stroke-width:0.5px;stroke:url(#Neues_Verlaufsfeld_22-55)"/><line x1="-4.29" y1="-120.55" x2="560.57" y2="205.57" style="fill:none;stroke-miterlimit:10;stroke-width:0.5px;stroke:url(#Neues_Verlaufsfeld_22-56)"/><line x1="2.23" y1="-144.52" x2="567.08" y2="181.6" style="fill:none;stroke-miterlimit:10;stroke-width:0.5px;stroke:url(#Neues_Verlaufsfeld_22-57)"/><line x1="2.23" y1="-172.25" x2="567.08" y2="153.87" style="fill:none;stroke-miterlimit:10;stroke-width:0.5px;stroke:url(#Neues_Verlaufsfeld_22-58)"/><line x1="2.23" y1="-199.98" x2="567.08" y2="126.14" style="fill:none;stroke-miterlimit:10;stroke-width:0.5px;stroke:url(#Neues_Verlaufsfeld_22-59)"/><line x1="2.23" y1="-227.86" x2="567.08" y2="98.26" style="fill:none;stroke-miterlimit:10;stroke-width:0.5px;stroke:url(#Neues_Verlaufsfeld_22-60)"/></g></g><polygon points="317.03 99.78 345.23 83.54 373.33 99.76 345.18 115.99 317.03 99.78" style="fill:#e7f9fc;opacity:0.8"/><polygon points="329.67 74.63 345.21 65.68 360.69 74.62 345.18 83.56 329.67 74.63" style="opacity:0.8;fill:url(#Neues_Verlaufsfeld_13)"/><polygon points="329.67 92.46 329.67 74.63 345.18 83.56 345.18 101.4 329.67 92.46" style="opacity:0.8;fill:url(#Neues_Verlaufsfeld_13-2)"/><polygon points="360.68 92.46 360.68 74.63 345.17 83.56 345.17 101.4 360.68 92.46" style="opacity:0.6000000000000001;fill:url(#Neues_Verlaufsfeld_13-3)"/><polygon points="317.03 67.41 345.23 51.17 373.33 67.39 345.18 83.62 317.03 67.41" style="fill:url(#Unbenannter_Verlauf_661)"/><polygon points="317.03 99.78 317.03 67.41 345.18 83.62 345.18 115.99 317.03 99.78" style="fill:url(#Verlauf_Visual_Icontiefe)"/><polygon points="373.31 99.78 373.31 67.41 345.17 83.62 345.17 115.99 373.31 99.78" style="fill:url(#Verlauf_Visual_Icontiefe-2)"/><text transform="translate(321.41 44.54)" style="font-size:18px;fill:#014a97;font-family:OpenSans-Regular, Open Sans">Client</text><polygon points="316.18 227.14 344.37 210.9 372.47 227.13 344.32 243.35 316.18 227.14" style="fill:#e7f9fc;opacity:0.8"/><polygon points="328.81 201.99 344.35 193.05 359.83 201.98 344.32 210.93 328.81 201.99" style="opacity:0.8;fill:url(#Neues_Verlaufsfeld_13-4)"/><polygon points="328.81 219.83 328.81 201.99 344.32 210.93 344.32 228.76 328.81 219.83" style="opacity:0.8;fill:url(#Neues_Verlaufsfeld_13-5)"/><polygon points="359.82 219.83 359.82 201.99 344.32 210.93 344.31 228.76 359.82 219.83" style="opacity:0.6000000000000001;fill:url(#Neues_Verlaufsfeld_13-6)"/><polygon points="316.18 194.77 344.37 178.53 372.47 194.75 344.32 210.98 316.18 194.77" style="fill:url(#Unbenannter_Verlauf_661-2)"/><polygon points="316.18 227.14 316.18 194.77 344.32 210.98 344.32 243.35 316.18 227.14" style="fill:url(#Verlauf_Visual_Icontiefe-3)"/><polygon points="372.46 227.14 372.46 194.77 344.31 210.98 344.31 243.35 372.46 227.14" style="fill:url(#Verlauf_Visual_Icontiefe-4)"/><text transform="translate(317.41 172.6)" style="font-size:18px;fill:#014a97;font-family:OpenSans-Regular, Open Sans">Server</text><g style="opacity:0.8"><polygon points="399.29 191.54 414.83 182.59 430.31 191.53 414.8 200.47 399.29 191.54" style="opacity:0.8;fill:url(#Neues_Verlaufsfeld_13-7)"/><polygon points="399.29 209.37 399.29 191.54 414.8 200.47 414.8 218.3 399.29 209.37" style="opacity:0.8;fill:url(#Neues_Verlaufsfeld_13-8)"/><polygon points="430.3 209.37 430.3 191.54 414.79 200.47 414.79 218.3 430.3 209.37" style="opacity:0.6000000000000001;fill:url(#Neues_Verlaufsfeld_13-9)"/></g><g style="opacity:0.8"><polygon points="439.29 191.54 454.83 182.59 470.31 191.53 454.8 200.47 439.29 191.54" style="opacity:0.8;fill:url(#Neues_Verlaufsfeld_13-10)"/><polygon points="439.29 209.37 439.29 191.54 454.8 200.47 454.8 218.3 439.29 209.37" style="opacity:0.8;fill:url(#Neues_Verlaufsfeld_13-11)"/><polygon points="470.3 209.37 470.3 191.54 454.79 200.47 454.79 218.3 470.3 209.37" style="opacity:0.6000000000000001;fill:url(#Neues_Verlaufsfeld_13-12)"/></g><g style="opacity:0.8"><polygon points="399.29 231.54 414.83 222.59 430.31 231.53 414.8 240.47 399.29 231.54" style="opacity:0.8;fill:url(#Neues_Verlaufsfeld_13-13)"/><polygon points="399.29 249.37 399.29 231.54 414.8 240.47 414.8 258.3 399.29 249.37" style="opacity:0.8;fill:url(#Neues_Verlaufsfeld_13-14)"/><polygon points="430.3 249.37 430.3 231.54 414.79 240.47 414.79 258.3 430.3 249.37" style="opacity:0.6000000000000001;fill:url(#Neues_Verlaufsfeld_13-15)"/></g><g style="opacity:0.8"><polygon points="439.29 231.54 454.83 222.59 470.31 231.53 454.8 240.47 439.29 231.54" style="opacity:0.8;fill:url(#Neues_Verlaufsfeld_13-16)"/><polygon points="439.29 249.37 439.29 231.54 454.8 240.47 454.8 258.3 439.29 249.37" style="opacity:0.8;fill:url(#Neues_Verlaufsfeld_13-17)"/><polygon points="470.3 249.37 470.3 231.54 454.79 240.47 454.79 258.3 470.3 249.37" style="opacity:0.6000000000000001;fill:url(#Neues_Verlaufsfeld_13-18)"/></g><text transform="translate(418.45 172.6)" style="font-size:18px;fill:#014a97;font-family:OpenSans-Regular, Open Sans">Services</text><polygon points="126.37 253.27 131.7 256.35 125.81 256.67 119.91 256.99 120.47 253.59 121.04 250.19 126.37 253.27" style="fill:#0b3476"/><rect x="123.5" y="245.04" width="33.07" height="1.14" transform="translate(-104.03 102.9) rotate(-29.99)" style="fill:#0b3476"/><polygon points="153.69 237.75 148.36 234.68 154.25 234.35 160.15 234.03 159.59 237.43 159.03 240.83 153.69 237.75" style="fill:#0b3476"/><polygon points="126.17 360.3 131.5 363.38 125.61 363.7 119.71 364.03 120.28 360.63 120.84 357.22 126.17 360.3" style="fill:#0b3476"/><rect x="123.3" y="352.07" width="33.07" height="1.14" transform="translate(-157.56 117.13) rotate(-29.99)" style="fill:#0b3476"/><polygon points="153.49 344.79 148.16 341.71 154.06 341.39 159.95 341.06 159.39 344.46 158.82 347.87 153.49 344.79" style="fill:#0b3476"/><rect x="142.09" y="310.76" width="1.14" height="33.07" transform="translate(-212.12 287.23) rotate(-60.01)" style="fill:#0b3476"/><polygon points="129 319.45 134.33 316.37 128.44 316.05 122.54 315.72 123.1 319.13 123.67 322.53 129 319.45" style="fill:#0b3476"/><rect x="145.75" y="419.48" width="1.14" height="33.07" transform="translate(-304.45 344.76) rotate(-60.01)" style="fill:#0b3476"/><polygon points="132.66 428.16 137.99 425.09 132.1 424.76 126.2 424.44 126.76 427.84 127.33 431.24 132.66 428.16" style="fill:#0b3476"/><polygon points="345.05 143.55 351.2 143.55 348.13 147.28 345.05 151 341.97 147.28 338.89 143.55 345.05 143.55" style="fill:#0b3476"/><polygon points="345.93 144.86 344.62 144.2 344.62 131.13 345.93 131.79 345.93 144.86" style="fill:#0b3476"/><polygon points="345.31 132.26 339.15 132.26 342.23 128.53 345.31 124.81 348.39 128.53 351.47 132.26 345.31 132.26" style="fill:#0b3476"/><polygon points="404.22 148.54 398.89 151.62 404.78 151.94 410.68 152.27 410.11 148.87 409.55 145.46 404.22 148.54" style="fill:#0b3476"/><rect x="389.99" y="124.34" width="1.14" height="33.07" transform="translate(73.3 408.7) rotate(-60.01)" style="fill:#0b3476"/><polygon points="376.9 133.03 382.23 129.95 376.33 129.63 370.44 129.3 371 132.71 371.56 136.11 376.9 133.03" style="fill:#0b3476"/><text transform="translate(373.74 519.21)" style="font-size:18px;fill:#014a97;font-family:OpenSans-Bold, Open Sans;font-weight:700">Jamstack</text><g style="opacity:0.8"><polygon points="479.29 191.54 494.83 182.59 510.31 191.53 494.8 200.47 479.29 191.54" style="opacity:0.8;fill:url(#Neues_Verlaufsfeld_13-19)"/><polygon points="479.29 209.37 479.29 191.54 494.8 200.47 494.8 218.3 479.29 209.37" style="opacity:0.8;fill:url(#Neues_Verlaufsfeld_13-20)"/><polygon points="510.3 209.37 510.3 191.54 494.79 200.47 494.79 218.3 510.3 209.37" style="opacity:0.6000000000000001;fill:url(#Neues_Verlaufsfeld_13-21)"/></g><g style="opacity:0.8"><polygon points="479.29 231.54 494.83 222.59 510.31 231.53 494.8 240.47 479.29 231.54" style="opacity:0.8;fill:url(#Neues_Verlaufsfeld_13-22)"/><polygon points="479.29 249.37 479.29 231.54 494.8 240.47 494.8 258.3 479.29 249.37" style="opacity:0.8;fill:url(#Neues_Verlaufsfeld_13-23)"/><polygon points="510.3 249.37 510.3 231.54 494.79 240.47 494.79 258.3 510.3 249.37" style="opacity:0.6000000000000001;fill:url(#Neues_Verlaufsfeld_13-24)"/></g><polygon points="181.03 99.78 209.23 83.54 237.33 99.76 209.18 115.99 181.03 99.78" style="fill:#e7f9fc;opacity:0.8"/><polygon points="193.67 74.63 209.21 65.68 224.69 74.62 209.18 83.56 193.67 74.63" style="opacity:0.8;fill:url(#Neues_Verlaufsfeld_13-25)"/><polygon points="193.67 92.46 193.67 74.63 209.18 83.56 209.18 101.4 193.67 92.46" style="opacity:0.8;fill:url(#Neues_Verlaufsfeld_13-26)"/><polygon points="224.68 92.46 224.68 74.63 209.17 83.56 209.17 101.4 224.68 92.46" style="opacity:0.6000000000000001;fill:url(#Neues_Verlaufsfeld_13-27)"/><polygon points="181.03 67.41 209.23 51.17 237.33 67.39 209.18 83.62 181.03 67.41" style="fill:url(#Unbenannter_Verlauf_661-3)"/><polygon points="181.03 99.78 181.03 67.41 209.18 83.62 209.18 115.99 181.03 99.78" style="fill:url(#Verlauf_Visual_Icontiefe-5)"/><polygon points="237.31 99.78 237.31 67.41 209.17 83.62 209.17 115.99 237.31 99.78" style="fill:url(#Verlauf_Visual_Icontiefe-6)"/><text transform="translate(185.41 44.54)" style="font-size:18px;fill:#014a97;font-family:OpenSans-Regular, Open Sans">Client</text><polygon points="180.18 227.14 208.37 210.9 236.47 227.13 208.32 243.35 180.18 227.14" style="fill:#e7f9fc;opacity:0.8"/><polygon points="192.81 201.99 208.35 193.05 223.83 201.98 208.32 210.93 192.81 201.99" style="opacity:0.8;fill:url(#Neues_Verlaufsfeld_13-28)"/><polygon points="192.81 219.83 192.81 201.99 208.32 210.93 208.32 228.76 192.81 219.83" style="opacity:0.8;fill:url(#Neues_Verlaufsfeld_13-29)"/><polygon points="223.82 219.83 223.82 201.99 208.32 210.93 208.31 228.76 223.82 219.83" style="opacity:0.6000000000000001;fill:url(#Neues_Verlaufsfeld_13-30)"/><polygon points="180.18 194.77 208.37 178.53 236.47 194.75 208.32 210.98 180.18 194.77" style="fill:url(#Unbenannter_Verlauf_661-4)"/><polygon points="180.18 227.14 180.18 194.77 208.32 210.98 208.32 243.35 180.18 227.14" style="fill:url(#Verlauf_Visual_Icontiefe-7)"/><polygon points="236.46 227.14 236.46 194.77 208.31 210.98 208.31 243.35 236.46 227.14" style="fill:url(#Verlauf_Visual_Icontiefe-8)"/><text transform="translate(181.41 172.6)" style="font-size:18px;fill:#014a97;font-family:OpenSans-Regular, Open Sans">Server</text><polygon points="209.05 143.55 215.2 143.55 212.13 147.28 209.05 151 205.97 147.28 202.89 143.55 209.05 143.55" style="fill:#0b3476"/><polygon points="209.93 144.86 208.62 144.2 208.62 131.13 209.93 131.79 209.93 144.86" style="fill:#0b3476"/><polygon points="209.31 132.26 203.15 132.26 206.23 128.53 209.31 124.81 212.39 128.53 215.47 132.26 209.31 132.26" style="fill:#0b3476"/><text transform="translate(29.32 519.21)" style="font-size:18px;fill:#014a97;font-family:OpenSans-Bold, Open Sans;font-weight:700">Classic Web Architecture</text><polygon points="180.18 355.14 208.37 338.9 236.47 355.13 208.32 371.35 180.18 355.14" style="fill:#e7f9fc;opacity:0.8"/><polygon points="192.81 329.99 208.35 321.05 223.83 329.98 208.32 338.93 192.81 329.99" style="opacity:0.8;fill:url(#Neues_Verlaufsfeld_13-31)"/><polygon points="192.81 347.83 192.81 329.99 208.32 338.93 208.32 356.76 192.81 347.83" style="opacity:0.8;fill:url(#Neues_Verlaufsfeld_13-32)"/><polygon points="223.82 347.83 223.82 329.99 208.32 338.93 208.31 356.76 223.82 347.83" style="opacity:0.6000000000000001;fill:url(#Neues_Verlaufsfeld_13-33)"/><polygon points="180.18 322.77 208.37 306.53 236.47 322.75 208.32 338.98 180.18 322.77" style="fill:url(#Unbenannter_Verlauf_661-5)"/><polygon points="180.18 355.14 180.18 322.77 208.32 338.98 208.32 371.35 180.18 355.14" style="fill:url(#Verlauf_Visual_Icontiefe-9)"/><polygon points="236.46 355.14 236.46 322.77 208.31 338.98 208.31 371.35 236.46 355.14" style="fill:url(#Verlauf_Visual_Icontiefe-10)"/><text transform="translate(189.41 300.6)" style="font-size:18px;fill:#014a97;font-family:OpenSans-Regular, Open Sans">CMS</text><polygon points="209.05 271.55 215.2 271.55 212.13 275.28 209.05 279 205.97 275.28 202.89 271.55 209.05 271.55" style="fill:#0b3476"/><polygon points="209.93 272.86 208.62 272.2 208.62 259.13 209.93 259.79 209.93 272.86" style="fill:#0b3476"/><polygon points="209.31 260.26 203.15 260.26 206.23 256.53 209.31 252.81 212.39 256.53 215.47 260.26 209.31 260.26" style="fill:#0b3476"/><polygon points="180.18 479.14 208.37 462.9 236.47 479.13 208.32 495.35 180.18 479.14" style="fill:#e7f9fc;opacity:0.8"/><polygon points="192.81 453.99 208.35 445.05 223.83 453.98 208.32 462.93 192.81 453.99" style="opacity:0.8;fill:url(#Neues_Verlaufsfeld_13-34)"/><polygon points="192.81 471.83 192.81 453.99 208.32 462.93 208.32 480.76 192.81 471.83" style="opacity:0.8;fill:url(#Neues_Verlaufsfeld_13-35)"/><polygon points="223.82 471.83 223.82 453.99 208.32 462.93 208.31 480.76 223.82 471.83" style="opacity:0.6000000000000001;fill:url(#Neues_Verlaufsfeld_13-36)"/><polygon points="180.18 446.77 208.37 430.53 236.47 446.75 208.32 462.98 180.18 446.77" style="fill:url(#Unbenannter_Verlauf_661-6)"/><polygon points="180.18 479.14 180.18 446.77 208.32 462.98 208.32 495.35 180.18 479.14" style="fill:url(#Verlauf_Visual_Icontiefe-11)"/><polygon points="236.46 479.14 236.46 446.77 208.31 462.98 208.31 495.35 236.46 479.14" style="fill:url(#Verlauf_Visual_Icontiefe-12)"/><text transform="translate(169.41 424.6)" style="font-size:18px;fill:#014a97;font-family:OpenSans-Regular, Open Sans">Database</text><polygon points="209.05 395.55 215.2 395.55 212.13 399.28 209.05 403 205.97 399.28 202.89 395.55 209.05 395.55" style="fill:#0b3476"/><polygon points="209.93 396.86 208.62 396.2 208.62 383.13 209.93 383.79 209.93 396.86" style="fill:#0b3476"/><polygon points="209.31 384.26 203.15 384.26 206.23 380.53 209.31 376.81 212.39 380.53 215.47 384.26 209.31 384.26" style="fill:#0b3476"/><polygon points="45.07 306.62 73.27 290.38 101.36 306.6 73.22 322.83 45.07 306.62" style="fill:#e7f9fc;opacity:0.8"/><polygon points="57.71 281.47 73.24 272.52 88.72 281.46 73.22 290.4 57.71 281.47" style="opacity:0.8;fill:url(#Neues_Verlaufsfeld_13-37)"/><polygon points="57.71 299.3 57.71 281.47 73.22 290.4 73.22 308.24 57.71 299.3" style="opacity:0.8;fill:url(#Neues_Verlaufsfeld_13-38)"/><polygon points="88.72 299.3 88.72 281.47 73.21 290.4 73.21 308.24 88.72 299.3" style="opacity:0.6000000000000001;fill:url(#Neues_Verlaufsfeld_13-39)"/><polygon points="45.07 274.25 73.27 258.01 101.36 274.23 73.22 290.46 45.07 274.25" style="fill:url(#Unbenannter_Verlauf_661-7)"/><polygon points="45.07 306.62 45.07 274.25 73.22 290.46 73.22 322.83 45.07 306.62" style="fill:url(#Verlauf_Visual_Icontiefe-13)"/><polygon points="101.35 306.62 101.35 274.25 73.2 290.46 73.2 322.83 101.35 306.62" style="fill:url(#Verlauf_Visual_Icontiefe-14)"/><text transform="translate(47.67 251.38)" style="font-size:18px;fill:#014a97;font-family:OpenSans-Regular, Open Sans">Cache</text><polygon points="45.07 414.62 73.27 398.38 101.36 414.6 73.22 430.83 45.07 414.62" style="fill:#e7f9fc;opacity:0.8"/><polygon points="57.71 389.47 73.24 380.52 88.72 389.46 73.22 398.4 57.71 389.47" style="opacity:0.8;fill:url(#Neues_Verlaufsfeld_13-40)"/><polygon points="57.71 407.3 57.71 389.47 73.22 398.4 73.22 416.24 57.71 407.3" style="opacity:0.8;fill:url(#Neues_Verlaufsfeld_13-41)"/><polygon points="88.72 407.3 88.72 389.47 73.21 398.4 73.21 416.24 88.72 407.3" style="opacity:0.6000000000000001;fill:url(#Neues_Verlaufsfeld_13-42)"/><polygon points="45.07 382.25 73.27 366.01 101.36 382.23 73.22 398.46 45.07 382.25" style="fill:url(#Unbenannter_Verlauf_661-8)"/><polygon points="45.07 414.62 45.07 382.25 73.22 398.46 73.22 430.83 45.07 414.62" style="fill:url(#Verlauf_Visual_Icontiefe-15)"/><polygon points="101.35 414.62 101.35 382.25 73.2 398.46 73.2 430.83 101.35 414.62" style="fill:url(#Verlauf_Visual_Icontiefe-16)"/><text transform="translate(47.67 359.38)" style="font-size:18px;fill:#014a97;font-family:OpenSans-Regular, Open Sans">Cache</text></g></svg>