<?xml version="1.0" encoding="utf-8"?><svg xmlns="http://www.w3.org/2000/svg" viewBox="0 0 168.15 128"><defs><style>.cls-1{fill:#0b9dcc;}.cls-2{fill:#001b41;}</style></defs><title>icon_deploy-now</title><g id="_2px_lineup_black" data-name="2px lineup black"><g id="deploy-now"><path class="cls-1" d="M163.53,117.19h-22a2,2,0,0,1,0-4h22a2,2,0,1,1,0,4Z"/><path class="cls-2" d="M136,0H8A8,8,0,0,0,0,8v92a8,8,0,0,0,8,8H50v12a4,4,0,0,1-4,4H32a2,2,0,0,0,0,4H98a2,2,0,0,0,0-4H52.92A8,8,0,0,0,54,120V108H80a2,2,0,0,0,0-4H8a4,4,0,0,1-4-4V8A4,4,0,0,1,8,4H136a4,4,0,0,1,4,4V52a2,2,0,0,0,4,0V8A8,8,0,0,0,136,0Z"/><path class="cls-1" d="M117.08,117.19H83.9a2,2,0,0,1,0-4h33.18a28,28,0,1,0-8.87-54.57A2,2,0,1,1,107,54.83a32,32,0,1,1,10.13,62.36Zm-22.16-9.75a2,2,0,0,1-1.48-.65,32,32,0,0,1,3.68-46.63,2,2,0,0,1,2.49,3.13,28,28,0,0,0-3.22,40.8,2,2,0,0,1-1.47,3.35Z"/><path class="cls-1" d="M116,64.21a1.89,1.89,0,0,1-.91-.23l-8.89-4.58a2,2,0,0,1-.86-2.7l4.59-8.88a2,2,0,0,1,3.56,1.83l-3.67,7.11,7.1,3.67a2,2,0,0,1-.92,3.78Z"/><path class="cls-1" d="M158.81,124.15a2,2,0,0,1-1.45-3.37l5.48-5.83L157,109.47a2,2,0,0,1,2.75-2.91l7.27,6.85a2,2,0,0,1,.63,1.4,2,2,0,0,1-.54,1.43l-6.86,7.28A2,2,0,0,1,158.81,124.15Z"/></g></g></svg>