<svg width="401" height="48" viewBox="0 0 401 48" fill="none" xmlns="http://www.w3.org/2000/svg">
<rect width="400.998" height="48" fill="white"/>
<path d="M0 4.00279C0 1.79379 1.79074 0.00305176 3.99974 0.00305176V0.00305176C6.20873 0.00305176 7.99948 1.7938 7.99948 4.00279V44.0002C7.99948 46.2092 6.20873 47.9999 3.99974 47.9999V47.9999C1.79074 47.9999 0 46.2092 0 44.0002V4.00279Z" fill="#003D8F"/>
<path fill-rule="evenodd" clip-rule="evenodd" d="M34.9977 0.00305176C28.3707 0.00305176 22.9985 5.37528 22.9985 12.0023V36.0007C22.9985 42.6277 28.3707 47.9999 34.9977 47.9999C41.6247 47.9999 46.9969 42.6277 46.9969 36.0007V12.0023C46.9969 5.37528 41.6247 0.00305176 34.9977 0.00305176ZM34.9977 7.00259C32.2364 7.00259 29.998 9.24102 29.998 12.0023V36.0007C29.998 38.7619 32.2364 41.0004 34.9977 41.0004C37.7589 41.0004 39.9974 38.7619 39.9974 36.0007V12.0023C39.9974 9.24102 37.7589 7.00259 34.9977 7.00259Z" fill="#003D8F"/>
<path fill-rule="evenodd" clip-rule="evenodd" d="M63.9623 0.355112C65.6995 -0.492202 67.7947 0.229235 68.642 1.96649C72.1406 9.13949 75.6397 16.3122 79.1389 23.485C82.3063 29.9777 85.4737 36.4705 88.6407 42.9635C89.488 44.7007 88.7666 46.7959 87.0294 47.6432C85.2921 48.4906 83.1969 47.7691 82.3496 46.0319C78.9553 39.0725 75.5603 32.1134 72.1653 25.1543C68.8937 18.4479 65.622 11.7415 62.3509 5.03488C61.5036 3.29763 62.225 1.20243 63.9623 0.355112ZM88.9941 36.8272V3.50282C88.9941 1.56995 87.4272 0.00305159 85.4944 0.00305159C83.5615 0.00305159 81.9946 1.56995 81.9946 3.50282V22.476L88.9941 36.8272ZM61.9959 11.2152V44.5C61.9959 46.4329 63.5628 47.9998 65.4957 47.9998C67.4286 47.9998 68.9955 46.4329 68.9955 44.5V25.5664L61.9959 11.2152Z" fill="#003D8F"/>
<path fill-rule="evenodd" clip-rule="evenodd" d="M115.999 0.00305176C109.372 0.00305176 104 5.37528 104 12.0023V36.0007C104 42.6277 109.372 47.9999 115.999 47.9999C122.626 47.9999 127.998 42.6277 127.998 36.0007V12.0023C127.998 5.37528 122.626 0.00305176 115.999 0.00305176ZM115.999 7.00259C113.238 7.00259 111 9.24102 111 12.0023V36.0007C111 38.7619 113.238 41.0004 115.999 41.0004C118.76 41.0004 120.999 38.7619 120.999 36.0007V12.0023C120.999 9.24102 118.76 7.00259 115.999 7.00259Z" fill="#003D8F"/>
<path d="M140.538 16.1306C141.135 18.0975 142.207 19.887 143.661 21.3405L155.399 31.601L155.402 31.598C156.044 32.2398 156.517 33.03 156.781 33.8985C157.044 34.7671 157.09 35.6872 156.912 36.5774C156.735 37.4677 156.341 38.3005 155.766 39.0021C155.19 39.7037 154.45 40.2525 153.611 40.5998C152.773 40.9472 151.862 41.0823 150.958 40.9934C150.055 40.9044 149.188 40.5941 148.433 40.0898C147.723 39.6152 147.133 38.9827 146.709 38.2426C146.17 37.0054 144.936 36.1407 143.5 36.1407C141.567 36.1407 140 37.7076 140 39.6405C140 40.3216 140.195 40.9573 140.531 41.4949C141.498 43.2637 142.878 44.7729 144.555 45.8934C146.264 47.0354 148.229 47.7382 150.274 47.9397C152.32 48.1412 154.383 47.835 156.282 47.0484C158.182 46.2618 159.857 45.019 161.161 43.4301C162.465 41.8412 163.357 39.9552 163.758 37.9392C164.159 35.9232 164.057 33.8394 163.46 31.8724C162.864 29.9054 161.791 28.1159 160.338 26.6624L148.599 16.4019L148.596 16.4049C147.955 15.7631 147.481 14.973 147.218 14.1044C146.954 13.2358 146.909 12.3157 147.086 11.4255C147.263 10.5353 147.657 9.7025 148.233 9.00085C148.809 8.29924 149.549 7.75045 150.387 7.40312C151.226 7.05576 152.137 6.92061 153.04 7.00956C153.943 7.09851 154.811 7.40888 155.566 7.91315C156.276 8.38767 156.865 9.02014 157.289 9.76017C157.829 10.9975 159.063 11.8624 160.499 11.8624C162.432 11.8624 163.998 10.2955 163.998 8.36259C163.998 7.68176 163.804 7.04633 163.468 6.5088C162.501 4.73972 161.121 3.23017 159.443 2.10955C157.734 0.967565 155.77 0.26473 153.724 0.0632359C151.679 -0.138228 149.615 0.167904 147.716 0.954504C145.817 1.7411 144.141 2.98391 142.837 4.57286C141.533 6.16177 140.641 8.04776 140.24 10.0638C139.839 12.0798 139.942 14.1636 140.538 16.1306Z" fill="#003D8F"/>
<path d="M215.526 11.8V37H222.258C231.402 37 234.102 30.196 234.102 24.4C234.102 18.172 231.042 11.8 222.402 11.8H215.526ZM222.654 34.084H218.658V14.68H223.05C228.594 14.68 230.862 19.504 230.862 24.4C230.862 28.972 228.918 34.084 222.654 34.084ZM246.617 37.432C249.101 37.432 251.189 36.424 252.557 35.056L250.649 32.932C249.497 34.084 248.093 34.588 246.689 34.588C243.917 34.588 241.901 32.392 241.649 29.008H254.105C254.177 28.288 254.213 27.496 254.213 26.92C254.213 20.872 250.757 18.172 246.617 18.172C241.721 18.172 238.445 21.7 238.445 27.784C238.445 33.4 241.577 37.432 246.617 37.432ZM241.613 26.344C241.793 22.564 243.953 20.944 246.617 20.944C248.561 20.944 251.009 22.168 251.045 26.344H241.613ZM266.745 37.432C271.209 37.432 274.341 33.904 274.341 27.784C274.341 21.88 271.425 18.172 266.745 18.172C264.441 18.172 263.109 19.072 262.029 20.152V18.604H258.897V44.272L262.029 42.796V35.272C263.001 36.424 264.369 37.432 266.745 37.432ZM266.349 34.516C264.477 34.516 263.073 33.4 262.029 32.032V23.536C262.929 21.952 264.477 21.052 266.349 21.052C269.373 21.052 271.137 23.788 271.137 27.784C271.137 32.14 269.409 34.516 266.349 34.516ZM279.397 37H282.529V11.008L279.397 12.484V37ZM295.695 37.432C300.627 37.432 303.831 33.832 303.831 27.784C303.831 21.7 300.627 18.172 295.695 18.172C290.763 18.172 287.559 21.772 287.559 27.82C287.559 33.904 290.763 37.432 295.695 37.432ZM295.695 34.516C292.563 34.516 290.727 31.996 290.727 27.82C290.727 23.536 292.563 21.052 295.695 21.052C298.827 21.052 300.663 23.608 300.663 27.784C300.663 31.996 298.791 34.516 295.695 34.516ZM310.909 43.984H314.077L323.617 18.604H320.413L315.769 31.132C315.517 31.78 315.373 32.284 315.193 32.896C315.013 32.284 314.869 31.78 314.617 31.132L310.045 18.604H306.913L313.717 36.532L310.909 43.984Z" fill="#003D8F"/>
<path d="M350.958 37V11.8H347.826V29.764C347.826 30.34 347.862 30.952 347.898 31.6C347.538 30.916 347.214 30.34 346.854 29.728L335.694 11.8H332.526V37H335.658V19C335.658 18.424 335.622 17.776 335.586 17.236C335.91 17.848 336.27 18.46 336.594 19L347.934 37H350.958ZM364.531 37.432C369.463 37.432 372.667 33.832 372.667 27.784C372.667 21.7 369.463 18.172 364.531 18.172C359.599 18.172 356.395 21.772 356.395 27.82C356.395 33.904 359.599 37.432 364.531 37.432ZM364.531 34.516C361.399 34.516 359.563 31.996 359.563 27.82C359.563 23.536 361.399 21.052 364.531 21.052C367.663 21.052 369.499 23.608 369.499 27.784C369.499 31.996 367.627 34.516 364.531 34.516ZM380.645 37H383.453L386.765 26.092C386.981 25.372 387.233 24.4 387.413 23.68C387.593 24.4 387.881 25.372 388.097 26.092L391.445 37H394.253L398.969 18.604H395.873L393.101 30.952C392.957 31.708 392.813 32.356 392.705 32.968L392.201 30.952L388.745 18.604H386.153L382.697 30.952C382.517 31.636 382.337 32.284 382.229 32.896C382.121 32.284 381.977 31.672 381.833 30.952L379.025 18.604H375.929L380.645 37Z" fill="#003D8F"/>
</svg>
