<?xml version="1.0" encoding="UTF-8"?><svg id="Icon_export" xmlns="http://www.w3.org/2000/svg" viewBox="0 0 48 48"><polyline points="41.5 37.5 44.5 40.5 41.5 43.5" style="fill:none; stroke:#001b41; stroke-linecap:round; stroke-linejoin:round;"/><circle cx="24" cy="23" r="13" style="fill:#95caeb;"/><g><path d="m34,24.5v-3l-2.349-.839c-.151-.494-.349-.967-.588-1.415l1.069-2.256-2.121-2.121-2.256,1.069c-.448-.239-.921-.437-1.415-.588l-.839-2.349h-3l-.839,2.349c-.494.151-.967.349-1.415.588l-2.256-1.069-2.121,2.121,1.069,2.256c-.239.448-.437.921-.588,1.415l-2.349.839v3l2.349.839c.151.494.349.967.588,1.415l-1.069,2.256,2.121,2.121,2.256-1.069c.448.239.921.437,1.415.588l.839,2.349h3l.839-2.349c.494-.151.967-.349,1.415-.588l2.256,1.069,2.121-2.121-1.069-2.256c.239-.448.437-.921.588-1.415l2.349-.839Z" style="fill:#1474c4;"/><path d="m20,23l2.667,4,5.333-8" style="fill:none; stroke:#fff; stroke-linecap:round; stroke-linejoin:round;"/></g><line x1="33.5" y1="40.5" x2="44.5" y2="40.5" style="fill:none; stroke:#001b41; stroke-linecap:round; stroke-miterlimit:10;"/><path d="m3.5,40.5h20.5c9.665,0,17.5-7.835,17.5-17.5S33.665,5.5,24,5.5,6.5,13.335,6.5,23v2.5" style="fill:none; stroke:#001b41; stroke-linecap:round; stroke-linejoin:round;"/><path d="m15,38c-3.704-2.225-6.516-5.777-7.775-10" style="fill:none; stroke:#001b41; stroke-linecap:round; stroke-linejoin:round;"/><polyline points="3.5 22.5 6.5 25.5 9.5 22.5" style="fill:none; stroke:#001b41; stroke-linecap:round; stroke-linejoin:round;"/><circle cx="24" cy="23" r="13" style="fill:#95caeb;"/><path d="m34,24.5v-3l-2.349-.839c-.151-.494-.349-.967-.588-1.415l1.069-2.256-2.121-2.121-2.256,1.069c-.448-.239-.921-.437-1.415-.588l-.839-2.349h-3l-.839,2.349c-.494.151-.967.349-1.415.588l-2.256-1.069-2.121,2.121,1.069,2.256c-.239.448-.437.921-.588,1.415l-2.349.839v3l2.349.839c.151.494.349.967.588,1.415l-1.069,2.256,2.121,2.121,2.256-1.069c.448.239.921.437,1.415.588l.839,2.349h3l.839-2.349c.494-.151.967-.349,1.415-.588l2.256,1.069,2.121-2.121-1.069-2.256c.239-.448.437-.921.588-1.415l2.349-.839Z" style="fill:#1474c4;"/><path d="m22.667,27.5c-.167,0-.323-.084-.416-.223l-2.667-4c-.153-.229-.091-.54.139-.693.228-.153.538-.092.693.139l2.251,3.376,4.917-7.376c.154-.231.465-.291.693-.139.229.153.292.463.139.693l-5.333,8c-.093.139-.249.223-.416.223Z" style="fill:#fff;"/><path d="m44.853,40.854l-2.999,2.999c-.098.098-.226.146-.354.146s-.256-.049-.354-.146c-.195-.195-.195-.512,0-.707l2.146-2.146h-9.793c-.276,0-.5-.224-.5-.5s.224-.5.5-.5h9.793l-2.146-2.146c-.195-.195-.195-.512,0-.707s.512-.195.707,0l2.999,2.999c.046.046.083.102.109.163.051.122.051.26,0,.382-.025.062-.062.117-.109.163Zm-29.424-2.596c.143-.237.065-.544-.171-.687-3.659-2.198-6.341-5.648-7.553-9.714-.079-.264-.354-.414-.622-.337-.265.079-.415.357-.337.622,1.283,4.306,4.123,7.959,7.996,10.286.081.048.17.071.258.071.169,0,.335-.086.429-.242ZM24,5C14.075,5,6,13.075,6,23v1.293l-2.146-2.146c-.195-.195-.512-.195-.707,0s-.195.512,0,.707l2.999,2.999c.046.046.102.083.163.109.061.025.126.038.191.038s.13-.013.191-.038c.062-.025.117-.062.163-.109l2.999-2.999c.195-.195.195-.512,0-.707s-.512-.195-.707,0l-2.146,2.146v-1.293c0-9.374,7.626-17,17-17s17,7.626,17,17-7.626,17-17,17H3.5c-.276,0-.5.224-.5.5s.224.5.5.5h20.5c9.925,0,18-8.075,18-18S33.925,5,24,5Z" style="fill:#001b41;"/><rect width="48" height="48" style="fill:none;"/></svg>