<svg xmlns="http://www.w3.org/2000/svg" xmlns:xlink="http://www.w3.org/1999/xlink" width="552" height="602" viewBox="0 0 552 602"><defs><clipPath id="clip-path"><rect x="1.43" y="0.95" width="551" height="608.64" style="fill:none"/></clipPath><linearGradient id="Neues_Verlaufsfeld_22" x1="-3.6" y1="157.41" x2="561.5" y2="157.41" gradientUnits="userSpaceOnUse"><stop offset="0" stop-color="#ecfafd"/><stop offset="0.5" stop-color="#70dbee"/><stop offset="1" stop-color="#fff"/></linearGradient><linearGradient id="Neues_Verlaufsfeld_22-2" x1="-3.6" y1="129.66" x2="561.5" y2="129.66" xlink:href="#Neues_Verlaufsfeld_22"/><linearGradient id="Neues_Verlaufsfeld_22-3" x1="-3.6" y1="101.95" x2="561.5" y2="101.95" xlink:href="#Neues_Verlaufsfeld_22"/><linearGradient id="Neues_Verlaufsfeld_22-4" x1="2.91" y1="181.38" x2="568.01" y2="181.38" xlink:href="#Neues_Verlaufsfeld_22"/><linearGradient id="Neues_Verlaufsfeld_22-5" x1="2.91" y1="209.11" x2="568.01" y2="209.11" xlink:href="#Neues_Verlaufsfeld_22"/><linearGradient id="Neues_Verlaufsfeld_22-6" x1="2.91" y1="236.84" x2="568.01" y2="236.84" xlink:href="#Neues_Verlaufsfeld_22"/><linearGradient id="Neues_Verlaufsfeld_22-7" x1="2.91" y1="264.72" x2="568.01" y2="264.72" xlink:href="#Neues_Verlaufsfeld_22"/><linearGradient id="Neues_Verlaufsfeld_22-8" x1="2.91" y1="292.29" x2="568.01" y2="292.29" xlink:href="#Neues_Verlaufsfeld_22"/><linearGradient id="Neues_Verlaufsfeld_22-9" x1="2.91" y1="320.02" x2="568.01" y2="320.02" xlink:href="#Neues_Verlaufsfeld_22"/><linearGradient id="Neues_Verlaufsfeld_22-10" x1="2.91" y1="347.74" x2="568.01" y2="347.74" xlink:href="#Neues_Verlaufsfeld_22"/><linearGradient id="Neues_Verlaufsfeld_22-11" x1="-3.6" y1="-119.83" x2="561.5" y2="-119.83" xlink:href="#Neues_Verlaufsfeld_22"/><linearGradient id="Neues_Verlaufsfeld_22-12" x1="-3.6" y1="-147.58" x2="561.5" y2="-147.58" xlink:href="#Neues_Verlaufsfeld_22"/><linearGradient id="Neues_Verlaufsfeld_22-13" x1="2.91" y1="-95.86" x2="568.01" y2="-95.86" xlink:href="#Neues_Verlaufsfeld_22"/><linearGradient id="Neues_Verlaufsfeld_22-14" x1="2.91" y1="-68.13" x2="568.01" y2="-68.13" xlink:href="#Neues_Verlaufsfeld_22"/><linearGradient id="Neues_Verlaufsfeld_22-15" x1="2.91" y1="-40.4" x2="568.01" y2="-40.4" xlink:href="#Neues_Verlaufsfeld_22"/><linearGradient id="Neues_Verlaufsfeld_22-16" x1="2.91" y1="-12.52" x2="568.01" y2="-12.52" xlink:href="#Neues_Verlaufsfeld_22"/><linearGradient id="Neues_Verlaufsfeld_22-17" x1="2.91" y1="15.04" x2="568.01" y2="15.04" xlink:href="#Neues_Verlaufsfeld_22"/><linearGradient id="Neues_Verlaufsfeld_22-18" x1="2.91" y1="42.77" x2="568.01" y2="42.77" xlink:href="#Neues_Verlaufsfeld_22"/><linearGradient id="Neues_Verlaufsfeld_22-19" x1="2.91" y1="70.5" x2="568.01" y2="70.5" xlink:href="#Neues_Verlaufsfeld_22"/><linearGradient id="Neues_Verlaufsfeld_22-20" x1="2.91" y1="375.62" x2="568.01" y2="375.62" xlink:href="#Neues_Verlaufsfeld_22"/><linearGradient id="Neues_Verlaufsfeld_22-21" x1="-3.6" y1="407.03" x2="561.5" y2="407.03" xlink:href="#Neues_Verlaufsfeld_22"/><linearGradient id="Neues_Verlaufsfeld_22-22" x1="2.91" y1="431" x2="568.01" y2="431" xlink:href="#Neues_Verlaufsfeld_22"/><linearGradient id="Neues_Verlaufsfeld_22-23" x1="2.91" y1="458.73" x2="568.01" y2="458.73" xlink:href="#Neues_Verlaufsfeld_22"/><linearGradient id="Neues_Verlaufsfeld_22-24" x1="2.91" y1="486.46" x2="568.01" y2="486.46" xlink:href="#Neues_Verlaufsfeld_22"/><linearGradient id="Neues_Verlaufsfeld_22-25" x1="2.91" y1="514.34" x2="568.01" y2="514.34" xlink:href="#Neues_Verlaufsfeld_22"/><linearGradient id="Neues_Verlaufsfeld_22-26" x1="2.91" y1="541.87" x2="568.01" y2="541.87" xlink:href="#Neues_Verlaufsfeld_22"/><linearGradient id="Neues_Verlaufsfeld_22-27" x1="20.46" y1="559.42" x2="585.56" y2="559.42" xlink:href="#Neues_Verlaufsfeld_22"/><linearGradient id="Neues_Verlaufsfeld_22-28" x1="-3.6" y1="514.34" x2="561.5" y2="514.34" xlink:href="#Neues_Verlaufsfeld_22"/><linearGradient id="Neues_Verlaufsfeld_22-29" x1="2.91" y1="490.37" x2="568.01" y2="490.37" xlink:href="#Neues_Verlaufsfeld_22"/><linearGradient id="Neues_Verlaufsfeld_22-30" x1="2.91" y1="462.64" x2="568.01" y2="462.64" xlink:href="#Neues_Verlaufsfeld_22"/><linearGradient id="Neues_Verlaufsfeld_22-31" x1="2.91" y1="434.91" x2="568.01" y2="434.91" xlink:href="#Neues_Verlaufsfeld_22"/><linearGradient id="Neues_Verlaufsfeld_22-32" x1="2.91" y1="407.03" x2="568.01" y2="407.03" xlink:href="#Neues_Verlaufsfeld_22"/><linearGradient id="Neues_Verlaufsfeld_22-33" x1="2.91" y1="379.47" x2="568.01" y2="379.47" xlink:href="#Neues_Verlaufsfeld_22"/><linearGradient id="Neues_Verlaufsfeld_22-34" x1="2.91" y1="351.74" x2="568.01" y2="351.74" xlink:href="#Neues_Verlaufsfeld_22"/><linearGradient id="Neues_Verlaufsfeld_22-35" x1="2.91" y1="324.01" x2="568.01" y2="324.01" xlink:href="#Neues_Verlaufsfeld_22"/><linearGradient id="Neues_Verlaufsfeld_22-36" x1="-3.6" y1="264.72" x2="561.5" y2="264.72" xlink:href="#Neues_Verlaufsfeld_22"/><linearGradient id="Neues_Verlaufsfeld_22-37" x1="2.91" y1="240.75" x2="568.01" y2="240.75" xlink:href="#Neues_Verlaufsfeld_22"/><linearGradient id="Neues_Verlaufsfeld_22-38" x1="2.91" y1="213.02" x2="568.01" y2="213.02" xlink:href="#Neues_Verlaufsfeld_22"/><linearGradient id="Neues_Verlaufsfeld_22-39" x1="2.91" y1="185.29" x2="568.01" y2="185.29" xlink:href="#Neues_Verlaufsfeld_22"/><linearGradient id="Neues_Verlaufsfeld_22-40" x1="2.91" y1="157.41" x2="568.01" y2="157.41" xlink:href="#Neues_Verlaufsfeld_22"/><linearGradient id="Neues_Verlaufsfeld_22-41" x1="2.91" y1="129.73" x2="568.01" y2="129.73" xlink:href="#Neues_Verlaufsfeld_22"/><linearGradient id="Neues_Verlaufsfeld_22-42" x1="2.91" y1="102" x2="568.01" y2="102" xlink:href="#Neues_Verlaufsfeld_22"/><linearGradient id="Neues_Verlaufsfeld_22-43" x1="2.91" y1="74.12" x2="568.01" y2="74.12" xlink:href="#Neues_Verlaufsfeld_22"/><linearGradient id="Neues_Verlaufsfeld_22-44" x1="-3.6" y1="42.71" x2="561.5" y2="42.71" xlink:href="#Neues_Verlaufsfeld_22"/><linearGradient id="Neues_Verlaufsfeld_22-45" x1="2.91" y1="18.74" x2="568.01" y2="18.74" xlink:href="#Neues_Verlaufsfeld_22"/><linearGradient id="Neues_Verlaufsfeld_22-46" x1="2.91" y1="-8.98" x2="568.01" y2="-8.98" xlink:href="#Neues_Verlaufsfeld_22"/><linearGradient id="Neues_Verlaufsfeld_22-47" x1="2.91" y1="-36.71" x2="568.01" y2="-36.71" xlink:href="#Neues_Verlaufsfeld_22"/><linearGradient id="Neues_Verlaufsfeld_22-48" x1="2.91" y1="-64.59" x2="568.01" y2="-64.59" xlink:href="#Neues_Verlaufsfeld_22"/><linearGradient id="Neues_Verlaufsfeld_22-49" x1="-3.6" y1="292.72" x2="561.5" y2="292.72" xlink:href="#Neues_Verlaufsfeld_22"/><linearGradient id="Unbenannter_Verlauf_12" x1="195.17" y1="371.25" x2="364.39" y2="371.25" gradientUnits="userSpaceOnUse"><stop offset="0" stop-color="#f6f7f8"/><stop offset="1" stop-color="#95a0b0"/></linearGradient><linearGradient id="Unbenannter_Verlauf_214" x1="279.05" y1="172.83" x2="279.05" y2="383.39" gradientUnits="userSpaceOnUse"><stop offset="0.34" stop-color="#e7f9fc" stop-opacity="0"/><stop offset="0.44" stop-color="#bfeff8" stop-opacity="0.11"/><stop offset="0.67" stop-color="#6ddcef" stop-opacity="0.32"/><stop offset="0.85" stop-color="#3bd0ea" stop-opacity="0.45"/><stop offset="0.95" stop-color="#28cce8" stop-opacity="0.5"/></linearGradient><clipPath id="clip-path-2"><rect x="-2.57" y="-687.05" width="551" height="608.64" style="fill:none"/></clipPath><linearGradient id="Neues_Verlaufsfeld_22-50" x1="-1.09" y1="-146.13" x2="564.01" y2="-146.13" xlink:href="#Neues_Verlaufsfeld_22"/><linearGradient id="Neues_Verlaufsfeld_22-51" x1="16.46" y1="-128.58" x2="581.56" y2="-128.58" xlink:href="#Neues_Verlaufsfeld_22"/><linearGradient id="Neues_Verlaufsfeld_13" x1="107.75" y1="237.53" x2="84.27" y2="274.64" gradientUnits="userSpaceOnUse"><stop offset="0" stop-color="#8c2de0"/><stop offset="0" stop-color="#8a34e1"/><stop offset="1" stop-color="#4a00de"/></linearGradient><linearGradient id="Neues_Verlaufsfeld_13-2" x1="78.59" y1="272.59" x2="93.96" y2="272.59" xlink:href="#Neues_Verlaufsfeld_13"/><linearGradient id="Neues_Verlaufsfeld_13-3" x1="93.95" y1="272.59" x2="109.32" y2="272.59" xlink:href="#Neues_Verlaufsfeld_13"/><linearGradient id="Unbenannter_Verlauf_661" x1="93.96" y1="227.49" x2="93.96" y2="305.67" gradientUnits="userSpaceOnUse"><stop offset="0" stop-color="#e5f7fa" stop-opacity="0"/><stop offset="0.58" stop-color="#28cce8" stop-opacity="0.5"/></linearGradient><linearGradient id="Verlauf_Visual_Icontiefe" x1="99.37" y1="245.35" x2="63.26" y2="302.98" gradientUnits="userSpaceOnUse"><stop offset="0" stop-color="#e5f7fa" stop-opacity="0"/><stop offset="1" stop-color="#28cce8" stop-opacity="0.5"/></linearGradient><linearGradient id="Verlauf_Visual_Icontiefe-2" x1="77.75" y1="255.79" x2="144.71" y2="301.24" xlink:href="#Verlauf_Visual_Icontiefe"/><linearGradient id="Neues_Verlaufsfeld_13-4" x1="107.75" y1="145.53" x2="84.27" y2="182.64" xlink:href="#Neues_Verlaufsfeld_13"/><linearGradient id="Neues_Verlaufsfeld_13-5" x1="78.59" y1="180.59" x2="93.96" y2="180.59" xlink:href="#Neues_Verlaufsfeld_13"/><linearGradient id="Neues_Verlaufsfeld_13-6" x1="93.95" y1="180.59" x2="109.32" y2="180.59" xlink:href="#Neues_Verlaufsfeld_13"/><linearGradient id="Unbenannter_Verlauf_661-2" x1="93.96" y1="135.49" x2="93.96" y2="213.67" xlink:href="#Unbenannter_Verlauf_661"/><linearGradient id="Verlauf_Visual_Icontiefe-3" x1="99.37" y1="153.35" x2="63.26" y2="210.98" xlink:href="#Verlauf_Visual_Icontiefe"/><linearGradient id="Verlauf_Visual_Icontiefe-4" x1="77.75" y1="163.79" x2="144.71" y2="209.24" xlink:href="#Verlauf_Visual_Icontiefe"/><linearGradient id="Neues_Verlaufsfeld_13-7" x1="107.75" y1="53.53" x2="84.27" y2="90.64" xlink:href="#Neues_Verlaufsfeld_13"/><linearGradient id="Neues_Verlaufsfeld_13-8" x1="78.59" y1="88.59" x2="93.96" y2="88.59" xlink:href="#Neues_Verlaufsfeld_13"/><linearGradient id="Neues_Verlaufsfeld_13-9" x1="93.95" y1="88.59" x2="109.32" y2="88.59" xlink:href="#Neues_Verlaufsfeld_13"/><linearGradient id="Unbenannter_Verlauf_661-3" x1="93.96" y1="43.49" x2="93.96" y2="121.67" xlink:href="#Unbenannter_Verlauf_661"/><linearGradient id="Verlauf_Visual_Icontiefe-5" x1="99.37" y1="61.35" x2="63.26" y2="118.98" xlink:href="#Verlauf_Visual_Icontiefe"/><linearGradient id="Verlauf_Visual_Icontiefe-6" x1="77.75" y1="71.79" x2="144.71" y2="117.24" xlink:href="#Verlauf_Visual_Icontiefe"/><linearGradient id="Neues_Verlaufsfeld_13-10" x1="107.75" y1="329.53" x2="84.27" y2="366.64" xlink:href="#Neues_Verlaufsfeld_13"/><linearGradient id="Neues_Verlaufsfeld_13-11" x1="78.59" y1="364.59" x2="93.96" y2="364.59" xlink:href="#Neues_Verlaufsfeld_13"/><linearGradient id="Neues_Verlaufsfeld_13-12" x1="93.95" y1="364.59" x2="109.32" y2="364.59" xlink:href="#Neues_Verlaufsfeld_13"/><linearGradient id="Unbenannter_Verlauf_661-4" x1="93.96" y1="319.49" x2="93.96" y2="397.67" xlink:href="#Unbenannter_Verlauf_661"/><linearGradient id="Verlauf_Visual_Icontiefe-7" x1="99.37" y1="337.35" x2="63.26" y2="394.98" xlink:href="#Verlauf_Visual_Icontiefe"/><linearGradient id="Verlauf_Visual_Icontiefe-8" x1="77.75" y1="347.79" x2="144.71" y2="393.24" xlink:href="#Verlauf_Visual_Icontiefe"/><linearGradient id="Neues_Verlaufsfeld_13-13" x1="107.75" y1="425.53" x2="84.27" y2="462.64" xlink:href="#Neues_Verlaufsfeld_13"/><linearGradient id="Neues_Verlaufsfeld_13-14" x1="78.59" y1="460.59" x2="93.96" y2="460.59" xlink:href="#Neues_Verlaufsfeld_13"/><linearGradient id="Neues_Verlaufsfeld_13-15" x1="93.95" y1="460.59" x2="109.32" y2="460.59" xlink:href="#Neues_Verlaufsfeld_13"/><linearGradient id="Unbenannter_Verlauf_661-5" x1="93.96" y1="415.49" x2="93.96" y2="493.67" xlink:href="#Unbenannter_Verlauf_661"/><linearGradient id="Verlauf_Visual_Icontiefe-9" x1="99.37" y1="433.35" x2="63.26" y2="490.98" xlink:href="#Verlauf_Visual_Icontiefe"/><linearGradient id="Verlauf_Visual_Icontiefe-10" x1="77.75" y1="443.79" x2="144.71" y2="489.24" xlink:href="#Verlauf_Visual_Icontiefe"/><linearGradient id="Neues_Verlaufsfeld_13-16" x1="483.75" y1="285.53" x2="460.27" y2="322.64" xlink:href="#Neues_Verlaufsfeld_13"/><linearGradient id="Neues_Verlaufsfeld_13-17" x1="454.59" y1="320.59" x2="469.96" y2="320.59" xlink:href="#Neues_Verlaufsfeld_13"/><linearGradient id="Neues_Verlaufsfeld_13-18" x1="469.95" y1="320.59" x2="485.32" y2="320.59" xlink:href="#Neues_Verlaufsfeld_13"/><linearGradient id="Unbenannter_Verlauf_661-6" x1="469.96" y1="275.49" x2="469.96" y2="353.67" xlink:href="#Unbenannter_Verlauf_661"/><linearGradient id="Verlauf_Visual_Icontiefe-11" x1="475.37" y1="293.35" x2="439.26" y2="350.98" xlink:href="#Verlauf_Visual_Icontiefe"/><linearGradient id="Verlauf_Visual_Icontiefe-12" x1="453.75" y1="303.79" x2="520.71" y2="349.24" xlink:href="#Verlauf_Visual_Icontiefe"/><linearGradient id="Neues_Verlaufsfeld_13-19" x1="483.75" y1="185.53" x2="460.27" y2="222.64" xlink:href="#Neues_Verlaufsfeld_13"/><linearGradient id="Neues_Verlaufsfeld_13-20" x1="454.59" y1="220.59" x2="469.96" y2="220.59" xlink:href="#Neues_Verlaufsfeld_13"/><linearGradient id="Neues_Verlaufsfeld_13-21" x1="469.95" y1="220.59" x2="485.32" y2="220.59" xlink:href="#Neues_Verlaufsfeld_13"/><linearGradient id="Unbenannter_Verlauf_661-7" x1="469.96" y1="175.49" x2="469.96" y2="253.67" xlink:href="#Unbenannter_Verlauf_661"/><linearGradient id="Verlauf_Visual_Icontiefe-13" x1="475.37" y1="193.35" x2="439.26" y2="250.98" xlink:href="#Verlauf_Visual_Icontiefe"/><linearGradient id="Verlauf_Visual_Icontiefe-14" x1="453.75" y1="203.79" x2="520.71" y2="249.24" xlink:href="#Verlauf_Visual_Icontiefe"/><linearGradient id="Neues_Verlaufsfeld_13-22" x1="483.75" y1="385.53" x2="460.27" y2="422.64" xlink:href="#Neues_Verlaufsfeld_13"/><linearGradient id="Neues_Verlaufsfeld_13-23" x1="454.59" y1="420.59" x2="469.96" y2="420.59" xlink:href="#Neues_Verlaufsfeld_13"/><linearGradient id="Neues_Verlaufsfeld_13-24" x1="469.95" y1="420.59" x2="485.32" y2="420.59" xlink:href="#Neues_Verlaufsfeld_13"/><linearGradient id="Unbenannter_Verlauf_661-8" x1="469.96" y1="375.49" x2="469.96" y2="453.67" xlink:href="#Unbenannter_Verlauf_661"/><linearGradient id="Verlauf_Visual_Icontiefe-15" x1="475.37" y1="393.35" x2="439.26" y2="450.98" xlink:href="#Verlauf_Visual_Icontiefe"/><linearGradient id="Verlauf_Visual_Icontiefe-16" x1="453.75" y1="403.79" x2="520.71" y2="449.24" xlink:href="#Verlauf_Visual_Icontiefe"/><linearGradient id="Neues_Verlaufsfeld_13-25" x1="107.75" y1="517.53" x2="84.27" y2="554.64" xlink:href="#Neues_Verlaufsfeld_13"/><linearGradient id="Neues_Verlaufsfeld_13-26" x1="78.59" y1="552.59" x2="93.96" y2="552.59" xlink:href="#Neues_Verlaufsfeld_13"/><linearGradient id="Neues_Verlaufsfeld_13-27" x1="93.95" y1="552.59" x2="109.32" y2="552.59" xlink:href="#Neues_Verlaufsfeld_13"/><linearGradient id="Unbenannter_Verlauf_661-9" x1="93.96" y1="507.49" x2="93.96" y2="585.67" xlink:href="#Unbenannter_Verlauf_661"/><linearGradient id="Verlauf_Visual_Icontiefe-17" x1="99.37" y1="525.35" x2="63.26" y2="582.98" xlink:href="#Verlauf_Visual_Icontiefe"/><linearGradient id="Verlauf_Visual_Icontiefe-18" x1="77.75" y1="535.79" x2="144.71" y2="581.24" xlink:href="#Verlauf_Visual_Icontiefe"/></defs><g id="Ebene_1" data-name="Ebene 1"><g style="opacity:0.5"><g style="clip-path:url(#clip-path)"><line x1="-3.48" y1="320.47" x2="561.38" y2="-5.65" style="fill:none;stroke-miterlimit:10;stroke-width:0.5px;stroke:url(#Neues_Verlaufsfeld_22)"/><line x1="-3.48" y1="292.72" x2="561.38" y2="-33.4" style="fill:none;stroke-miterlimit:10;stroke-width:0.5px;stroke:url(#Neues_Verlaufsfeld_22-2)"/><line x1="-3.48" y1="265.01" x2="561.38" y2="-61.11" style="fill:none;stroke-miterlimit:10;stroke-width:0.5px;stroke:url(#Neues_Verlaufsfeld_22-3)"/><line x1="3.04" y1="344.44" x2="567.89" y2="18.32" style="fill:none;stroke-miterlimit:10;stroke-width:0.5px;stroke:url(#Neues_Verlaufsfeld_22-4)"/><line x1="3.04" y1="372.17" x2="567.89" y2="46.05" style="fill:none;stroke-miterlimit:10;stroke-width:0.5px;stroke:url(#Neues_Verlaufsfeld_22-5)"/><line x1="3.04" y1="399.9" x2="567.89" y2="73.78" style="fill:none;stroke-miterlimit:10;stroke-width:0.5px;stroke:url(#Neues_Verlaufsfeld_22-6)"/><line x1="3.04" y1="427.78" x2="567.89" y2="101.66" style="fill:none;stroke-miterlimit:10;stroke-width:0.5px;stroke:url(#Neues_Verlaufsfeld_22-7)"/><line x1="3.04" y1="455.35" x2="567.89" y2="129.23" style="fill:none;stroke-miterlimit:10;stroke-width:0.5px;stroke:url(#Neues_Verlaufsfeld_22-8)"/><line x1="3.04" y1="483.08" x2="567.89" y2="156.96" style="fill:none;stroke-miterlimit:10;stroke-width:0.5px;stroke:url(#Neues_Verlaufsfeld_22-9)"/><line x1="3.04" y1="510.8" x2="567.89" y2="184.69" style="fill:none;stroke-miterlimit:10;stroke-width:0.5px;stroke:url(#Neues_Verlaufsfeld_22-10)"/><line x1="-3.48" y1="43.23" x2="561.38" y2="-282.89" style="fill:none;stroke-miterlimit:10;stroke-width:0.5px;stroke:url(#Neues_Verlaufsfeld_22-11)"/><line x1="-3.48" y1="15.48" x2="561.38" y2="-310.64" style="fill:none;stroke-miterlimit:10;stroke-width:0.5px;stroke:url(#Neues_Verlaufsfeld_22-12)"/><line x1="3.04" y1="67.2" x2="567.89" y2="-258.92" style="fill:none;stroke-miterlimit:10;stroke-width:0.5px;stroke:url(#Neues_Verlaufsfeld_22-13)"/><line x1="3.04" y1="94.93" x2="567.89" y2="-231.19" style="fill:none;stroke-miterlimit:10;stroke-width:0.5px;stroke:url(#Neues_Verlaufsfeld_22-14)"/><line x1="3.04" y1="122.66" x2="567.89" y2="-203.46" style="fill:none;stroke-miterlimit:10;stroke-width:0.5px;stroke:url(#Neues_Verlaufsfeld_22-15)"/><line x1="3.04" y1="150.54" x2="567.89" y2="-175.58" style="fill:none;stroke-miterlimit:10;stroke-width:0.5px;stroke:url(#Neues_Verlaufsfeld_22-16)"/><line x1="3.04" y1="178.1" x2="567.89" y2="-148.02" style="fill:none;stroke-miterlimit:10;stroke-width:0.5px;stroke:url(#Neues_Verlaufsfeld_22-17)"/><line x1="3.04" y1="205.83" x2="567.89" y2="-120.29" style="fill:none;stroke-miterlimit:10;stroke-width:0.5px;stroke:url(#Neues_Verlaufsfeld_22-18)"/><line x1="3.04" y1="233.56" x2="567.89" y2="-92.56" style="fill:none;stroke-miterlimit:10;stroke-width:0.5px;stroke:url(#Neues_Verlaufsfeld_22-19)"/><line x1="3.04" y1="538.68" x2="567.89" y2="212.56" style="fill:none;stroke-miterlimit:10;stroke-width:0.5px;stroke:url(#Neues_Verlaufsfeld_22-20)"/><line x1="-3.48" y1="570.09" x2="561.38" y2="243.97" style="fill:none;stroke-miterlimit:10;stroke-width:0.5px;stroke:url(#Neues_Verlaufsfeld_22-21)"/><line x1="3.04" y1="594.06" x2="567.89" y2="267.94" style="fill:none;stroke-miterlimit:10;stroke-width:0.5px;stroke:url(#Neues_Verlaufsfeld_22-22)"/><line x1="3.04" y1="621.79" x2="567.89" y2="295.67" style="fill:none;stroke-miterlimit:10;stroke-width:0.5px;stroke:url(#Neues_Verlaufsfeld_22-23)"/><line x1="3.04" y1="649.52" x2="567.89" y2="323.4" style="fill:none;stroke-miterlimit:10;stroke-width:0.5px;stroke:url(#Neues_Verlaufsfeld_22-24)"/><line x1="3.04" y1="677.4" x2="567.89" y2="351.28" style="fill:none;stroke-miterlimit:10;stroke-width:0.5px;stroke:url(#Neues_Verlaufsfeld_22-25)"/><line x1="3.04" y1="704.93" x2="567.89" y2="378.81" style="fill:none;stroke-miterlimit:10;stroke-width:0.5px;stroke:url(#Neues_Verlaufsfeld_22-26)"/><line x1="20.58" y1="722.48" x2="585.44" y2="396.36" style="fill:none;stroke-miterlimit:10;stroke-width:0.5px;stroke:url(#Neues_Verlaufsfeld_22-27)"/><line x1="-3.48" y1="351.28" x2="561.38" y2="677.4" style="fill:none;stroke-miterlimit:10;stroke-width:0.5px;stroke:url(#Neues_Verlaufsfeld_22-28)"/><line x1="3.04" y1="327.31" x2="567.89" y2="653.43" style="fill:none;stroke-miterlimit:10;stroke-width:0.5px;stroke:url(#Neues_Verlaufsfeld_22-29)"/><line x1="3.04" y1="299.58" x2="567.89" y2="625.7" style="fill:none;stroke-miterlimit:10;stroke-width:0.5px;stroke:url(#Neues_Verlaufsfeld_22-30)"/><line x1="3.04" y1="271.85" x2="567.89" y2="597.97" style="fill:none;stroke-miterlimit:10;stroke-width:0.5px;stroke:url(#Neues_Verlaufsfeld_22-31)"/><line x1="3.04" y1="243.97" x2="567.89" y2="570.09" style="fill:none;stroke-miterlimit:10;stroke-width:0.5px;stroke:url(#Neues_Verlaufsfeld_22-32)"/><line x1="3.04" y1="216.41" x2="567.89" y2="542.52" style="fill:none;stroke-miterlimit:10;stroke-width:0.5px;stroke:url(#Neues_Verlaufsfeld_22-33)"/><line x1="3.04" y1="188.68" x2="567.89" y2="514.8" style="fill:none;stroke-miterlimit:10;stroke-width:0.5px;stroke:url(#Neues_Verlaufsfeld_22-34)"/><line x1="3.04" y1="160.95" x2="567.89" y2="487.07" style="fill:none;stroke-miterlimit:10;stroke-width:0.5px;stroke:url(#Neues_Verlaufsfeld_22-35)"/><line x1="-3.48" y1="101.66" x2="561.38" y2="427.78" style="fill:none;stroke-miterlimit:10;stroke-width:0.5px;stroke:url(#Neues_Verlaufsfeld_22-36)"/><line x1="3.04" y1="77.69" x2="567.89" y2="403.81" style="fill:none;stroke-miterlimit:10;stroke-width:0.5px;stroke:url(#Neues_Verlaufsfeld_22-37)"/><line x1="3.04" y1="49.96" x2="567.89" y2="376.08" style="fill:none;stroke-miterlimit:10;stroke-width:0.5px;stroke:url(#Neues_Verlaufsfeld_22-38)"/><line x1="3.04" y1="22.23" x2="567.89" y2="348.35" style="fill:none;stroke-miterlimit:10;stroke-width:0.5px;stroke:url(#Neues_Verlaufsfeld_22-39)"/><line x1="3.04" y1="-5.65" x2="567.89" y2="320.47" style="fill:none;stroke-miterlimit:10;stroke-width:0.5px;stroke:url(#Neues_Verlaufsfeld_22-40)"/><line x1="3.04" y1="-33.33" x2="567.89" y2="292.79" style="fill:none;stroke-miterlimit:10;stroke-width:0.5px;stroke:url(#Neues_Verlaufsfeld_22-41)"/><line x1="3.04" y1="-61.06" x2="567.89" y2="265.06" style="fill:none;stroke-miterlimit:10;stroke-width:0.5px;stroke:url(#Neues_Verlaufsfeld_22-42)"/><line x1="3.04" y1="-88.94" x2="567.89" y2="237.18" style="fill:none;stroke-miterlimit:10;stroke-width:0.5px;stroke:url(#Neues_Verlaufsfeld_22-43)"/><line x1="-3.48" y1="-120.35" x2="561.38" y2="205.77" style="fill:none;stroke-miterlimit:10;stroke-width:0.5px;stroke:url(#Neues_Verlaufsfeld_22-44)"/><line x1="3.04" y1="-144.32" x2="567.89" y2="181.8" style="fill:none;stroke-miterlimit:10;stroke-width:0.5px;stroke:url(#Neues_Verlaufsfeld_22-45)"/><line x1="3.04" y1="-172.04" x2="567.89" y2="154.08" style="fill:none;stroke-miterlimit:10;stroke-width:0.5px;stroke:url(#Neues_Verlaufsfeld_22-46)"/><line x1="3.04" y1="-199.77" x2="567.89" y2="126.35" style="fill:none;stroke-miterlimit:10;stroke-width:0.5px;stroke:url(#Neues_Verlaufsfeld_22-47)"/><line x1="3.04" y1="-227.65" x2="567.89" y2="98.47" style="fill:none;stroke-miterlimit:10;stroke-width:0.5px;stroke:url(#Neues_Verlaufsfeld_22-48)"/><line x1="-3.48" y1="129.66" x2="561.38" y2="455.78" style="fill:none;stroke-miterlimit:10;stroke-width:0.5px;stroke:url(#Neues_Verlaufsfeld_22-49)"/></g></g><g style="opacity:0.7000000000000001"><path d="M277.07,329.07a6,6,0,0,1,5.42,0l80.8,46.65c1.49.86,1.49,2.27,0,3.13l-80.8,46.65a6,6,0,0,1-5.42,0l-80.8-46.65c-1.49-.86-1.49-2.27,0-3.13Z" style="fill:#001b41"/></g><path d="M195.17,330.36v30.72a6,6,0,0,0,2.71,4.69l79.19,45.72a6,6,0,0,0,5.42,0l79.19-45.72a6,6,0,0,0,2.71-4.69V330.36" style="fill:url(#Unbenannter_Verlauf_12)"/><path d="M277.07,281.34a6,6,0,0,1,5.42,0L363.29,328c1.49.86,1.49,2.27,0,3.14l-80.8,46.64a6,6,0,0,1-5.42,0l-80.8-46.64c-1.49-.87-1.49-2.28,0-3.14Z" style="fill:#f6f7f8"/><path d="M277.07,281.34a6,6,0,0,1,5.42,0L363.29,328c1.49.86,1.49,2.27,0,3.13l-80.8,46.65a6,6,0,0,1-5.42,0l-80.8-46.65c-1.49-.86-1.49-2.27,0-3.13Z" style="fill:#f6f7f8"/><path d="M277.07,281.34a6,6,0,0,1,5.42,0L363.29,328c1.49.86,1.49,2.27,0,3.13l-80.8,46.65a6,6,0,0,1-5.42,0l-80.8-46.65c-1.49-.86-1.49-2.27,0-3.13Z" style="fill:none;stroke:#fff;stroke-miterlimit:10;stroke-width:2px"/><path d="M194.52,179.76V325.89a6,6,0,0,0,2.68,4.65l80,46.17a5.92,5.92,0,0,0,5.36,0l78.38-45.37a6,6,0,0,0,2.68-4.65V179.76" style="fill:url(#Unbenannter_Verlauf_214)"/><ellipse cx="330.91" cy="376.72" rx="3.18" ry="1.84" transform="translate(-160.79 474.93) rotate(-60)" style="fill:#001b41"/><polyline points="232.01 379.02 225.52 382.77 224.57 405.52 186.28 427.2 172.96 419.29 173.89 339.07 133.39 315.6" style="fill:none;stroke:#014a97;stroke-linecap:round;stroke-linejoin:round;stroke-width:2px"/><line x1="132.96" y1="547.29" x2="133.39" y2="83.6" style="fill:none;stroke:#014a97;stroke-linecap:round;stroke-linejoin:round;stroke-width:2px"/><g style="opacity:0.5"><g style="clip-path:url(#clip-path-2)"><line x1="-0.96" y1="16.93" x2="563.89" y2="-309.19" style="fill:none;stroke-miterlimit:10;stroke-width:0.5px;stroke:url(#Neues_Verlaufsfeld_22-50)"/><line x1="16.58" y1="34.48" x2="581.44" y2="-291.64" style="fill:none;stroke-miterlimit:10;stroke-width:0.5px;stroke:url(#Neues_Verlaufsfeld_22-51)"/></g></g><text transform="translate(70.13 228.71)" style="font-size:18px;fill:#014a97;font-family:OpenSans-Regular, Open Sans">.yaml</text><polygon points="66.07 284.25 94.01 268.16 121.84 284.23 93.96 300.31 66.07 284.25" style="fill:#e7f9fc;opacity:0.8"/><polygon points="78.59 259.33 93.98 250.47 109.32 259.32 93.96 268.18 78.59 259.33" style="opacity:0.8;fill:url(#Neues_Verlaufsfeld_13)"/><polygon points="78.59 277 78.59 259.33 93.96 268.18 93.96 285.85 78.59 277" style="opacity:0.8;fill:url(#Neues_Verlaufsfeld_13-2)"/><polygon points="109.32 277 109.32 259.33 93.95 268.18 93.95 285.85 109.32 277" style="opacity:0.6000000000000001;fill:url(#Neues_Verlaufsfeld_13-3)"/><circle cx="93.94" cy="267.6" r="6.22" style="fill:#fff;opacity:0.2"/><circle cx="93.94" cy="267.6" r="3.45" style="fill:#014a97"/><polygon points="66.07 252.18 94.01 236.09 121.84 252.16 93.96 268.24 66.07 252.18" style="fill:url(#Unbenannter_Verlauf_661)"/><polygon points="66.07 284.25 66.07 252.18 93.96 268.24 93.96 300.31 66.07 284.25" style="fill:url(#Verlauf_Visual_Icontiefe)"/><polygon points="121.83 284.25 121.83 252.18 93.94 268.24 93.94 300.31 121.83 284.25" style="fill:url(#Verlauf_Visual_Icontiefe-2)"/><line x1="93.62" y1="267.6" x2="132.97" y2="267.6" style="fill:none;stroke:#014a97;stroke-linecap:round;stroke-miterlimit:10;stroke-width:2px"/><text transform="translate(70.13 136.71)" style="font-size:18px;fill:#014a97;font-family:OpenSans-Regular, Open Sans">.toml</text><polygon points="66.07 192.25 94.01 176.16 121.84 192.23 93.96 208.31 66.07 192.25" style="fill:#e7f9fc;opacity:0.8"/><polygon points="78.59 167.33 93.98 158.47 109.32 167.32 93.96 176.18 78.59 167.33" style="opacity:0.8;fill:url(#Neues_Verlaufsfeld_13-4)"/><polygon points="78.59 185 78.59 167.33 93.96 176.18 93.96 193.85 78.59 185" style="opacity:0.8;fill:url(#Neues_Verlaufsfeld_13-5)"/><polygon points="109.32 185 109.32 167.33 93.95 176.18 93.95 193.85 109.32 185" style="opacity:0.6000000000000001;fill:url(#Neues_Verlaufsfeld_13-6)"/><circle cx="93.94" cy="175.6" r="6.22" style="fill:#fff;opacity:0.2"/><circle cx="93.94" cy="175.6" r="3.45" style="fill:#014a97"/><polygon points="66.07 160.18 94.01 144.09 121.84 160.16 93.96 176.24 66.07 160.18" style="fill:url(#Unbenannter_Verlauf_661-2)"/><polygon points="66.07 192.25 66.07 160.18 93.96 176.24 93.96 208.31 66.07 192.25" style="fill:url(#Verlauf_Visual_Icontiefe-3)"/><polygon points="121.83 192.25 121.83 160.18 93.94 176.24 93.94 208.31 121.83 192.25" style="fill:url(#Verlauf_Visual_Icontiefe-4)"/><line x1="93.62" y1="175.6" x2="132.97" y2="175.6" style="fill:none;stroke:#014a97;stroke-linecap:round;stroke-miterlimit:10;stroke-width:2px"/><text transform="translate(70.13 44.71)" style="font-size:18px;fill:#014a97;font-family:OpenSans-Regular, Open Sans">.json</text><polygon points="66.07 100.25 94.01 84.16 121.84 100.23 93.96 116.31 66.07 100.25" style="fill:#e7f9fc;opacity:0.8"/><polygon points="78.59 75.33 93.98 66.47 109.32 75.32 93.96 84.18 78.59 75.33" style="opacity:0.8;fill:url(#Neues_Verlaufsfeld_13-7)"/><polygon points="78.59 93 78.59 75.33 93.96 84.18 93.96 101.85 78.59 93" style="opacity:0.8;fill:url(#Neues_Verlaufsfeld_13-8)"/><polygon points="109.32 93 109.32 75.33 93.95 84.18 93.95 101.85 109.32 93" style="opacity:0.6000000000000001;fill:url(#Neues_Verlaufsfeld_13-9)"/><circle cx="93.94" cy="83.6" r="6.22" style="fill:#fff;opacity:0.2"/><circle cx="93.94" cy="83.6" r="3.45" style="fill:#014a97"/><polygon points="66.07 68.18 94.01 52.09 121.84 68.16 93.96 84.24 66.07 68.18" style="fill:url(#Unbenannter_Verlauf_661-3)"/><polygon points="66.07 100.25 66.07 68.18 93.96 84.24 93.96 116.31 66.07 100.25" style="fill:url(#Verlauf_Visual_Icontiefe-5)"/><polygon points="121.83 100.25 121.83 68.18 93.94 84.24 93.94 116.31 121.83 100.25" style="fill:url(#Verlauf_Visual_Icontiefe-6)"/><line x1="93.62" y1="83.6" x2="132.97" y2="83.6" style="fill:none;stroke:#014a97;stroke-linecap:round;stroke-miterlimit:10;stroke-width:2px"/><text transform="translate(74.13 320.71)" style="font-size:18px;fill:#014a97;font-family:OpenSans-Regular, Open Sans">.md</text><polygon points="66.07 376.25 94.01 360.16 121.84 376.23 93.96 392.31 66.07 376.25" style="fill:#e7f9fc;opacity:0.8"/><polygon points="78.59 351.33 93.98 342.46 109.32 351.32 93.96 360.18 78.59 351.33" style="opacity:0.8;fill:url(#Neues_Verlaufsfeld_13-10)"/><polygon points="78.59 369 78.59 351.33 93.96 360.18 93.96 377.85 78.59 369" style="opacity:0.8;fill:url(#Neues_Verlaufsfeld_13-11)"/><polygon points="109.32 369 109.32 351.33 93.95 360.18 93.95 377.85 109.32 369" style="opacity:0.6000000000000001;fill:url(#Neues_Verlaufsfeld_13-12)"/><circle cx="93.94" cy="359.6" r="6.22" style="fill:#fff;opacity:0.2"/><circle cx="93.94" cy="359.6" r="3.45" style="fill:#014a97"/><polygon points="66.07 344.18 94.01 328.09 121.84 344.16 93.96 360.24 66.07 344.18" style="fill:url(#Unbenannter_Verlauf_661-4)"/><polygon points="66.07 376.25 66.07 344.18 93.96 360.24 93.96 392.31 66.07 376.25" style="fill:url(#Verlauf_Visual_Icontiefe-7)"/><polygon points="121.83 376.25 121.83 344.18 93.94 360.24 93.94 392.31 121.83 376.25" style="fill:url(#Verlauf_Visual_Icontiefe-8)"/><line x1="93.62" y1="359.6" x2="132.97" y2="359.6" style="fill:none;stroke:#014a97;stroke-linecap:round;stroke-miterlimit:10;stroke-width:2px"/><text transform="translate(74.13 416.71)" style="font-size:18px;fill:#014a97;font-family:OpenSans-Regular, Open Sans">.vue</text><polygon points="66.07 472.25 94.01 456.16 121.84 472.23 93.96 488.31 66.07 472.25" style="fill:#e7f9fc;opacity:0.8"/><polygon points="78.59 447.33 93.98 438.46 109.32 447.32 93.96 456.18 78.59 447.33" style="opacity:0.8;fill:url(#Neues_Verlaufsfeld_13-13)"/><polygon points="78.59 465 78.59 447.33 93.96 456.18 93.96 473.85 78.59 465" style="opacity:0.8;fill:url(#Neues_Verlaufsfeld_13-14)"/><polygon points="109.32 465 109.32 447.33 93.95 456.18 93.95 473.85 109.32 465" style="opacity:0.6000000000000001;fill:url(#Neues_Verlaufsfeld_13-15)"/><circle cx="93.94" cy="455.6" r="6.22" style="fill:#fff;opacity:0.2"/><circle cx="93.94" cy="455.6" r="3.45" style="fill:#014a97"/><polygon points="66.07 440.18 94.01 424.09 121.84 440.16 93.96 456.24 66.07 440.18" style="fill:url(#Unbenannter_Verlauf_661-5)"/><polygon points="66.07 472.25 66.07 440.18 93.96 456.24 93.96 488.31 66.07 472.25" style="fill:url(#Verlauf_Visual_Icontiefe-9)"/><polygon points="121.83 472.25 121.83 440.18 93.94 456.24 93.94 488.31 121.83 472.25" style="fill:url(#Verlauf_Visual_Icontiefe-10)"/><line x1="93.62" y1="455.6" x2="132.97" y2="455.6" style="fill:none;stroke:#014a97;stroke-linecap:round;stroke-miterlimit:10;stroke-width:2px"/><line x1="430.41" y1="415.13" x2="429.91" y2="215.88" style="fill:none;stroke:#014a97;stroke-linecap:round;stroke-linejoin:round;stroke-width:2px"/><polyline points="331.38 376.04 337.88 379.79 337.41 397.52 375.49 419.88 391.54 410.31 390.41 293.18 429.55 315.7" style="fill:none;stroke:#014a97;stroke-linecap:round;stroke-linejoin:round;stroke-width:2px"/><text transform="translate(454.13 276.71)" style="font-size:18px;fill:#014a97;font-family:OpenSans-Regular, Open Sans">.css</text><polygon points="442.07 332.25 470.01 316.16 497.85 332.23 469.96 348.31 442.07 332.25" style="fill:#e7f9fc;opacity:0.8"/><polygon points="454.59 307.33 469.98 298.46 485.32 307.32 469.96 316.18 454.59 307.33" style="opacity:0.8;fill:url(#Neues_Verlaufsfeld_13-16)"/><polygon points="454.59 325 454.59 307.33 469.96 316.18 469.96 333.85 454.59 325" style="opacity:0.8;fill:url(#Neues_Verlaufsfeld_13-17)"/><polygon points="485.32 325 485.32 307.33 469.95 316.18 469.95 333.85 485.32 325" style="opacity:0.6000000000000001;fill:url(#Neues_Verlaufsfeld_13-18)"/><circle cx="469.94" cy="315.6" r="6.22" style="fill:#fff;opacity:0.2"/><circle cx="469.94" cy="315.6" r="3.45" style="fill:#014a97"/><polygon points="442.07 300.18 470.01 284.09 497.85 300.16 469.96 316.24 442.07 300.18" style="fill:url(#Unbenannter_Verlauf_661-6)"/><polygon points="442.07 332.25 442.07 300.18 469.96 316.24 469.96 348.31 442.07 332.25" style="fill:url(#Verlauf_Visual_Icontiefe-11)"/><polygon points="497.83 332.25 497.83 300.18 469.94 316.24 469.94 348.31 497.83 332.25" style="fill:url(#Verlauf_Visual_Icontiefe-12)"/><text transform="translate(446.13 176.71)" style="font-size:18px;fill:#014a97;font-family:OpenSans-Regular, Open Sans">.html</text><polygon points="442.07 232.25 470.01 216.16 497.85 232.23 469.96 248.31 442.07 232.25" style="fill:#e7f9fc;opacity:0.8"/><polygon points="454.59 207.33 469.98 198.47 485.32 207.32 469.96 216.18 454.59 207.33" style="opacity:0.8;fill:url(#Neues_Verlaufsfeld_13-19)"/><polygon points="454.59 225 454.59 207.33 469.96 216.18 469.96 233.85 454.59 225" style="opacity:0.8;fill:url(#Neues_Verlaufsfeld_13-20)"/><polygon points="485.32 225 485.32 207.33 469.95 216.18 469.95 233.85 485.32 225" style="opacity:0.6000000000000001;fill:url(#Neues_Verlaufsfeld_13-21)"/><circle cx="469.94" cy="215.6" r="6.22" style="fill:#fff;opacity:0.2"/><circle cx="469.94" cy="215.6" r="3.45" style="fill:#014a97"/><polygon points="442.07 200.18 470.01 184.09 497.85 200.16 469.96 216.24 442.07 200.18" style="fill:url(#Unbenannter_Verlauf_661-7)"/><polygon points="442.07 232.25 442.07 200.18 469.96 216.24 469.96 248.31 442.07 232.25" style="fill:url(#Verlauf_Visual_Icontiefe-13)"/><polygon points="497.83 232.25 497.83 200.18 469.94 216.24 469.94 248.31 497.83 232.25" style="fill:url(#Verlauf_Visual_Icontiefe-14)"/><text transform="translate(458.13 376.71)" style="font-size:18px;fill:#014a97;font-family:OpenSans-Regular, Open Sans">.js</text><polygon points="442.07 432.25 470.01 416.16 497.85 432.23 469.96 448.31 442.07 432.25" style="fill:#e7f9fc;opacity:0.8"/><polygon points="454.59 407.33 469.98 398.46 485.32 407.32 469.96 416.18 454.59 407.33" style="opacity:0.8;fill:url(#Neues_Verlaufsfeld_13-22)"/><polygon points="454.59 425 454.59 407.33 469.96 416.18 469.96 433.85 454.59 425" style="opacity:0.8;fill:url(#Neues_Verlaufsfeld_13-23)"/><polygon points="485.32 425 485.32 407.33 469.95 416.18 469.95 433.85 485.32 425" style="opacity:0.6000000000000001;fill:url(#Neues_Verlaufsfeld_13-24)"/><circle cx="469.94" cy="415.6" r="6.22" style="fill:#fff;opacity:0.2"/><circle cx="469.94" cy="415.6" r="3.45" style="fill:#014a97"/><polygon points="442.07 400.18 470.01 384.09 497.85 400.16 469.96 416.24 442.07 400.18" style="fill:url(#Unbenannter_Verlauf_661-8)"/><polygon points="442.07 432.25 442.07 400.18 469.96 416.24 469.96 448.31 442.07 432.25" style="fill:url(#Verlauf_Visual_Icontiefe-15)"/><polygon points="497.83 432.25 497.83 400.18 469.94 416.24 469.94 448.31 497.83 432.25" style="fill:url(#Verlauf_Visual_Icontiefe-16)"/><polygon points="429.55 216.75 429.53 214.96 446.05 214.86 445.21 216.57 429.55 216.75" style="fill:#0b3476"/><polygon points="445.08 215.76 445.08 209.61 448.68 212.69 452.27 215.76 448.68 218.84 445.08 221.92 445.08 215.76" style="fill:#0b3476"/><polygon points="429.51 316.53 429.53 314.96 446.05 314.86 445.21 316.57 429.51 316.53" style="fill:#0b3476"/><polygon points="445.08 315.76 445.08 309.61 448.68 312.69 452.27 315.76 448.68 318.84 445.08 321.92 445.08 315.76" style="fill:#0b3476"/><polygon points="429.62 416.73 429.53 414.96 446.05 414.86 445.21 416.57 429.62 416.73" style="fill:#0b3476"/><polygon points="445.08 415.76 445.08 409.61 448.68 412.69 452.27 415.76 448.68 418.84 445.08 421.92 445.08 415.76" style="fill:#0b3476"/><path d="M283.54,278a6,6,0,0,1-3.46.75,9,9,0,0,1-3.89-1.24,6.67,6.67,0,0,1-2.48-2.21L275.9,274a10.31,10.31,0,0,0,1.2,1.5,6,6,0,0,0,1.22.95,3.58,3.58,0,0,0,1.49.51,2.08,2.08,0,0,0,1.3-.27.8.8,0,0,0,.4-.44,1,1,0,0,0-.05-.59,8.44,8.44,0,0,0-.69-1.27,3.93,3.93,0,0,1-.61-1.41,1.78,1.78,0,0,1,.22-1.07,2.74,2.74,0,0,1,1.06-1,6,6,0,0,1,3.32-.76,8,8,0,0,1,3.62,1.11,6.76,6.76,0,0,1,1.44,1.08,8.35,8.35,0,0,1,1.07,1.28l-2.59.62a8.86,8.86,0,0,0-1-1.14,5.44,5.44,0,0,0-1-.75A2.93,2.93,0,0,0,285,272a2.17,2.17,0,0,0-1.18.26,1,1,0,0,0-.4.4.81.81,0,0,0,0,.53,8.1,8.1,0,0,0,.71,1.31,3,3,0,0,1,.64,2.1A2.32,2.32,0,0,1,283.54,278Z" style="fill:#014a97"/><path d="M286.75,283.38,284.39,282l9.17-5.29-3-1.75,2-1.13,8.4,4.85-2,1.13-3-1.74Z" style="fill:#014a97"/><path d="M298.3,290.05l1.84-2-4.05-2.34-3.46,1.06-2.54-1.46,15.1-4.19,2.88,1.67-7.23,8.72Zm3.26-3.47,2.81-3.08c.22-.23.4-.41.55-.54q-1.23.42-6.26,2Z" style="fill:#014a97"/><path d="M306.54,294.8l-2.36-1.36,9.16-5.29-3-1.75,2-1.13,8.41,4.85-2,1.13-3-1.74Z" style="fill:#014a97"/><path d="M311.27,297.53l11.13-6.42,2.36,1.36-11.13,6.43Z" style="fill:#014a97"/><path d="M330.48,297.86a5,5,0,0,0-3.06-.61,8.47,8.47,0,0,0-3.52,1.19q-3.72,2.15-.93,3.76a15.48,15.48,0,0,0,3.42,1.3l-2,1.14a13.36,13.36,0,0,1-3.63-1.44c-1.62-.93-2.37-1.93-2.24-3s1.1-2.12,2.94-3.19a12.2,12.2,0,0,1,3.67-1.39,11.17,11.17,0,0,1,3.82-.1,9.49,9.49,0,0,1,3.47,1.2,6.78,6.78,0,0,1,2.47,2.33l-2.68.67a8.11,8.11,0,0,0-.74-1A3.7,3.7,0,0,0,330.48,297.86Z" style="fill:#014a97"/><path d="M275.32,294.81a6,6,0,0,1-3.46.75,8.84,8.84,0,0,1-3.88-1.25,6.7,6.7,0,0,1-2.49-2.2l2.2-1.27a8.83,8.83,0,0,0,1.2,1.51,5.61,5.61,0,0,0,1.22.94,3.75,3.75,0,0,0,1.49.52,2,2,0,0,0,1.29-.27.76.76,0,0,0,.4-.44,1,1,0,0,0,0-.6,9.06,9.06,0,0,0-.69-1.26,3.72,3.72,0,0,1-.61-1.42,1.74,1.74,0,0,1,.21-1.06,2.78,2.78,0,0,1,1.07-1,5.89,5.89,0,0,1,3.32-.76,7.94,7.94,0,0,1,3.61,1.11,7.08,7.08,0,0,1,1.45,1.07,8.43,8.43,0,0,1,1.07,1.29l-2.59.62a9,9,0,0,0-1-1.15,5.09,5.09,0,0,0-1-.74,2.75,2.75,0,0,0-1.34-.41,2.15,2.15,0,0,0-1.17.26.85.85,0,0,0-.4.4.78.78,0,0,0,0,.52,8.88,8.88,0,0,0,.72,1.32,3.11,3.11,0,0,1,.64,2.1A2.31,2.31,0,0,1,275.32,294.81Z" style="fill:#014a97"/><path d="M274.25,297.76l11.13-6.42,2.35,1.36-11.12,6.42Z" style="fill:#014a97"/><path d="M283.7,303.22l-2.36-1.37,9.17-5.29-3-1.74,2-1.14,8.4,4.86-2,1.13-3-1.74Z" style="fill:#014a97"/><path d="M294.84,309.65l-6.4-3.7,11.12-6.42,6.41,3.7L304,304.34,300,302l-2.44,1.42,3.76,2.17-1.93,1.12-3.77-2.18-2.87,1.66,4.05,2.34Z" style="fill:#014a97"/><path d="M226.08,284.34l4.42,2.55-5.77,3.33a22.43,22.43,0,0,1-2.51-.89,19.16,19.16,0,0,1-2.08-1c-1.68-1-2.47-2-2.37-3.08s1.08-2.15,2.93-3.22a11.14,11.14,0,0,1,5.74-1.54,11.63,11.63,0,0,1,5.78,1.6,8.05,8.05,0,0,1,2.62,2.3l-2.67.64a5.16,5.16,0,0,0-1.93-1.82,6.5,6.5,0,0,0-3.48-.82,7.8,7.8,0,0,0-3.68,1.07c-1.21.69-1.88,1.37-2,2s.26,1.26,1.21,1.8a12.7,12.7,0,0,0,1.65.78l2.32-1.34-2.11-1.22Z" style="fill:#014a97"/><path d="M233.31,295.72,226.9,292,238,285.6l6.41,3.7-1.94,1.12-4.05-2.34L236,289.49l3.77,2.17-1.94,1.12-3.76-2.18-2.87,1.66,4,2.34Z" style="fill:#014a97"/><path d="M245.5,302.76l-3-1.73,3.58-7.65-.07,0q-2.08,1.37-3,1.92l-5.24,3-2.11-1.22,11.13-6.42,3,1.72-3.5,7.6.06,0c1.37-.88,2.35-1.49,3-1.84l5.27-3,2.12,1.23Z" style="fill:#014a97"/><path d="M254.71,308.08l-6.41-3.7L259.43,298l6.41,3.7-1.93,1.11-4.05-2.34-2.45,1.41,3.77,2.18-1.93,1.12L255.48,303l-2.87,1.66,4.05,2.34Z" style="fill:#014a97"/><path d="M263.66,308.32l-4.27,2.46L257,309.42,268.16,303l3.24,1.87c1.52.87,2.36,1.68,2.53,2.41s-.29,1.43-1.41,2.08a5.7,5.7,0,0,1-2.29.7,8.56,8.56,0,0,1-2.73-.2c-.83,2.42-1.35,4-1.58,4.69L263.31,313l1.61-4Zm1.92-1.11.76.44a5.21,5.21,0,0,0,2,.74,2.75,2.75,0,0,0,1.7-.37c.53-.31.72-.63.58-1a3.19,3.19,0,0,0-1.35-1.16l-.71-.42Z" style="fill:#014a97"/><path d="M274.14,319.3l1.84-2L271.92,315,268.47,316l-2.55-1.47L281,310.37l2.88,1.67-7.23,8.72Zm3.25-3.47c1.66-1.81,2.59-2.84,2.82-3.08l.54-.54c-.82.28-2.9.93-6.26,2Z" style="fill:#014a97"/><path d="M282.37,324.05,280,322.69l9.17-5.29-3-1.75,2-1.13,8.4,4.85-2,1.13-3-1.74Z" style="fill:#014a97"/><path d="M302.79,329.39a11.69,11.69,0,0,1-5.62,1.67,10.16,10.16,0,0,1-5.41-1.42c-1.71-1-2.52-2-2.45-3.12s1-2.18,2.9-3.25a11.6,11.6,0,0,1,5.61-1.66,10.28,10.28,0,0,1,5.41,1.43c1.71,1,2.52,2,2.44,3.12S304.63,328.33,302.79,329.39Zm-8.13-4.69q-1.86,1.08-2.1,2c-.15.63.24,1.22,1.18,1.76q2.82,1.63,6.57-.53t.95-3.8a5.17,5.17,0,0,0-3.07-.67A8.47,8.47,0,0,0,294.66,324.7Z" style="fill:#014a97"/><path d="M306.14,332.84l-4.27,2.47L299.51,334l11.13-6.43,3.25,1.87c1.51.88,2.35,1.68,2.52,2.42s-.29,1.43-1.41,2.08a5.69,5.69,0,0,1-2.29.69,8.55,8.55,0,0,1-2.73-.19c-.83,2.41-1.35,4-1.58,4.69l-2.61-1.51,1.61-4Zm1.92-1.1.76.43a5.05,5.05,0,0,0,2,.74,2.68,2.68,0,0,0,1.7-.37c.53-.3.72-.62.58-1a3.06,3.06,0,0,0-1.35-1.17l-.71-.41Z" style="fill:#014a97"/><circle cx="133.05" cy="315.8" r="6.22" style="fill:#fff;opacity:0.2"/><circle cx="133.05" cy="315.8" r="3.45" style="fill:#014a97"/><circle cx="430.2" cy="315.79" r="6.22" style="fill:#fff;opacity:0.2"/><circle cx="430.2" cy="315.79" r="3.45" style="fill:#014a97"/><text transform="translate(70.13 508.71)" style="font-size:18px;fill:#014a97;font-family:OpenSans-Regular, Open Sans">.scss</text><polygon points="66.07 564.25 94.01 548.16 121.84 564.23 93.96 580.31 66.07 564.25" style="fill:#e7f9fc;opacity:0.8"/><polygon points="78.59 539.33 93.98 530.47 109.32 539.32 93.96 548.18 78.59 539.33" style="opacity:0.8;fill:url(#Neues_Verlaufsfeld_13-25)"/><polygon points="78.59 557 78.59 539.33 93.96 548.18 93.96 565.85 78.59 557" style="opacity:0.8;fill:url(#Neues_Verlaufsfeld_13-26)"/><polygon points="109.32 557 109.32 539.33 93.95 548.18 93.95 565.85 109.32 557" style="opacity:0.6000000000000001;fill:url(#Neues_Verlaufsfeld_13-27)"/><circle cx="93.94" cy="547.6" r="6.22" style="fill:#fff;opacity:0.2"/><circle cx="93.94" cy="547.6" r="3.45" style="fill:#014a97"/><polygon points="66.07 532.18 94.01 516.09 121.84 532.16 93.96 548.24 66.07 532.18" style="fill:url(#Unbenannter_Verlauf_661-9)"/><polygon points="66.07 564.25 66.07 532.18 93.96 548.24 93.96 580.31 66.07 564.25" style="fill:url(#Verlauf_Visual_Icontiefe-17)"/><polygon points="121.83 564.25 121.83 532.18 93.94 548.24 93.94 580.31 121.83 564.25" style="fill:url(#Verlauf_Visual_Icontiefe-18)"/><line x1="93.62" y1="547.6" x2="132.97" y2="547.6" style="fill:none;stroke:#014a97;stroke-linecap:round;stroke-miterlimit:10;stroke-width:2px"/><polygon points="232.08 378.91 226.75 375.83 232.64 375.51 238.54 375.18 237.97 378.58 237.41 381.99 232.08 378.91" style="fill:#0b3476"/></g></svg>